<?xml version="1.0" encoding="UTF-8" standalone="no"?><svg version="1.1" width="218" height="66" xmlns="http://www.w3.org/2000/svg" xmlns:xlink="http://www.w3.org/1999/xlink"><defs><clipPath id="el"><rect x="0" y="0" width="218" height="66"/></clipPath><linearGradient id="ek" x1="0" x2="0" y1="0" y2="100%"><stop offset="0%" stop-color="red"/><stop offset="100%" stop-color="yellow"/></linearGradient></defs><rect width="100%" height="100%" fill="#eee" stroke-width="0px"/><g clip-path="url(#el)"><path fill="url(#ek)" d="M0.02 56L0.02 56C0.02 56 3.78 55.49 6.04 55.49 8.3 55.49 9.81 56.13 12.06 56 16.59 55.74 19.59 54.98 24.11 54.47 26.36 54.21 27.87 54.15 30.13 53.96 32.39 53.76 33.89 53.54 36.15 53.44 38.41 53.35 39.92 53.35 42.17 53.44 44.44 53.54 46.15 54.56 48.2 53.96 50.66 53.22 51.81 51.09 54.22 49.87 56.33 48.79 57.93 48.31 60.24 47.82 62.44 47.36 64 47.41 66.26 47.31 68.52 47.22 70.12 47.77 72.29 47.31 74.64 46.81 75.97 45.45 78.31 44.76 80.49 44.11 82.06 43.83 84.33 43.73 86.58 43.64 88.09 44.24 90.35 44.24 92.61 44.24 94.13 44.02 96.37 43.73 98.64 43.44 100.18 42.52 102.4 42.71 104.7 42.91 106.1 44.26 108.42 44.76 110.62 45.22 112.18 45.17 114.44 45.27 116.69 45.36 118.2 45.27 120.46 45.27 122.72 45.27 124.23 45.17 126.48 45.27 128.75 45.36 130.25 45.59 132.51 45.78 134.76 45.97 136.27 46.19 138.53 46.29 140.78 46.38 142.29 46.29 144.55 46.29 146.81 46.29 148.31 46.29 150.57 46.29 152.83 46.29 154.34 46.19 156.59 46.29 158.86 46.38 160.35 46.7 162.62 46.8 164.87 46.9 166.38 46.8 168.64 46.8 170.9 46.8 172.41 46.7 174.66 46.8 176.92 46.9 178.42 47.31 180.68 47.31 182.94 47.31 184.46 47.09 186.71 46.8 188.98 46.51 190.51 46.34 192.73 45.78 195.03 45.19 197.98 45.8 198.75 43.73 202.49 33.73 202.34 14.51 204.77 13.58 206.85 12.78 207.12 31.19 210.79 39.13 211.64 40.96 216.82 39.64 216.82 39.64L216.82 56z" stroke="none"/><path fill="none" stroke="#000" stroke-width="2px" d="M0.02 56C0.02 56 3.78 55.49 6.04 55.49 8.3 55.49 9.81 56.13 12.06 56 16.59 55.74 19.59 54.98 24.11 54.47 26.36 54.21 27.87 54.15 30.13 53.96 32.39 53.76 33.89 53.54 36.15 53.44 38.41 53.35 39.92 53.35 42.17 53.44 44.44 53.54 46.15 54.56 48.2 53.96 50.66 53.22 51.81 51.09 54.22 49.87 56.33 48.79 57.93 48.31 60.24 47.82 62.44 47.36 64 47.41 66.26 47.31 68.52 47.22 70.12 47.77 72.29 47.31 74.64 46.81 75.97 45.45 78.31 44.76 80.49 44.11 82.06 43.83 84.33 43.73 86.58 43.64 88.09 44.24 90.35 44.24 92.61 44.24 94.13 44.02 96.37 43.73 98.64 43.44 100.18 42.52 102.4 42.71 104.7 42.91 106.1 44.26 108.42 44.76 110.62 45.22 112.18 45.17 114.44 45.27 116.69 45.36 118.2 45.27 120.46 45.27 122.72 45.27 124.23 45.17 126.48 45.27 128.75 45.36 130.25 45.59 132.51 45.78 134.76 45.97 136.27 46.19 138.53 46.29 140.78 46.38 142.29 46.29 144.55 46.29 146.81 46.29 148.31 46.29 150.57 46.29 152.83 46.29 154.34 46.19 156.59 46.29 158.86 46.38 160.35 46.7 162.62 46.8 164.87 46.9 166.38 46.8 168.64 46.8 170.9 46.8 172.41 46.7 174.66 46.8 176.92 46.9 178.42 47.31 180.68 47.31 182.94 47.31 184.46 47.09 186.71 46.8 188.98 46.51 190.51 46.34 192.73 45.78 195.03 45.19 197.98 45.8 198.75 43.73 202.49 33.73 202.34 14.51 204.77 13.58 206.85 12.78 207.12 31.19 210.79 39.13 211.64 40.96 216.82 39.64 216.82 39.64"/></g></svg>
