<?xml version="1.0" encoding="UTF-8" standalone="no"?><svg version="1.1" width="218" height="66" xmlns="http://www.w3.org/2000/svg" xmlns:xlink="http://www.w3.org/1999/xlink"><defs><clipPath id="e2n"><rect x="0" y="0" width="218" height="66"/></clipPath><linearGradient id="e2m" x1="0" x2="0" y1="0" y2="100%"><stop offset="0%" stop-color="red"/><stop offset="100%" stop-color="yellow"/></linearGradient><symbol><g id="e2o"><circle fill="blue" r="3" cursor="crosshair"/></g></symbol></defs><rect width="100%" height="100%" fill="#eee" stroke-width="0px"/><g clip-path="url(#e2n)"><path fill="url(#e2m)" d="M10.08 56L10.08 16.75 21.26 17.36 32.44 17.05 43.62 17.05 54.8 17.05 65.98 17.05 77.16 16.75 88.34 16.75 99.52 16.13 110.7 15.52 121.88 15.83 133.05 15.52 144.23 14.29 155.41 13.68 166.59 13.68 177.77 12.45 188.95 13.07 200.13 13.07 211.31 13.37L211.31 56z" stroke="none"/><path fill="none" stroke="#000" stroke-width="2px" d="M10.08 16.75L21.26 17.36 32.44 17.05 43.62 17.05 54.8 17.05 65.98 17.05 77.16 16.75 88.34 16.75 99.52 16.13 110.7 15.52 121.88 15.83 133.05 15.52 144.23 14.29 155.41 13.68 166.59 13.68 177.77 12.45 188.95 13.07 200.13 13.07 211.31 13.37"/></g><use x="10.08" y="16.75" id="e2q" xlink:href="#e2o"></use><use x="21.26" y="17.36" id="e2r" xlink:href="#e2o"></use><use x="32.44" y="17.05" id="e2s" xlink:href="#e2o"></use><use x="43.62" y="17.05" id="e2t" xlink:href="#e2o"></use><use x="54.8" y="17.05" id="e2u" xlink:href="#e2o"></use><use x="65.98" y="17.05" id="e2v" xlink:href="#e2o"></use><use x="77.16" y="16.75" id="e2w" xlink:href="#e2o"></use><use x="88.34" y="16.75" id="e2x" xlink:href="#e2o"></use><use x="99.52" y="16.13" id="e2y" xlink:href="#e2o"></use><use x="110.7" y="15.52" id="e2z" xlink:href="#e2o"></use><use x="121.88" y="15.83" id="e2A" xlink:href="#e2o"></use><use x="133.05" y="15.52" id="e2B" xlink:href="#e2o"></use><use x="144.23" y="14.29" id="e2C" xlink:href="#e2o"></use><use x="155.41" y="13.68" id="e2D" xlink:href="#e2o"></use><use x="166.59" y="13.68" id="e2E" xlink:href="#e2o"></use><use x="177.77" y="12.45" id="e2F" xlink:href="#e2o"></use><use x="188.95" y="13.07" id="e2G" xlink:href="#e2o"></use><use x="200.13" y="13.07" id="e2H" xlink:href="#e2o"></use><use x="211.31" y="13.37" id="e2I" xlink:href="#e2o"></use></svg>
