<?xml version="1.0" encoding="UTF-8" standalone="no"?><svg version="1.1" width="218" height="66" xmlns="http://www.w3.org/2000/svg" xmlns:xlink="http://www.w3.org/1999/xlink"><defs><clipPath id="e2l"><rect x="0" y="0" width="218" height="66"/></clipPath><linearGradient id="e2k" x1="0" x2="0" y1="0" y2="100%"><stop offset="0%" stop-color="red"/><stop offset="100%" stop-color="yellow"/></linearGradient><symbol><g id="e2m"><circle fill="blue" r="3" cursor="crosshair"/></g></symbol></defs><rect width="100%" height="100%" fill="#eee" stroke-width="0px"/><g clip-path="url(#e2l)"><path fill="url(#e2k)" d="M13.43 56L13.43 16.13 24.61 16.44 35.79 17.05 46.97 16.75 58.15 17.05 69.33 17.36 80.51 17.05 91.69 16.75 102.87 16.75 114.05 16.44 125.23 15.83 136.41 15.83 147.59 15.83 158.77 16.13 169.95 11.53 181.13 13.68 192.31 13.68 203.49 12.15 214.66 13.07L214.66 56z" stroke="none"/><path fill="none" stroke="#000" stroke-width="2px" d="M13.43 16.13L24.61 16.44 35.79 17.05 46.97 16.75 58.15 17.05 69.33 17.36 80.51 17.05 91.69 16.75 102.87 16.75 114.05 16.44 125.23 15.83 136.41 15.83 147.59 15.83 158.77 16.13 169.95 11.53 181.13 13.68 192.31 13.68 203.49 12.15 214.66 13.07"/></g><use x="13.43" y="16.13" id="e2o" xlink:href="#e2m"></use><use x="24.61" y="16.44" id="e2p" xlink:href="#e2m"></use><use x="35.79" y="17.05" id="e2q" xlink:href="#e2m"></use><use x="46.97" y="16.75" id="e2r" xlink:href="#e2m"></use><use x="58.15" y="17.05" id="e2s" xlink:href="#e2m"></use><use x="69.33" y="17.36" id="e2t" xlink:href="#e2m"></use><use x="80.51" y="17.05" id="e2u" xlink:href="#e2m"></use><use x="91.69" y="16.75" id="e2v" xlink:href="#e2m"></use><use x="102.87" y="16.75" id="e2w" xlink:href="#e2m"></use><use x="114.05" y="16.44" id="e2x" xlink:href="#e2m"></use><use x="125.23" y="15.83" id="e2y" xlink:href="#e2m"></use><use x="136.41" y="15.83" id="e2z" xlink:href="#e2m"></use><use x="147.59" y="15.83" id="e2A" xlink:href="#e2m"></use><use x="158.77" y="16.13" id="e2B" xlink:href="#e2m"></use><use x="169.95" y="11.53" id="e2C" xlink:href="#e2m"></use><use x="181.13" y="13.68" id="e2D" xlink:href="#e2m"></use><use x="192.31" y="13.68" id="e2E" xlink:href="#e2m"></use><use x="203.49" y="12.15" id="e2F" xlink:href="#e2m"></use><use x="214.66" y="13.07" id="e2G" xlink:href="#e2m"></use></svg>
