<?xml version="1.0" encoding="utf-8"?><svg xmlns="http://www.w3.org/2000/svg" xmlns:xlink="http://www.w3.org/1999/xlink" version="1.1" width="218" height="66"><defs><clipPath id="eo"><rect x="0" y="0" width="218" height="66" /></clipPath><linearGradient id="en" x1="0" x2="0" y1="0" y2="100%"><stop offset="0%" style="stop-color: red" /><stop offset="100%" style="stop-color: yellow" /></linearGradient></defs><rect width="100%" height="100%" style="fill: #eee; stroke-width: 0px" /><g style="clip-path: url(#eo)"><path d="M0.02 56L0.02 23.53C0.02 23.53 3.81 24.98 6.04 24.88 8.33 24.78 9.75 22.99 12.06 22.99 16.53 22.99 19.58 24.27 24.11 24.88 26.35 25.19 27.88 25.47 30.13 25.42 32.39 25.37 33.9 24.56 36.15 24.61 38.42 24.66 39.9 25.59 42.17 25.69 44.42 25.79 46.73 26.57 48.2 25.15 51.25 22.2 51.29 17.55 54.22 14.06 55.81 12.17 58.42 10.07 60.24 10.81 62.93 11.9 63.98 15.9 66.26 18.93 68.5 21.89 69.88 26.45 72.29 26.78 74.39 27.06 75.65 21.75 78.31 20.55 80.17 19.72 82.34 20.43 84.33 21.36 86.86 22.56 88.07 24.44 90.35 26.24 92.59 27.99 93.87 30.05 96.37 30.84 98.38 31.47 100.23 29.68 102.4 30.02 104.75 30.39 106.06 32.31 108.42 32.73 110.58 33.12 112.18 32.19 114.44 32.19 116.7 32.19 118.21 32.48 120.46 32.73 122.73 32.98 124.23 33.59 126.48 33.54 128.75 33.49 130.25 32.86 132.51 32.46 134.76 32.05 136.28 31.33 138.53 31.38 140.8 31.43 142.27 32.37 144.55 32.73 146.79 33.08 148.31 33.17 150.57 33.27 152.83 33.37 154.42 33.71 156.59 33.27 158.94 32.8 160.29 31.1 162.62 30.84 164.81 30.59 166.37 31.87 168.64 31.92 170.89 31.97 172.4 31.11 174.66 31.11 176.92 31.11 178.42 31.82 180.68 31.92 182.93 32.02 184.49 31.4 186.71 31.65 189 31.91 190.93 34.12 192.73 33.27 195.45 31.99 197.68 23.95 198.75 25.96 202.2 32.48 202.54 56.15 204.77 56 207.06 55.85 207.11 33.43 210.79 25.15 211.63 23.28 216.82 28.94 216.82 28.94L216.82 56z" style="fill: url(#en); stroke: none" /><path d="M0.02 23.53C0.02 23.53 3.81 24.98 6.04 24.88 8.33 24.78 9.75 22.99 12.06 22.99 16.53 22.99 19.58 24.27 24.11 24.88 26.35 25.19 27.88 25.47 30.13 25.42 32.39 25.37 33.9 24.56 36.15 24.61 38.42 24.66 39.9 25.59 42.17 25.69 44.42 25.79 46.73 26.57 48.2 25.15 51.25 22.2 51.29 17.55 54.22 14.06 55.81 12.17 58.42 10.07 60.24 10.81 62.93 11.9 63.98 15.9 66.26 18.93 68.5 21.89 69.88 26.45 72.29 26.78 74.39 27.06 75.65 21.75 78.31 20.55 80.17 19.72 82.34 20.43 84.33 21.36 86.86 22.56 88.07 24.44 90.35 26.24 92.59 27.99 93.87 30.05 96.37 30.84 98.38 31.47 100.23 29.68 102.4 30.02 104.75 30.39 106.06 32.31 108.42 32.73 110.58 33.12 112.18 32.19 114.44 32.19 116.7 32.19 118.21 32.48 120.46 32.73 122.73 32.98 124.23 33.59 126.48 33.54 128.75 33.49 130.25 32.86 132.51 32.46 134.76 32.05 136.28 31.33 138.53 31.38 140.8 31.43 142.27 32.37 144.55 32.73 146.79 33.08 148.31 33.17 150.57 33.27 152.83 33.37 154.42 33.71 156.59 33.27 158.94 32.8 160.29 31.1 162.62 30.84 164.81 30.59 166.37 31.87 168.64 31.92 170.89 31.97 172.4 31.11 174.66 31.11 176.92 31.11 178.42 31.82 180.68 31.92 182.93 32.02 184.49 31.4 186.71 31.65 189 31.91 190.93 34.12 192.73 33.27 195.45 31.99 197.68 23.95 198.75 25.96 202.2 32.48 202.54 56.15 204.77 56 207.06 55.85 207.11 33.43 210.79 25.15 211.63 23.28 216.82 28.94 216.82 28.94" style="fill: none; stroke: #000; stroke-width: 2px" /></g><svg xmlns="http://www.w3.org/2000/svg" xmlns:xml="http://www.w3.org/XML/1998/namespace" xmlns:sodipodi="http://sodipodi.sourceforge.net/DTD/sodipodi-0.dtd" xmlns:inkscape="http://www.inkscape.org/namespaces/inkscape" xmlns:rdf="http://www.w3.org/1999/02/22-rdf-syntax-ns#" xmlns:cc="http://creativecommons.org/ns#" xmlns:dc="http://purl.org/dc/elements/1.1/" xmlns:osb="http://www.openswatchbook.org/uri/2009/osb" height="50px" width="50px" version="1.1" id="Layer_1" viewBox="0 0 512 512" xml:space="preserve" sodipodi:docname="arrow-up.svg" inkscape:version="1.0.1 (3bc2e813f5, 2020-09-07)" style="fill: #000000"><metadata id="metadata17"><rdf:RDF><cc:Work rdf:about=""><dc:format>image/svg+xml</dc:format><dc:type rdf:resource="http://purl.org/dc/dcmitype/StillImage" /><dc:title /></cc:Work></rdf:RDF></metadata><defs id="defs15"><linearGradient id="linearGradient2795" osb:paint="solid"><stop offset="0" id="stop2793" style="stop-color: #000000; stop-opacity: 1" /></linearGradient>
	

		
	
			
			
		</defs><g id="g2934"><ellipse id="path2911" cx="256" cy="256" rx="219.94637" ry="232.67055" style="font-variation-settings: 'wdth' 75, 'wght' 700; fill: #ffffff; fill-opacity: 1; stroke: none; stroke-width: 3.76614; stroke-linejoin: round; stroke-miterlimit: 4; stroke-dasharray: none; stroke-opacity: 1" /><path d="m 437.014,74.983 c -99.955,-99.978 -262.05,-99.978 -362.03,0.002 -99.979,99.956 -99.979,262.052 0,362.031 99.979,99.979 262.075,99.979 362.033,-0.002 99.978,-99.977 99.978,-262.073 -0.003,-362.031 z m -30.168,331.863 c -83.297,83.317 -218.375,83.317 -301.691,0 -83.316,-83.317 -83.317,-218.394 -0.002,-301.69 83.318,-83.318 218.396,-83.318 301.691,-0.003 83.318,83.299 83.318,218.377 0.002,301.693 z" id="path2" style="fill: #000000; fill-opacity: 1; stroke: #000000; stroke-opacity: 1" /><path d="m 358.408,157.90575 c 0.226,0.302 0.46,0.597 0.67,0.911 0.204,0.305 0.381,0.621 0.567,0.933 0.17,0.285 0.349,0.563 0.506,0.856 0.171,0.319 0.315,0.647 0.468,0.972 0.144,0.306 0.297,0.607 0.427,0.92 0.131,0.316 0.236,0.638 0.351,0.958 0.121,0.336 0.25,0.668 0.354,1.012 0.097,0.32 0.168,0.646 0.249,0.969 0.089,0.351 0.187,0.698 0.258,1.055 0.074,0.375 0.118,0.753 0.173,1.13 0.044,0.311 0.104,0.617 0.135,0.932 0.069,0.701 0.106,1.403 0.106,2.107 v 128.002 c 0,11.782 -9.551,21.333 -21.333,21.333 -11.782,0 -21.333,-9.551 -21.333,-21.333 v -76.497 l -134.25,134.248 c -8.331,8.331 -21.839,8.331 -30.17,0 -8.331,-8.331 -8.331,-21.839 0,-30.17 l 134.248,-134.248 h -76.497 c -11.782,0 -21.333,-9.551 -21.333,-21.333 0,-11.782 9.551,-21.333 21.333,-21.333 h 128 c 0.703,0 1.405,0.037 2.105,0.106 0.316,0.031 0.622,0.09 0.933,0.135 0.377,0.054 0.755,0.098 1.13,0.172 0.358,0.071 0.705,0.169 1.056,0.258 0.323,0.081 0.648,0.152 0.968,0.249 0.345,0.104 0.677,0.234 1.014,0.355 0.32,0.115 0.642,0.22 0.957,0.35 0.314,0.13 0.615,0.283 0.921,0.428 0.325,0.153 0.653,0.297 0.971,0.468 0.293,0.157 0.571,0.336 0.855,0.506 0.313,0.187 0.629,0.363 0.934,0.568 0.314,0.21 0.609,0.443 0.91,0.669 0.255,0.191 0.518,0.369 0.766,0.573 0.535,0.439 1.049,0.903 1.539,1.392 0.008,0.007 0.016,0.014 0.023,0.021 0.007,0.007 0.014,0.016 0.021,0.023 0.488,0.49 0.952,1.004 1.392,1.539 0.208,0.247 0.385,0.509 0.576,0.764 z" id="path4" /></g><sodipodi:namedview pagecolor="#ffffff" bordercolor="#666666" borderopacity="1" objecttolerance="10" gridtolerance="10" guidetolerance="10" id="namedview13" showgrid="false" inkscape:pageopacity="0" inkscape:pageshadow="2" inkscape:window-width="1920" inkscape:window-height="1027" inkscape:zoom="1.075" inkscape:cx="400" inkscape:cy="498.38293" inkscape:window-x="1072" inkscape:window-y="-8" inkscape:window-maximized="1" inkscape:current-layer="Layer_1" /></svg></svg>