<?xml version="1.0" encoding="UTF-8" standalone="no"?><svg version="1.1" width="218" height="66" xmlns="http://www.w3.org/2000/svg" xmlns:xlink="http://www.w3.org/1999/xlink"><defs><clipPath id="e1c"><rect x="0" y="0" width="218" height="66"/></clipPath><linearGradient id="e1b" x1="0" x2="0" y1="0" y2="100%"><stop offset="0%" stop-color="red"/><stop offset="100%" stop-color="yellow"/></linearGradient><symbol><g id="e1d"><circle fill="blue" r="3" cursor="crosshair"/></g></symbol></defs><rect width="100%" height="100%" fill="#eee" stroke-width="0px"/><g clip-path="url(#e1c)"><path fill="url(#e1b)" d="M13.43 56L13.43 17.42 24.61 17.82 46.97 18.22 58.15 18.74 69.33 18.68 80.51 18.86 91.69 18.8 102.87 19.09 114.05 19.09 125.23 19.2 136.41 19.32 147.59 19.43 158.77 19.37 169.95 19.49 181.13 19.32 192.31 19.37 203.49 19.14 214.66 19.14L214.66 56z" stroke="none"/><path fill="none" stroke="#000" stroke-width="2px" d="M13.43 17.42L24.61 17.82 46.97 18.22 58.15 18.74 69.33 18.68 80.51 18.86 91.69 18.8 102.87 19.09 114.05 19.09 125.23 19.2 136.41 19.32 147.59 19.43 158.77 19.37 169.95 19.49 181.13 19.32 192.31 19.37 203.49 19.14 214.66 19.14"/></g><use x="13.43" y="17.42" id="e1f" xlink:href="#e1d"></use><use x="24.61" y="17.82" id="e1g" xlink:href="#e1d"></use><use x="46.97" y="18.22" id="e1h" xlink:href="#e1d"></use><use x="58.15" y="18.74" id="e1i" xlink:href="#e1d"></use><use x="69.33" y="18.68" id="e1j" xlink:href="#e1d"></use><use x="80.51" y="18.86" id="e1k" xlink:href="#e1d"></use><use x="91.69" y="18.8" id="e1l" xlink:href="#e1d"></use><use x="102.87" y="19.09" id="e1m" xlink:href="#e1d"></use><use x="114.05" y="19.09" id="e1n" xlink:href="#e1d"></use><use x="125.23" y="19.2" id="e1o" xlink:href="#e1d"></use><use x="136.41" y="19.32" id="e1p" xlink:href="#e1d"></use><use x="147.59" y="19.43" id="e1q" xlink:href="#e1d"></use><use x="158.77" y="19.37" id="e1r" xlink:href="#e1d"></use><use x="169.95" y="19.49" id="e1s" xlink:href="#e1d"></use><use x="181.13" y="19.32" id="e1t" xlink:href="#e1d"></use><use x="192.31" y="19.37" id="e1u" xlink:href="#e1d"></use><use x="203.49" y="19.14" id="e1v" xlink:href="#e1d"></use><use x="214.66" y="19.14" id="e1w" xlink:href="#e1d"></use></svg>
