<?xml version="1.0" encoding="utf-8"?><svg xmlns="http://www.w3.org/2000/svg" xmlns:xlink="http://www.w3.org/1999/xlink" version="1.1" width="218" height="66"><defs><clipPath id="ec"><rect x="0" y="0" width="218" height="66" /></clipPath><linearGradient id="eb" x1="0" x2="0" y1="0" y2="100%"><stop offset="0%" style="stop-color: red" /><stop offset="100%" style="stop-color: yellow" /></linearGradient></defs><rect width="100%" height="100%" style="fill: #eee; stroke-width: 0px" /><g style="clip-path: url(#ec)"><path d="M0.02 56L0.02 34.08C0.02 34.08 3.76 35.13 6.04 35.44 8.27 35.74 9.81 35.71 12.06 35.71 14.32 35.71 15.83 35.49 18.09 35.44 20.34 35.38 21.85 35.44 24.11 35.44 26.37 35.44 27.88 35.54 30.13 35.44 32.39 35.33 33.89 34.94 36.15 34.89 38.41 34.84 39.93 34.96 42.17 35.16 44.44 35.37 45.94 35.98 48.2 35.98 50.46 35.98 51.96 35.16 54.22 35.16 56.48 35.16 57.97 35.87 60.24 35.98 62.49 36.08 64 35.76 66.26 35.71 68.52 35.66 70.04 35.86 72.29 35.71 74.55 35.55 76.05 34.89 78.31 34.89 80.57 34.89 82.06 35.55 84.33 35.71 86.58 35.86 88.1 35.6 90.35 35.71 92.61 35.81 94.12 36.3 96.37 36.25 98.64 36.2 100.13 35.37 102.4 35.44 106.91 35.57 109.93 36.65 114.44 36.79 116.7 36.86 118.2 36.23 120.46 35.98 122.71 35.72 124.23 35.38 126.48 35.44 128.75 35.49 130.24 36.2 132.51 36.25 134.76 36.3 136.27 35.81 138.53 35.71 140.78 35.6 142.29 35.71 144.55 35.71 146.81 35.71 148.32 35.6 150.57 35.71 152.84 35.81 154.33 36.15 156.59 36.25 158.85 36.35 160.38 36.45 162.62 36.25 164.89 36.04 166.37 35.22 168.64 35.16 170.89 35.11 172.39 35.82 174.66 35.98 176.91 36.13 178.57 36.55 180.68 35.98 183.09 35.33 184.37 32.94 186.71 32.73 188.89 32.53 190.4 34.48 192.73 34.89 194.92 35.29 197.83 36.63 198.75 34.89 202.35 28.11 203.2 9.42 204.77 12.16 207.72 17.33 207 44.08 210.79 56 211.52 58.28 216.82 50.05 216.82 50.05L216.82 56z" style="fill: url(#eb); stroke: none" /><path d="M0.02 34.08C0.02 34.08 3.76 35.13 6.04 35.44 8.27 35.74 9.81 35.71 12.06 35.71 14.32 35.71 15.83 35.49 18.09 35.44 20.34 35.38 21.85 35.44 24.11 35.44 26.37 35.44 27.88 35.54 30.13 35.44 32.39 35.33 33.89 34.94 36.15 34.89 38.41 34.84 39.93 34.96 42.17 35.16 44.44 35.37 45.94 35.98 48.2 35.98 50.46 35.98 51.96 35.16 54.22 35.16 56.48 35.16 57.97 35.87 60.24 35.98 62.49 36.08 64 35.76 66.26 35.71 68.52 35.66 70.04 35.86 72.29 35.71 74.55 35.55 76.05 34.89 78.31 34.89 80.57 34.89 82.06 35.55 84.33 35.71 86.58 35.86 88.1 35.6 90.35 35.71 92.61 35.81 94.12 36.3 96.37 36.25 98.64 36.2 100.13 35.37 102.4 35.44 106.91 35.57 109.93 36.65 114.44 36.79 116.7 36.86 118.2 36.23 120.46 35.98 122.71 35.72 124.23 35.38 126.48 35.44 128.75 35.49 130.24 36.2 132.51 36.25 134.76 36.3 136.27 35.81 138.53 35.71 140.78 35.6 142.29 35.71 144.55 35.71 146.81 35.71 148.32 35.6 150.57 35.71 152.84 35.81 154.33 36.15 156.59 36.25 158.85 36.35 160.38 36.45 162.62 36.25 164.89 36.04 166.37 35.22 168.64 35.16 170.89 35.11 172.39 35.82 174.66 35.98 176.91 36.13 178.57 36.55 180.68 35.98 183.09 35.33 184.37 32.94 186.71 32.73 188.89 32.53 190.4 34.48 192.73 34.89 194.92 35.29 197.83 36.63 198.75 34.89 202.35 28.11 203.2 9.42 204.77 12.16 207.72 17.33 207 44.08 210.79 56 211.52 58.28 216.82 50.05 216.82 50.05" style="fill: none; stroke: #000; stroke-width: 2px" /></g><svg xmlns="http://www.w3.org/2000/svg" xmlns:xml="http://www.w3.org/XML/1998/namespace" xmlns:sodipodi="http://sodipodi.sourceforge.net/DTD/sodipodi-0.dtd" xmlns:inkscape="http://www.inkscape.org/namespaces/inkscape" xmlns:rdf="http://www.w3.org/1999/02/22-rdf-syntax-ns#" xmlns:cc="http://creativecommons.org/ns#" xmlns:dc="http://purl.org/dc/elements/1.1/" xmlns:osb="http://www.openswatchbook.org/uri/2009/osb" height="50px" width="50px" version="1.1" id="Layer_1" viewBox="0 0 512 512" xml:space="preserve" sodipodi:docname="arrow-down.svg" inkscape:version="1.0.1 (3bc2e813f5, 2020-09-07)" style="fill: #000000"><metadata id="metadata17"><rdf:RDF><cc:Work rdf:about=""><dc:format>image/svg+xml</dc:format><dc:type rdf:resource="http://purl.org/dc/dcmitype/StillImage" /><dc:title /></cc:Work></rdf:RDF></metadata><defs id="defs15"><linearGradient id="linearGradient2795" osb:paint="solid"><stop offset="0" id="stop2793" style="stop-color: #000000; stop-opacity: 1" /></linearGradient>
	

		
	
			
			
		</defs><g id="g2926"><ellipse id="path2911" cx="256" cy="256" rx="219.94637" ry="232.67055" style="font-variation-settings: 'wdth' 75, 'wght' 700; fill: #ffffff; fill-opacity: 1; stroke: none; stroke-width: 3.76614; stroke-linejoin: round; stroke-miterlimit: 4; stroke-dasharray: none; stroke-opacity: 1" /><path d="m 437.014,74.983 c -99.955,-99.978 -262.05,-99.978 -362.03,0.002 -99.979,99.956 -99.979,262.052 0,362.031 99.979,99.979 262.075,99.979 362.033,-0.002 99.978,-99.977 99.978,-262.073 -0.003,-362.031 z m -30.168,331.863 c -83.297,83.317 -218.375,83.317 -301.691,0 -83.316,-83.317 -83.317,-218.394 -0.002,-301.69 83.318,-83.318 218.396,-83.318 301.691,-0.003 83.318,83.299 83.318,218.377 0.002,301.693 z" id="path2" style="fill-opacity: 1; fill: #000000; stroke: #000000; stroke-opacity: 1" /><path d="m 358.408,354.086 c 0.226,-0.302 0.46,-0.597 0.67,-0.911 0.204,-0.305 0.381,-0.621 0.567,-0.933 0.17,-0.285 0.349,-0.563 0.506,-0.856 0.171,-0.319 0.315,-0.647 0.468,-0.972 0.144,-0.306 0.297,-0.607 0.427,-0.92 0.131,-0.316 0.236,-0.638 0.351,-0.958 0.121,-0.336 0.25,-0.668 0.354,-1.012 0.097,-0.32 0.168,-0.646 0.249,-0.969 0.089,-0.351 0.187,-0.698 0.258,-1.055 0.074,-0.375 0.118,-0.753 0.173,-1.13 0.044,-0.311 0.104,-0.617 0.135,-0.932 0.069,-0.701 0.106,-1.403 0.106,-2.107 V 213.329 c 0,-11.782 -9.551,-21.333 -21.333,-21.333 -11.782,0 -21.333,9.551 -21.333,21.333 v 76.497 L 185.756,155.578 c -8.331,-8.331 -21.839,-8.331 -30.17,0 -8.331,8.331 -8.331,21.839 0,30.17 l 134.248,134.248 h -76.497 c -11.782,0 -21.333,9.551 -21.333,21.333 0,11.782 9.551,21.333 21.333,21.333 h 128 c 0.703,0 1.405,-0.037 2.105,-0.106 0.316,-0.031 0.622,-0.09 0.933,-0.135 0.377,-0.054 0.755,-0.098 1.13,-0.172 0.358,-0.071 0.705,-0.169 1.056,-0.258 0.323,-0.081 0.648,-0.152 0.968,-0.249 0.345,-0.104 0.677,-0.234 1.014,-0.355 0.32,-0.115 0.642,-0.22 0.957,-0.35 0.314,-0.13 0.615,-0.283 0.921,-0.428 0.325,-0.153 0.653,-0.297 0.971,-0.468 0.293,-0.157 0.571,-0.336 0.855,-0.506 0.313,-0.187 0.629,-0.363 0.934,-0.568 0.314,-0.21 0.609,-0.443 0.91,-0.669 0.255,-0.191 0.518,-0.369 0.766,-0.573 0.535,-0.439 1.049,-0.903 1.539,-1.392 0.008,-0.007 0.016,-0.014 0.023,-0.021 0.007,-0.007 0.014,-0.016 0.021,-0.023 0.488,-0.49 0.952,-1.004 1.392,-1.539 0.208,-0.247 0.385,-0.509 0.576,-0.764 z" id="path4" /></g><sodipodi:namedview pagecolor="#ffffff" bordercolor="#666666" borderopacity="1" objecttolerance="10" gridtolerance="10" guidetolerance="10" id="namedview13" showgrid="false" inkscape:pageopacity="0" inkscape:pageshadow="2" inkscape:window-width="1920" inkscape:window-height="1027" inkscape:zoom="1.075" inkscape:cx="400" inkscape:cy="498.38293" inkscape:window-x="1072" inkscape:window-y="-8" inkscape:window-maximized="1" inkscape:current-layer="Layer_1" /></svg></svg>