<?xml version="1.0" encoding="UTF-8" standalone="no"?><svg version="1.1" width="218" height="66" xmlns="http://www.w3.org/2000/svg" xmlns:xlink="http://www.w3.org/1999/xlink"><defs><clipPath id="eo"><rect x="0" y="0" width="218" height="66"/></clipPath><linearGradient id="en" x1="0" x2="0" y1="0" y2="100%"><stop offset="0%" stop-color="red"/><stop offset="100%" stop-color="yellow"/></linearGradient></defs><rect width="100%" height="100%" fill="#eee" stroke-width="0px"/><g clip-path="url(#eo)"><path fill="url(#en)" d="M0.02 56L0.02 28.05C0.02 28.05 3.76 25.49 6.21 24.86 8.4 24.3 10.17 24.41 12.41 24.86 14.82 25.34 16.2 26.72 18.6 27.34 20.84 27.92 22.53 28.31 24.79 28.05 27.17 27.77 28.65 25.99 30.99 25.92 33.29 25.86 34.81 27.35 37.18 27.69 39.46 28.02 41.62 28.84 43.37 27.69 46.27 25.79 47.28 22.63 49.57 19.55 51.92 16.39 53.44 11.06 55.76 11.06 58.08 11.06 59.24 16.77 61.95 19.55 63.89 21.54 65.76 23.66 68.15 23.8 70.41 23.93 71.94 20.47 74.34 20.26 76.58 20.07 78.19 22.67 80.53 22.74 82.83 22.8 84.53 20.3 86.73 20.62 89.18 20.97 91.1 22.54 92.92 24.51 95.75 27.58 96.11 31.57 99.11 34.06 100.75 35.42 102.99 34.44 105.3 34.77 107.64 35.1 109.2 35.31 111.5 35.83 113.85 36.37 115.33 37.13 117.69 37.6 119.98 38.06 121.57 37.98 123.88 38.31 126.22 38.64 127.9 39.8 130.08 39.37 132.55 38.88 133.92 35.9 136.27 35.83 138.57 35.77 140.01 38.38 142.46 39.02 144.65 39.58 146.34 39.15 148.66 39.02 150.99 38.88 152.66 39 154.85 38.31 157.3 37.54 158.59 35.68 161.04 35.12 163.23 34.62 164.91 35.41 167.24 35.48 169.56 35.54 171.11 35.61 173.43 35.48 175.76 35.34 177.3 34.77 179.62 34.77 181.95 34.77 183.6 34.84 185.82 35.48 188.24 36.17 190.61 39.63 192.01 38.31 195.25 35.25 196.69 21.65 198.2 23.8 201.34 28.28 201.93 55.23 204.4 56 206.57 56.68 207.03 33.99 210.59 27.69 211.68 25.76 216.78 34.06 216.78 34.06L216.78 56z" stroke="none"/><path fill="none" stroke="#000" stroke-width="2px" d="M0.02 28.05C0.02 28.05 3.76 25.49 6.21 24.86 8.4 24.3 10.17 24.41 12.41 24.86 14.82 25.34 16.2 26.72 18.6 27.34 20.84 27.92 22.53 28.31 24.79 28.05 27.17 27.77 28.65 25.99 30.99 25.92 33.29 25.86 34.81 27.35 37.18 27.69 39.46 28.02 41.62 28.84 43.37 27.69 46.27 25.79 47.28 22.63 49.57 19.55 51.92 16.39 53.44 11.06 55.76 11.06 58.08 11.06 59.24 16.77 61.95 19.55 63.89 21.54 65.76 23.66 68.15 23.8 70.41 23.93 71.94 20.47 74.34 20.26 76.58 20.07 78.19 22.67 80.53 22.74 82.83 22.8 84.53 20.3 86.73 20.62 89.18 20.97 91.1 22.54 92.92 24.51 95.75 27.58 96.11 31.57 99.11 34.06 100.75 35.42 102.99 34.44 105.3 34.77 107.64 35.1 109.2 35.31 111.5 35.83 113.85 36.37 115.33 37.13 117.69 37.6 119.98 38.06 121.57 37.98 123.88 38.31 126.22 38.64 127.9 39.8 130.08 39.37 132.55 38.88 133.92 35.9 136.27 35.83 138.57 35.77 140.01 38.38 142.46 39.02 144.65 39.58 146.34 39.15 148.66 39.02 150.99 38.88 152.66 39 154.85 38.31 157.3 37.54 158.59 35.68 161.04 35.12 163.23 34.62 164.91 35.41 167.24 35.48 169.56 35.54 171.11 35.61 173.43 35.48 175.76 35.34 177.3 34.77 179.62 34.77 181.95 34.77 183.6 34.84 185.82 35.48 188.24 36.17 190.61 39.63 192.01 38.31 195.25 35.25 196.69 21.65 198.2 23.8 201.34 28.28 201.93 55.23 204.4 56 206.57 56.68 207.03 33.99 210.59 27.69 211.68 25.76 216.78 34.06 216.78 34.06"/></g></svg>
