<?xml version="1.0" encoding="UTF-8" standalone="no"?><svg version="1.1" width="218" height="66" xmlns="http://www.w3.org/2000/svg" xmlns:xlink="http://www.w3.org/1999/xlink"><defs><clipPath id="er"><rect x="0" y="0" width="218" height="66"/></clipPath><linearGradient id="eq" x1="0" x2="0" y1="0" y2="100%"><stop offset="0%" stop-color="red"/><stop offset="100%" stop-color="yellow"/></linearGradient></defs><rect width="100%" height="100%" fill="#eee" stroke-width="0px"/><g clip-path="url(#er)"><path fill="url(#eq)" d="M0.02 56L0.02 10C0.02 10 3.69 12.17 6.04 13.07 8.21 13.89 9.78 14.16 12.06 14.6 14.3 15.03 16.01 14.57 18.09 15.37 20.53 16.3 21.66 18.42 24.11 19.2 26.18 19.86 27.87 19.2 30.13 19.2 32.39 19.2 33.9 19.06 36.15 19.2 38.42 19.34 40.1 19.17 42.17 19.97 44.62 20.9 45.76 22.87 48.2 23.8 50.27 24.59 51.99 24.14 54.22 24.57 56.5 25 57.98 25.52 60.24 26.1 62.5 26.68 63.97 27.34 66.26 27.63 68.49 27.92 70.06 27.35 72.29 27.63 74.58 27.93 76.05 28.59 78.31 29.17 80.57 29.74 82.04 30.55 84.33 30.7 86.56 30.84 88.12 29.79 90.35 29.93 92.64 30.08 94.09 31.03 96.37 31.47 98.61 31.89 100.14 31.95 102.4 32.23 104.65 32.52 106.15 32.86 108.42 33 110.67 33.14 112.22 32.72 114.44 33 116.73 33.29 118.2 33.96 120.46 34.53 122.72 35.11 124.2 35.63 126.48 36.07 128.72 36.49 130.27 36.98 132.51 36.83 134.79 36.69 136.31 35.16 138.53 35.3 140.83 35.45 142.22 37.15 144.55 37.6 146.73 38.02 148.39 37.18 150.57 37.6 152.91 38.05 154.34 39.9 156.59 39.9 158.85 39.9 160.61 37.09 162.62 37.6 165.13 38.24 166.06 41.98 168.64 42.97 170.58 43.71 172.4 42.49 174.66 42.2 176.92 41.91 178.61 40.9 180.68 41.43 183.12 42.05 184.51 43.73 186.71 45.27 189.03 46.9 190.22 48.75 192.73 49.87 194.74 50.76 196.52 50.21 198.75 50.63 201.03 51.07 202.51 51.59 204.77 52.17 207.03 52.74 208.58 52.99 210.79 53.7 213.09 54.43 216.82 56 216.82 56L216.82 56z" stroke="none"/><path fill="none" stroke="#000" stroke-width="2px" d="M0.02 10C0.02 10 3.69 12.17 6.04 13.07 8.21 13.89 9.78 14.16 12.06 14.6 14.3 15.03 16.01 14.57 18.09 15.37 20.53 16.3 21.66 18.42 24.11 19.2 26.18 19.86 27.87 19.2 30.13 19.2 32.39 19.2 33.9 19.06 36.15 19.2 38.42 19.34 40.1 19.17 42.17 19.97 44.62 20.9 45.76 22.87 48.2 23.8 50.27 24.59 51.99 24.14 54.22 24.57 56.5 25 57.98 25.52 60.24 26.1 62.5 26.68 63.97 27.34 66.26 27.63 68.49 27.92 70.06 27.35 72.29 27.63 74.58 27.93 76.05 28.59 78.31 29.17 80.57 29.74 82.04 30.55 84.33 30.7 86.56 30.84 88.12 29.79 90.35 29.93 92.64 30.08 94.09 31.03 96.37 31.47 98.61 31.89 100.14 31.95 102.4 32.23 104.65 32.52 106.15 32.86 108.42 33 110.67 33.14 112.22 32.72 114.44 33 116.73 33.29 118.2 33.96 120.46 34.53 122.72 35.11 124.2 35.63 126.48 36.07 128.72 36.49 130.27 36.98 132.51 36.83 134.79 36.69 136.31 35.16 138.53 35.3 140.83 35.45 142.22 37.15 144.55 37.6 146.73 38.02 148.39 37.18 150.57 37.6 152.91 38.05 154.34 39.9 156.59 39.9 158.85 39.9 160.61 37.09 162.62 37.6 165.13 38.24 166.06 41.98 168.64 42.97 170.58 43.71 172.4 42.49 174.66 42.2 176.92 41.91 178.61 40.9 180.68 41.43 183.12 42.05 184.51 43.73 186.71 45.27 189.03 46.9 190.22 48.75 192.73 49.87 194.74 50.76 196.52 50.21 198.75 50.63 201.03 51.07 202.51 51.59 204.77 52.17 207.03 52.74 208.58 52.99 210.79 53.7 213.09 54.43 216.82 56 216.82 56"/></g></svg>
