<?xml version="1.0" encoding="UTF-8" standalone="no"?><svg version="1.1" width="218" height="66" xmlns="http://www.w3.org/2000/svg" xmlns:xlink="http://www.w3.org/1999/xlink"><defs><clipPath id="ef"><rect x="0" y="0" width="218" height="66"/></clipPath><linearGradient id="ee" x1="0" x2="0" y1="0" y2="100%"><stop offset="0%" stop-color="red"/><stop offset="100%" stop-color="yellow"/></linearGradient></defs><rect width="100%" height="100%" fill="#eee" stroke-width="0px"/><g clip-path="url(#ef)"><path fill="url(#ee)" d="M0.02 56L0.02 10C0.02 10 3.71 11.77 6.04 12.19 8.23 12.59 9.81 12.19 12.06 12.19 14.32 12.19 15.83 12.19 18.09 12.19 20.34 12.19 21.85 12.19 24.11 12.19 26.37 12.19 27.87 12.19 30.13 12.19 32.39 12.19 33.89 12.19 36.15 12.19 38.41 12.19 39.99 12.59 42.17 12.19 44.5 11.77 45.87 10.42 48.2 10 50.39 9.6 52.03 9.6 54.22 10 56.55 10.42 57.91 11.77 60.24 12.19 62.43 12.59 64 12.19 66.26 12.19 68.52 12.19 70.03 12.19 72.29 12.19 74.54 12.19 76.12 11.79 78.31 12.19 80.64 12.61 82 13.96 84.33 14.38 86.52 14.78 88.09 14.38 90.35 14.38 92.61 14.38 94.19 13.98 96.37 14.38 98.7 14.8 100.14 16.57 102.4 16.57 104.65 16.57 106.09 14.8 108.42 14.38 110.61 13.98 112.25 14.78 114.44 14.38 116.77 13.96 118.13 12.61 120.46 12.19 122.65 11.79 124.23 12.19 126.48 12.19 128.74 12.19 130.32 12.59 132.51 12.19 134.83 11.77 136.2 10.42 138.53 10 140.72 9.6 142.29 10 144.55 10 146.81 10 148.31 10 150.57 10 152.83 10 154.34 10 156.59 10 158.85 10 160.36 10 162.62 10 164.88 10 166.38 10 168.64 10 170.9 10 172.4 10 174.66 10 176.92 10 178.42 10 180.68 10 182.94 10 184.45 10 186.71 10 188.96 10 190.54 9.6 192.73 10 195.06 10.42 198.18 10.01 198.75 12.19 202.69 27.26 201.13 45.4 204.77 56 205.65 58.55 209.26 50.87 210.79 47.24 213.77 40.19 216.82 27.52 216.82 27.52L216.82 56z" stroke="none"/><path fill="none" stroke="#000" stroke-width="2px" d="M0.02 10C0.02 10 3.71 11.77 6.04 12.19 8.23 12.59 9.81 12.19 12.06 12.19 14.32 12.19 15.83 12.19 18.09 12.19 20.34 12.19 21.85 12.19 24.11 12.19 26.37 12.19 27.87 12.19 30.13 12.19 32.39 12.19 33.89 12.19 36.15 12.19 38.41 12.19 39.99 12.59 42.17 12.19 44.5 11.77 45.87 10.42 48.2 10 50.39 9.6 52.03 9.6 54.22 10 56.55 10.42 57.91 11.77 60.24 12.19 62.43 12.59 64 12.19 66.26 12.19 68.52 12.19 70.03 12.19 72.29 12.19 74.54 12.19 76.12 11.79 78.31 12.19 80.64 12.61 82 13.96 84.33 14.38 86.52 14.78 88.09 14.38 90.35 14.38 92.61 14.38 94.19 13.98 96.37 14.38 98.7 14.8 100.14 16.57 102.4 16.57 104.65 16.57 106.09 14.8 108.42 14.38 110.61 13.98 112.25 14.78 114.44 14.38 116.77 13.96 118.13 12.61 120.46 12.19 122.65 11.79 124.23 12.19 126.48 12.19 128.74 12.19 130.32 12.59 132.51 12.19 134.83 11.77 136.2 10.42 138.53 10 140.72 9.6 142.29 10 144.55 10 146.81 10 148.31 10 150.57 10 152.83 10 154.34 10 156.59 10 158.85 10 160.36 10 162.62 10 164.88 10 166.38 10 168.64 10 170.9 10 172.4 10 174.66 10 176.92 10 178.42 10 180.68 10 182.94 10 184.45 10 186.71 10 188.96 10 190.54 9.6 192.73 10 195.06 10.42 198.18 10.01 198.75 12.19 202.69 27.26 201.13 45.4 204.77 56 205.65 58.55 209.26 50.87 210.79 47.24 213.77 40.19 216.82 27.52 216.82 27.52"/></g></svg>
