<?xml version="1.0" encoding="UTF-8" standalone="no"?><svg version="1.1" width="218" height="66" xmlns="http://www.w3.org/2000/svg" xmlns:xlink="http://www.w3.org/1999/xlink"><defs><clipPath id="e6"><rect x="0" y="0" width="218" height="66"/></clipPath><linearGradient id="e5" x1="0" x2="0" y1="0" y2="100%"><stop offset="0%" stop-color="red"/><stop offset="100%" stop-color="yellow"/></linearGradient></defs><rect width="100%" height="100%" fill="#eee" stroke-width="0px"/><g clip-path="url(#e6)"><path fill="url(#e5)" d="M0.02 56L0.02 20.35C0.02 20.35 3.78 19.88 6.04 19.78 8.3 19.67 9.81 19.78 12.06 19.78 14.32 19.78 15.83 19.67 18.09 19.78 20.35 19.88 21.85 20.35 24.11 20.35 26.37 20.35 27.87 19.99 30.13 19.78 32.39 19.56 33.91 19.09 36.15 19.2 38.43 19.31 39.94 19.82 42.17 20.35 44.46 20.89 45.9 21.86 48.2 22.08 50.42 22.29 52.03 22.02 54.22 21.5 56.55 20.94 57.98 19.2 60.24 19.2 62.5 19.2 63.97 21.39 66.26 21.5 68.49 21.61 69.99 19.99 72.29 19.78 74.5 19.56 76.04 20.24 78.31 20.35 80.56 20.46 82.09 20.14 84.33 20.35 86.61 20.57 88.07 21.28 90.35 21.5 92.59 21.71 94.14 21.71 96.37 21.5 98.65 21.28 100.14 20.78 102.4 20.35 104.65 19.92 106.3 20.01 108.42 19.2 110.82 18.28 112.14 16.96 114.44 15.75 116.65 14.59 118.11 13.21 120.46 12.88 122.62 12.57 124.21 13.92 126.48 14.03 128.73 14.13 130.32 13.97 132.51 13.45 134.84 12.89 136.4 10.85 138.53 11.15 140.92 11.49 142.2 14.95 144.55 15.18 146.72 15.38 148.2 12.98 150.57 12.3 152.72 11.68 155.87 9.89 156.59 11.72 160.39 21.32 159.19 31.65 162.62 42.78 163.71 46.31 165.82 49.07 168.64 50.83 170.34 51.88 172.76 49.43 174.66 50.25 177.28 51.37 179.24 57.31 180.68 56 183.76 53.21 183.39 44.54 186.71 39.33 187.91 37.43 190.44 37.79 192.73 37.03 194.95 36.28 196.47 35.41 198.75 35.3 200.98 35.19 202.57 35.82 204.77 36.45 207.09 37.11 208.46 38.42 210.79 38.75 212.98 39.06 216.82 38.18 216.82 38.18L216.82 56z" stroke="none"/><path fill="none" stroke="#000" stroke-width="2px" d="M0.02 20.35C0.02 20.35 3.78 19.88 6.04 19.78 8.3 19.67 9.81 19.78 12.06 19.78 14.32 19.78 15.83 19.67 18.09 19.78 20.35 19.88 21.85 20.35 24.11 20.35 26.37 20.35 27.87 19.99 30.13 19.78 32.39 19.56 33.91 19.09 36.15 19.2 38.43 19.31 39.94 19.82 42.17 20.35 44.46 20.89 45.9 21.86 48.2 22.08 50.42 22.29 52.03 22.02 54.22 21.5 56.55 20.94 57.98 19.2 60.24 19.2 62.5 19.2 63.97 21.39 66.26 21.5 68.49 21.61 69.99 19.99 72.29 19.78 74.5 19.56 76.04 20.24 78.31 20.35 80.56 20.46 82.09 20.14 84.33 20.35 86.61 20.57 88.07 21.28 90.35 21.5 92.59 21.71 94.14 21.71 96.37 21.5 98.65 21.28 100.14 20.78 102.4 20.35 104.65 19.92 106.3 20.01 108.42 19.2 110.82 18.28 112.14 16.96 114.44 15.75 116.65 14.59 118.11 13.21 120.46 12.88 122.62 12.57 124.21 13.92 126.48 14.03 128.73 14.13 130.32 13.97 132.51 13.45 134.84 12.89 136.4 10.85 138.53 11.15 140.92 11.49 142.2 14.95 144.55 15.18 146.72 15.38 148.2 12.98 150.57 12.3 152.72 11.68 155.87 9.89 156.59 11.72 160.39 21.32 159.19 31.65 162.62 42.78 163.71 46.31 165.82 49.07 168.64 50.83 170.34 51.88 172.76 49.43 174.66 50.25 177.28 51.37 179.24 57.31 180.68 56 183.76 53.21 183.39 44.54 186.71 39.33 187.91 37.43 190.44 37.79 192.73 37.03 194.95 36.28 196.47 35.41 198.75 35.3 200.98 35.19 202.57 35.82 204.77 36.45 207.09 37.11 208.46 38.42 210.79 38.75 212.98 39.06 216.82 38.18 216.82 38.18"/></g></svg>
