<?xml version="1.0" encoding="UTF-8" standalone="no"?><svg version="1.1" width="218" height="66" xmlns="http://www.w3.org/2000/svg" xmlns:xlink="http://www.w3.org/1999/xlink"><defs><clipPath id="e39"><rect x="0" y="0" width="218" height="66"/></clipPath><linearGradient id="e38" x1="0" x2="0" y1="0" y2="100%"><stop offset="0%" stop-color="red"/><stop offset="100%" stop-color="yellow"/></linearGradient><symbol><g id="e3a"><circle fill="blue" r="3" cursor="crosshair"/></g></symbol></defs><rect width="100%" height="100%" fill="#eee" stroke-width="0px"/><g clip-path="url(#e39)"><path fill="url(#e38)" d="M10.08 56L10.08 13.07 21.26 13.02 32.44 12.93 43.62 12.95 54.8 12.93 65.98 12.88 77.16 12.9 99.52 12.85 110.7 12.85 121.88 12.81 133.05 12.76 144.23 12.79 155.41 12.96 166.59 12.95 177.77 12.96 188.95 12.76 200.13 11.98 211.31 12.54L211.31 56z" stroke="none"/><path fill="none" stroke="#000" stroke-width="2px" d="M10.08 13.07L21.26 13.02 32.44 12.93 43.62 12.95 54.8 12.93 65.98 12.88 77.16 12.9 99.52 12.85 110.7 12.85 121.88 12.81 133.05 12.76 144.23 12.79 155.41 12.96 166.59 12.95 177.77 12.96 188.95 12.76 200.13 11.98 211.31 12.54"/></g><use x="10.08" y="13.07" id="e3c" xlink:href="#e3a"></use><use x="21.26" y="13.02" id="e3d" xlink:href="#e3a"></use><use x="32.44" y="12.93" id="e3e" xlink:href="#e3a"></use><use x="43.62" y="12.95" id="e3f" xlink:href="#e3a"></use><use x="54.8" y="12.93" id="e3g" xlink:href="#e3a"></use><use x="65.98" y="12.88" id="e3h" xlink:href="#e3a"></use><use x="77.16" y="12.9" id="e3i" xlink:href="#e3a"></use><use x="99.52" y="12.85" id="e3j" xlink:href="#e3a"></use><use x="110.7" y="12.85" id="e3k" xlink:href="#e3a"></use><use x="121.88" y="12.81" id="e3l" xlink:href="#e3a"></use><use x="133.05" y="12.76" id="e3m" xlink:href="#e3a"></use><use x="144.23" y="12.79" id="e3n" xlink:href="#e3a"></use><use x="155.41" y="12.96" id="e3o" xlink:href="#e3a"></use><use x="166.59" y="12.95" id="e3p" xlink:href="#e3a"></use><use x="177.77" y="12.96" id="e3q" xlink:href="#e3a"></use><use x="188.95" y="12.76" id="e3r" xlink:href="#e3a"></use><use x="200.13" y="11.98" id="e3s" xlink:href="#e3a"></use><use x="211.31" y="12.54" id="e3t" xlink:href="#e3a"></use></svg>
