<?xml version="1.0" encoding="UTF-8" standalone="no"?><svg version="1.1" width="218" height="66" xmlns="http://www.w3.org/2000/svg" xmlns:xlink="http://www.w3.org/1999/xlink"><defs><clipPath id="e3"><rect x="0" y="0" width="218" height="66"/></clipPath><linearGradient id="e2" x1="0" x2="0" y1="0" y2="100%"><stop offset="0%" stop-color="red"/><stop offset="100%" stop-color="yellow"/></linearGradient><symbol><g id="e4"><circle fill="blue" r="3" cursor="crosshair"/></g></symbol></defs><rect width="100%" height="100%" fill="#eee" stroke-width="0px"/><g clip-path="url(#e3)"><path fill="url(#e2)" d="M10.08 56L10.08 11.34 21.26 11.53 32.44 11.34 43.62 11.34 54.8 11.34 65.98 11.34 77.16 11.34 88.34 11.34 99.52 11.53 110.7 11.34 121.88 11.53 133.05 11.34 144.23 11.34 155.41 11.92 166.59 12.11 177.77 12.3 188.95 11.53 200.13 12.11 211.31 12.11L211.31 56z" stroke="none"/><path fill="none" stroke="#000" stroke-width="2px" d="M10.08 11.34L21.26 11.53 32.44 11.34 43.62 11.34 54.8 11.34 65.98 11.34 77.16 11.34 88.34 11.34 99.52 11.53 110.7 11.34 121.88 11.53 133.05 11.34 144.23 11.34 155.41 11.92 166.59 12.11 177.77 12.3 188.95 11.53 200.13 12.11 211.31 12.11"/></g><use x="10.08" y="11.34" id="e6" xlink:href="#e4"></use><use x="21.26" y="11.53" id="e7" xlink:href="#e4"></use><use x="32.44" y="11.34" id="e8" xlink:href="#e4"></use><use x="43.62" y="11.34" id="e9" xlink:href="#e4"></use><use x="54.8" y="11.34" id="ea" xlink:href="#e4"></use><use x="65.98" y="11.34" id="eb" xlink:href="#e4"></use><use x="77.16" y="11.34" id="ec" xlink:href="#e4"></use><use x="88.34" y="11.34" id="ed" xlink:href="#e4"></use><use x="99.52" y="11.53" id="ee" xlink:href="#e4"></use><use x="110.7" y="11.34" id="ef" xlink:href="#e4"></use><use x="121.88" y="11.53" id="eg" xlink:href="#e4"></use><use x="133.05" y="11.34" id="eh" xlink:href="#e4"></use><use x="144.23" y="11.34" id="ei" xlink:href="#e4"></use><use x="155.41" y="11.92" id="ej" xlink:href="#e4"></use><use x="166.59" y="12.11" id="ek" xlink:href="#e4"></use><use x="177.77" y="12.3" id="el" xlink:href="#e4"></use><use x="188.95" y="11.53" id="em" xlink:href="#e4"></use><use x="200.13" y="12.11" id="en" xlink:href="#e4"></use><use x="211.31" y="12.11" id="eo" xlink:href="#e4"></use></svg>
