<?xml version="1.0" encoding="utf-8"?><svg xmlns="http://www.w3.org/2000/svg" xmlns:xlink="http://www.w3.org/1999/xlink" version="1.1" width="218" height="66"><defs><clipPath id="eu"><rect x="0" y="0" width="218" height="66" /></clipPath><linearGradient id="et" x1="0" x2="0" y1="0" y2="100%"><stop offset="0%" style="stop-color: red" /><stop offset="100%" style="stop-color: yellow" /></linearGradient></defs><rect width="100%" height="100%" style="fill: #eee; stroke-width: 0px" /><g style="clip-path: url(#eu)"><path d="M0.02 56L0.02 56C0.02 56 3.79 55.31 6.04 54.85 8.31 54.39 9.86 53.35 12.06 53.55 14.38 53.75 15.91 56.12 18.09 55.92 20.42 55.72 21.69 53.17 24.11 52.47 26.21 51.87 28.13 53.24 30.13 52.47 32.65 51.51 33.69 49.21 36.15 47.87 38.21 46.76 39.95 46.76 42.17 45.96 44.47 45.13 46.01 44.57 48.2 43.5 50.53 42.36 51.81 40.93 54.22 40.05 56.33 39.29 58.01 39.59 60.24 39.13 62.52 38.67 63.97 37.89 66.26 37.6 68.49 37.32 70.13 38.09 72.29 37.6 74.65 37.06 76.03 35.84 78.31 34.84 80.55 33.86 82.01 33.08 84.33 32.31 86.53 31.58 88.16 31.59 90.35 30.85 92.67 30.07 94.03 28.89 96.37 28.25 98.54 27.65 100.14 27.84 102.4 27.56 104.66 27.27 106.2 27.19 108.42 26.71 110.71 26.22 112.19 25.64 114.44 24.95 116.71 24.26 118.18 23.66 120.46 23.03 122.69 22.42 124.2 22 126.48 21.65 128.72 21.31 130.27 21.53 132.51 21.19 134.79 20.84 136.25 20.18 138.53 19.81 140.76 19.46 142.3 19.56 144.55 19.28 146.82 18.99 148.33 18.74 150.57 18.28 152.85 17.82 154.31 17.23 156.59 16.82 158.83 16.43 160.36 16.38 162.62 16.13 164.87 15.89 166.38 15.78 168.64 15.52 170.9 15.26 172.4 14.78 174.66 14.75 176.92 14.72 179.56 13.7 180.68 15.37 184.08 20.42 183.48 26.93 186.71 32.69 188 35 190.25 36.19 192.73 36.91 194.77 37.51 196.78 37.15 198.75 36.22 201.29 35.02 202.53 33.13 204.77 31.24 207.05 29.31 208.57 28.02 210.79 26.02 213.09 23.96 216.82 20.43 216.82 20.43L216.82 56z" style="fill: url(#et); stroke: none" /><path d="M0.02 56C0.02 56 3.79 55.31 6.04 54.85 8.31 54.39 9.86 53.35 12.06 53.55 14.38 53.75 15.91 56.12 18.09 55.92 20.42 55.72 21.69 53.17 24.11 52.47 26.21 51.87 28.13 53.24 30.13 52.47 32.65 51.51 33.69 49.21 36.15 47.87 38.21 46.76 39.95 46.76 42.17 45.96 44.47 45.13 46.01 44.57 48.2 43.5 50.53 42.36 51.81 40.93 54.22 40.05 56.33 39.29 58.01 39.59 60.24 39.13 62.52 38.67 63.97 37.89 66.26 37.6 68.49 37.32 70.13 38.09 72.29 37.6 74.65 37.06 76.03 35.84 78.31 34.84 80.55 33.86 82.01 33.08 84.33 32.31 86.53 31.58 88.16 31.59 90.35 30.85 92.67 30.07 94.03 28.89 96.37 28.25 98.54 27.65 100.14 27.84 102.4 27.56 104.66 27.27 106.2 27.19 108.42 26.71 110.71 26.22 112.19 25.64 114.44 24.95 116.71 24.26 118.18 23.66 120.46 23.03 122.69 22.42 124.2 22 126.48 21.65 128.72 21.31 130.27 21.53 132.51 21.19 134.79 20.84 136.25 20.18 138.53 19.81 140.76 19.46 142.3 19.56 144.55 19.28 146.82 18.99 148.33 18.74 150.57 18.28 152.85 17.82 154.31 17.23 156.59 16.82 158.83 16.43 160.36 16.38 162.62 16.13 164.87 15.89 166.38 15.78 168.64 15.52 170.9 15.26 172.4 14.78 174.66 14.75 176.92 14.72 179.56 13.7 180.68 15.37 184.08 20.42 183.48 26.93 186.71 32.69 188 35 190.25 36.19 192.73 36.91 194.77 37.51 196.78 37.15 198.75 36.22 201.29 35.02 202.53 33.13 204.77 31.24 207.05 29.31 208.57 28.02 210.79 26.02 213.09 23.96 216.82 20.43 216.82 20.43" style="fill: none; stroke: #000; stroke-width: 2px" /></g><svg xmlns="http://www.w3.org/2000/svg" xmlns:xml="http://www.w3.org/XML/1998/namespace" xmlns:sodipodi="http://sodipodi.sourceforge.net/DTD/sodipodi-0.dtd" xmlns:inkscape="http://www.inkscape.org/namespaces/inkscape" xmlns:rdf="http://www.w3.org/1999/02/22-rdf-syntax-ns#" xmlns:cc="http://creativecommons.org/ns#" xmlns:dc="http://purl.org/dc/elements/1.1/" xmlns:osb="http://www.openswatchbook.org/uri/2009/osb" height="50px" width="50px" version="1.1" id="Layer_1" viewBox="0 0 512 512" xml:space="preserve" sodipodi:docname="arrow-up.svg" inkscape:version="1.0.1 (3bc2e813f5, 2020-09-07)" style="fill: #000000"><metadata id="metadata17"><rdf:RDF><cc:Work rdf:about=""><dc:format>image/svg+xml</dc:format><dc:type rdf:resource="http://purl.org/dc/dcmitype/StillImage" /><dc:title /></cc:Work></rdf:RDF></metadata><defs id="defs15"><linearGradient id="linearGradient2795" osb:paint="solid"><stop offset="0" id="stop2793" style="stop-color: #000000; stop-opacity: 1" /></linearGradient>
	

		
	
			
			
		</defs><g id="g2934"><ellipse id="path2911" cx="256" cy="256" rx="219.94637" ry="232.67055" style="font-variation-settings: 'wdth' 75, 'wght' 700; fill: #ffffff; fill-opacity: 1; stroke: none; stroke-width: 3.76614; stroke-linejoin: round; stroke-miterlimit: 4; stroke-dasharray: none; stroke-opacity: 1" /><path d="m 437.014,74.983 c -99.955,-99.978 -262.05,-99.978 -362.03,0.002 -99.979,99.956 -99.979,262.052 0,362.031 99.979,99.979 262.075,99.979 362.033,-0.002 99.978,-99.977 99.978,-262.073 -0.003,-362.031 z m -30.168,331.863 c -83.297,83.317 -218.375,83.317 -301.691,0 -83.316,-83.317 -83.317,-218.394 -0.002,-301.69 83.318,-83.318 218.396,-83.318 301.691,-0.003 83.318,83.299 83.318,218.377 0.002,301.693 z" id="path2" style="fill: #000000; fill-opacity: 1; stroke: #000000; stroke-opacity: 1" /><path d="m 358.408,157.90575 c 0.226,0.302 0.46,0.597 0.67,0.911 0.204,0.305 0.381,0.621 0.567,0.933 0.17,0.285 0.349,0.563 0.506,0.856 0.171,0.319 0.315,0.647 0.468,0.972 0.144,0.306 0.297,0.607 0.427,0.92 0.131,0.316 0.236,0.638 0.351,0.958 0.121,0.336 0.25,0.668 0.354,1.012 0.097,0.32 0.168,0.646 0.249,0.969 0.089,0.351 0.187,0.698 0.258,1.055 0.074,0.375 0.118,0.753 0.173,1.13 0.044,0.311 0.104,0.617 0.135,0.932 0.069,0.701 0.106,1.403 0.106,2.107 v 128.002 c 0,11.782 -9.551,21.333 -21.333,21.333 -11.782,0 -21.333,-9.551 -21.333,-21.333 v -76.497 l -134.25,134.248 c -8.331,8.331 -21.839,8.331 -30.17,0 -8.331,-8.331 -8.331,-21.839 0,-30.17 l 134.248,-134.248 h -76.497 c -11.782,0 -21.333,-9.551 -21.333,-21.333 0,-11.782 9.551,-21.333 21.333,-21.333 h 128 c 0.703,0 1.405,0.037 2.105,0.106 0.316,0.031 0.622,0.09 0.933,0.135 0.377,0.054 0.755,0.098 1.13,0.172 0.358,0.071 0.705,0.169 1.056,0.258 0.323,0.081 0.648,0.152 0.968,0.249 0.345,0.104 0.677,0.234 1.014,0.355 0.32,0.115 0.642,0.22 0.957,0.35 0.314,0.13 0.615,0.283 0.921,0.428 0.325,0.153 0.653,0.297 0.971,0.468 0.293,0.157 0.571,0.336 0.855,0.506 0.313,0.187 0.629,0.363 0.934,0.568 0.314,0.21 0.609,0.443 0.91,0.669 0.255,0.191 0.518,0.369 0.766,0.573 0.535,0.439 1.049,0.903 1.539,1.392 0.008,0.007 0.016,0.014 0.023,0.021 0.007,0.007 0.014,0.016 0.021,0.023 0.488,0.49 0.952,1.004 1.392,1.539 0.208,0.247 0.385,0.509 0.576,0.764 z" id="path4" /></g><sodipodi:namedview pagecolor="#ffffff" bordercolor="#666666" borderopacity="1" objecttolerance="10" gridtolerance="10" guidetolerance="10" id="namedview13" showgrid="false" inkscape:pageopacity="0" inkscape:pageshadow="2" inkscape:window-width="1920" inkscape:window-height="1027" inkscape:zoom="1.075" inkscape:cx="400" inkscape:cy="498.38293" inkscape:window-x="1072" inkscape:window-y="-8" inkscape:window-maximized="1" inkscape:current-layer="Layer_1" /></svg></svg>