<?xml version="1.0" encoding="UTF-8" standalone="no"?><svg version="1.1" width="218" height="66" xmlns="http://www.w3.org/2000/svg" xmlns:xlink="http://www.w3.org/1999/xlink"><defs><clipPath id="e2L"><rect x="0" y="0" width="218" height="66"/></clipPath><linearGradient id="e2K" x1="0" x2="0" y1="0" y2="100%"><stop offset="0%" stop-color="red"/><stop offset="100%" stop-color="yellow"/></linearGradient><symbol><g id="e2M"><circle fill="blue" r="3" cursor="crosshair"/></g></symbol></defs><rect width="100%" height="100%" fill="#eee" stroke-width="0px"/><g clip-path="url(#e2L)"><path fill="url(#e2K)" d="M10.08 56L10.08 11.73 21.26 11.49 32.44 11.67 43.62 11.55 54.8 11.84 65.98 11.9 77.16 11.9 88.34 12.01 99.52 11.73 110.7 12.42 121.88 12.3 133.05 12.42 144.23 12.01 155.41 12.07 166.59 13.28 177.77 13.16 188.95 13.05 200.13 13.22 211.31 13.51L211.31 56z" stroke="none"/><path fill="none" stroke="#000" stroke-width="2px" d="M10.08 11.73L21.26 11.49 32.44 11.67 43.62 11.55 54.8 11.84 65.98 11.9 77.16 11.9 88.34 12.01 99.52 11.73 110.7 12.42 121.88 12.3 133.05 12.42 144.23 12.01 155.41 12.07 166.59 13.28 177.77 13.16 188.95 13.05 200.13 13.22 211.31 13.51"/></g><use x="10.08" y="11.73" id="e2O" xlink:href="#e2M"></use><use x="21.26" y="11.49" id="e2P" xlink:href="#e2M"></use><use x="32.44" y="11.67" id="e2Q" xlink:href="#e2M"></use><use x="43.62" y="11.55" id="e2R" xlink:href="#e2M"></use><use x="54.8" y="11.84" id="e2S" xlink:href="#e2M"></use><use x="65.98" y="11.9" id="e2T" xlink:href="#e2M"></use><use x="77.16" y="11.9" id="e2U" xlink:href="#e2M"></use><use x="88.34" y="12.01" id="e2V" xlink:href="#e2M"></use><use x="99.52" y="11.73" id="e2W" xlink:href="#e2M"></use><use x="110.7" y="12.42" id="e2X" xlink:href="#e2M"></use><use x="121.88" y="12.3" id="e2Y" xlink:href="#e2M"></use><use x="133.05" y="12.42" id="e2Z" xlink:href="#e2M"></use><use x="144.23" y="12.01" id="e30" xlink:href="#e2M"></use><use x="155.41" y="12.07" id="e31" xlink:href="#e2M"></use><use x="166.59" y="13.28" id="e32" xlink:href="#e2M"></use><use x="177.77" y="13.16" id="e33" xlink:href="#e2M"></use><use x="188.95" y="13.05" id="e34" xlink:href="#e2M"></use><use x="200.13" y="13.22" id="e35" xlink:href="#e2M"></use><use x="211.31" y="13.51" id="e36" xlink:href="#e2M"></use></svg>
