<?xml version="1.0" encoding="UTF-8" standalone="no"?><svg version="1.1" width="218" height="66" xmlns="http://www.w3.org/2000/svg" xmlns:xlink="http://www.w3.org/1999/xlink"><defs><clipPath id="er"><rect x="0" y="0" width="218" height="66"/></clipPath><linearGradient id="eq" x1="0" x2="0" y1="0" y2="100%"><stop offset="0%" stop-color="red"/><stop offset="100%" stop-color="yellow"/></linearGradient></defs><rect width="100%" height="100%" fill="#eee" stroke-width="0px"/><g clip-path="url(#er)"><path fill="url(#eq)" d="M0.02 56L0.02 12.3C0.02 12.3 3.56 16.27 6.04 16.9 8.08 17.42 9.81 15.37 12.06 15.37 14.32 15.37 15.87 16.19 18.09 16.9 20.39 17.63 21.85 18.34 24.11 19.2 26.37 20.06 27.99 21.77 30.13 21.5 32.5 21.2 33.89 17.67 36.15 17.67 38.41 17.67 39.73 20.57 42.17 21.5 44.25 22.29 46.26 21.28 48.2 22.27 50.77 23.58 51.64 26.32 54.22 27.63 56.16 28.62 57.97 28.26 60.24 28.4 62.49 28.54 64.04 28.12 66.26 28.4 68.56 28.69 70.03 29.36 72.29 29.93 74.54 30.51 76.05 30.89 78.31 31.47 80.57 32.04 82.04 32.85 84.33 33 86.56 33.14 88.09 32.23 90.35 32.23 92.61 32.23 94.12 32.71 96.37 33 98.63 33.29 100.16 33.34 102.4 33.77 104.68 34.2 106.12 35.01 108.42 35.3 110.64 35.58 112.18 35.3 114.44 35.3 116.7 35.3 118.24 35.02 120.46 35.3 122.76 35.59 124.27 36.13 126.48 36.83 128.78 37.57 130.21 38.99 132.51 39.13 134.72 39.27 136.31 37.46 138.53 37.6 140.83 37.75 142.22 39.6 144.55 39.9 146.74 40.18 148.31 39.13 150.57 39.13 152.83 39.13 154.33 39.76 156.59 39.9 158.84 40.04 160.69 39.04 162.62 39.9 165.2 41.05 166.05 44.11 168.64 45.27 170.57 46.13 172.44 45.55 174.66 45.27 176.95 44.97 178.58 43.33 180.68 43.73 183.1 44.19 184.26 46.79 186.71 47.57 188.77 48.22 190.73 46.8 192.73 47.57 195.24 48.53 196.31 50.77 198.75 52.17 200.83 53.36 202.47 53.73 204.77 54.47 206.99 55.17 208.5 55.71 210.79 56 213.02 56.28 216.82 56 216.82 56L216.82 56z" stroke="none"/><path fill="none" stroke="#000" stroke-width="2px" d="M0.02 12.3C0.02 12.3 3.56 16.27 6.04 16.9 8.08 17.42 9.81 15.37 12.06 15.37 14.32 15.37 15.87 16.19 18.09 16.9 20.39 17.63 21.85 18.34 24.11 19.2 26.37 20.06 27.99 21.77 30.13 21.5 32.5 21.2 33.89 17.67 36.15 17.67 38.41 17.67 39.73 20.57 42.17 21.5 44.25 22.29 46.26 21.28 48.2 22.27 50.77 23.58 51.64 26.32 54.22 27.63 56.16 28.62 57.97 28.26 60.24 28.4 62.49 28.54 64.04 28.12 66.26 28.4 68.56 28.69 70.03 29.36 72.29 29.93 74.54 30.51 76.05 30.89 78.31 31.47 80.57 32.04 82.04 32.85 84.33 33 86.56 33.14 88.09 32.23 90.35 32.23 92.61 32.23 94.12 32.71 96.37 33 98.63 33.29 100.16 33.34 102.4 33.77 104.68 34.2 106.12 35.01 108.42 35.3 110.64 35.58 112.18 35.3 114.44 35.3 116.7 35.3 118.24 35.02 120.46 35.3 122.76 35.59 124.27 36.13 126.48 36.83 128.78 37.57 130.21 38.99 132.51 39.13 134.72 39.27 136.31 37.46 138.53 37.6 140.83 37.75 142.22 39.6 144.55 39.9 146.74 40.18 148.31 39.13 150.57 39.13 152.83 39.13 154.33 39.76 156.59 39.9 158.84 40.04 160.69 39.04 162.62 39.9 165.2 41.05 166.05 44.11 168.64 45.27 170.57 46.13 172.44 45.55 174.66 45.27 176.95 44.97 178.58 43.33 180.68 43.73 183.1 44.19 184.26 46.79 186.71 47.57 188.77 48.22 190.73 46.8 192.73 47.57 195.24 48.53 196.31 50.77 198.75 52.17 200.83 53.36 202.47 53.73 204.77 54.47 206.99 55.17 208.5 55.71 210.79 56 213.02 56.28 216.82 56 216.82 56"/></g></svg>
