<?xml version="1.0" encoding="UTF-8" standalone="no"?><svg version="1.1" width="218" height="66" xmlns="http://www.w3.org/2000/svg" xmlns:xlink="http://www.w3.org/1999/xlink"><defs><clipPath id="e2J"><rect x="0" y="0" width="218" height="66"/></clipPath><linearGradient id="e2I" x1="0" x2="0" y1="0" y2="100%"><stop offset="0%" stop-color="red"/><stop offset="100%" stop-color="yellow"/></linearGradient><symbol><g id="e2K"><circle fill="blue" r="3" cursor="crosshair"/></g></symbol></defs><rect width="100%" height="100%" fill="#eee" stroke-width="0px"/><g clip-path="url(#e2J)"><path fill="url(#e2I)" d="M13.43 56L13.43 10.63 24.61 11.21 35.79 11.38 46.97 11.44 58.15 11.67 69.33 11.67 80.51 11.67 91.69 11.67 102.87 11.49 114.05 11.84 125.23 11.78 136.41 11.73 147.59 12.19 158.77 12.47 169.95 13.74 181.13 12.53 192.31 12.99 203.49 12.24 214.66 12.99L214.66 56z" stroke="none"/><path fill="none" stroke="#000" stroke-width="2px" d="M13.43 10.63L24.61 11.21 35.79 11.38 46.97 11.44 58.15 11.67 69.33 11.67 80.51 11.67 91.69 11.67 102.87 11.49 114.05 11.84 125.23 11.78 136.41 11.73 147.59 12.19 158.77 12.47 169.95 13.74 181.13 12.53 192.31 12.99 203.49 12.24 214.66 12.99"/></g><use x="13.43" y="10.63" id="e2M" xlink:href="#e2K"></use><use x="24.61" y="11.21" id="e2N" xlink:href="#e2K"></use><use x="35.79" y="11.38" id="e2O" xlink:href="#e2K"></use><use x="46.97" y="11.44" id="e2P" xlink:href="#e2K"></use><use x="58.15" y="11.67" id="e2Q" xlink:href="#e2K"></use><use x="69.33" y="11.67" id="e2R" xlink:href="#e2K"></use><use x="80.51" y="11.67" id="e2S" xlink:href="#e2K"></use><use x="91.69" y="11.67" id="e2T" xlink:href="#e2K"></use><use x="102.87" y="11.49" id="e2U" xlink:href="#e2K"></use><use x="114.05" y="11.84" id="e2V" xlink:href="#e2K"></use><use x="125.23" y="11.78" id="e2W" xlink:href="#e2K"></use><use x="136.41" y="11.73" id="e2X" xlink:href="#e2K"></use><use x="147.59" y="12.19" id="e2Y" xlink:href="#e2K"></use><use x="158.77" y="12.47" id="e2Z" xlink:href="#e2K"></use><use x="169.95" y="13.74" id="e30" xlink:href="#e2K"></use><use x="181.13" y="12.53" id="e31" xlink:href="#e2K"></use><use x="192.31" y="12.99" id="e32" xlink:href="#e2K"></use><use x="203.49" y="12.24" id="e33" xlink:href="#e2K"></use><use x="214.66" y="12.99" id="e34" xlink:href="#e2K"></use></svg>
