<?xml version="1.0" encoding="utf-8"?><svg xmlns="http://www.w3.org/2000/svg" xmlns:xlink="http://www.w3.org/1999/xlink" version="1.1" width="218" height="66"><defs><clipPath id="ei"><rect x="0" y="0" width="218" height="66" /></clipPath><linearGradient id="eh" x1="0" x2="0" y1="0" y2="100%"><stop offset="0%" style="stop-color: red" /><stop offset="100%" style="stop-color: yellow" /></linearGradient></defs><rect width="100%" height="100%" style="fill: #eee; stroke-width: 0px" /><g style="clip-path: url(#ei)"><path d="M0.02 56L0.02 28.02C0.02 28.02 3.81 26.64 6.04 25.72 8.33 24.77 9.7 23.56 12.06 23.03 14.22 22.55 15.93 23.51 18.09 23.03 20.45 22.51 21.77 21.09 24.11 20.35 26.28 19.66 27.85 19.49 30.13 19.2 32.37 18.91 33.9 19.03 36.15 18.82 38.42 18.6 39.94 18.48 42.17 18.05 44.46 17.61 46.01 17.28 48.2 16.52 50.52 15.7 51.91 13.98 54.22 13.83 56.43 13.69 57.93 15.46 60.24 15.75 62.45 16.03 64.08 15.85 66.26 15.37 68.6 14.85 70.24 12.61 72.29 13.07 74.76 13.62 75.98 16.27 78.31 18.05 80.5 19.72 81.95 20.9 84.33 22.27 86.46 23.49 88.12 23.89 90.35 24.95 92.64 26.04 94.15 26.81 96.37 28.02 98.66 29.25 100.03 30.41 102.4 31.47 104.55 32.43 106.13 33.24 108.42 33.38 110.64 33.52 112.24 32.86 114.44 32.23 116.75 31.57 118.32 31.02 120.46 29.93 122.84 28.72 124.05 27.11 126.48 26.1 128.57 25.24 130.28 25.52 132.51 24.95 134.8 24.37 136.22 23.4 138.53 23.03 140.73 22.68 142.31 23.25 144.55 23.03 146.83 22.82 148.37 22.51 150.57 21.88 152.89 21.22 154.26 20.1 156.59 19.58 158.78 19.1 160.38 19.49 162.62 19.2 164.89 18.91 166.38 18.48 168.64 18.05 170.9 17.62 172.39 17.26 174.66 16.9 176.91 16.54 178.45 16.56 180.68 16.13 182.97 15.7 184.43 15.11 186.71 14.6 188.95 14.1 190.5 13.31 192.73 13.45 195.02 13.6 197.74 13.44 198.75 15.37 202.26 22.06 202.29 28.62 204.77 36.45 206.8 42.85 207.49 47.96 210.79 53.32 212.01 55.29 216.82 56 216.82 56L216.82 56z" style="fill: url(#eh); stroke: none" /><path d="M0.02 28.02C0.02 28.02 3.81 26.64 6.04 25.72 8.33 24.77 9.7 23.56 12.06 23.03 14.22 22.55 15.93 23.51 18.09 23.03 20.45 22.51 21.77 21.09 24.11 20.35 26.28 19.66 27.85 19.49 30.13 19.2 32.37 18.91 33.9 19.03 36.15 18.82 38.42 18.6 39.94 18.48 42.17 18.05 44.46 17.61 46.01 17.28 48.2 16.52 50.52 15.7 51.91 13.98 54.22 13.83 56.43 13.69 57.93 15.46 60.24 15.75 62.45 16.03 64.08 15.85 66.26 15.37 68.6 14.85 70.24 12.61 72.29 13.07 74.76 13.62 75.98 16.27 78.31 18.05 80.5 19.72 81.95 20.9 84.33 22.27 86.46 23.49 88.12 23.89 90.35 24.95 92.64 26.04 94.15 26.81 96.37 28.02 98.66 29.25 100.03 30.41 102.4 31.47 104.55 32.43 106.13 33.24 108.42 33.38 110.64 33.52 112.24 32.86 114.44 32.23 116.75 31.57 118.32 31.02 120.46 29.93 122.84 28.72 124.05 27.11 126.48 26.1 128.57 25.24 130.28 25.52 132.51 24.95 134.8 24.37 136.22 23.4 138.53 23.03 140.73 22.68 142.31 23.25 144.55 23.03 146.83 22.82 148.37 22.51 150.57 21.88 152.89 21.22 154.26 20.1 156.59 19.58 158.78 19.1 160.38 19.49 162.62 19.2 164.89 18.91 166.38 18.48 168.64 18.05 170.9 17.62 172.39 17.26 174.66 16.9 176.91 16.54 178.45 16.56 180.68 16.13 182.97 15.7 184.43 15.11 186.71 14.6 188.95 14.1 190.5 13.31 192.73 13.45 195.02 13.6 197.74 13.44 198.75 15.37 202.26 22.06 202.29 28.62 204.77 36.45 206.8 42.85 207.49 47.96 210.79 53.32 212.01 55.29 216.82 56 216.82 56" style="fill: none; stroke: #000; stroke-width: 2px" /></g><svg xmlns="http://www.w3.org/2000/svg" xmlns:xml="http://www.w3.org/XML/1998/namespace" xmlns:sodipodi="http://sodipodi.sourceforge.net/DTD/sodipodi-0.dtd" xmlns:inkscape="http://www.inkscape.org/namespaces/inkscape" xmlns:rdf="http://www.w3.org/1999/02/22-rdf-syntax-ns#" xmlns:cc="http://creativecommons.org/ns#" xmlns:dc="http://purl.org/dc/elements/1.1/" xmlns:osb="http://www.openswatchbook.org/uri/2009/osb" height="50px" width="50px" version="1.1" id="Layer_1" viewBox="0 0 512 512" xml:space="preserve" sodipodi:docname="arrow-down.svg" inkscape:version="1.0.1 (3bc2e813f5, 2020-09-07)" style="fill: #000000"><metadata id="metadata17"><rdf:RDF><cc:Work rdf:about=""><dc:format>image/svg+xml</dc:format><dc:type rdf:resource="http://purl.org/dc/dcmitype/StillImage" /><dc:title /></cc:Work></rdf:RDF></metadata><defs id="defs15"><linearGradient id="linearGradient2795" osb:paint="solid"><stop offset="0" id="stop2793" style="stop-color: #000000; stop-opacity: 1" /></linearGradient>
	

		
	
			
			
		</defs><g id="g2926"><ellipse id="path2911" cx="256" cy="256" rx="219.94637" ry="232.67055" style="font-variation-settings: 'wdth' 75, 'wght' 700; fill: #ffffff; fill-opacity: 1; stroke: none; stroke-width: 3.76614; stroke-linejoin: round; stroke-miterlimit: 4; stroke-dasharray: none; stroke-opacity: 1" /><path d="m 437.014,74.983 c -99.955,-99.978 -262.05,-99.978 -362.03,0.002 -99.979,99.956 -99.979,262.052 0,362.031 99.979,99.979 262.075,99.979 362.033,-0.002 99.978,-99.977 99.978,-262.073 -0.003,-362.031 z m -30.168,331.863 c -83.297,83.317 -218.375,83.317 -301.691,0 -83.316,-83.317 -83.317,-218.394 -0.002,-301.69 83.318,-83.318 218.396,-83.318 301.691,-0.003 83.318,83.299 83.318,218.377 0.002,301.693 z" id="path2" style="fill-opacity: 1; fill: #000000; stroke: #000000; stroke-opacity: 1" /><path d="m 358.408,354.086 c 0.226,-0.302 0.46,-0.597 0.67,-0.911 0.204,-0.305 0.381,-0.621 0.567,-0.933 0.17,-0.285 0.349,-0.563 0.506,-0.856 0.171,-0.319 0.315,-0.647 0.468,-0.972 0.144,-0.306 0.297,-0.607 0.427,-0.92 0.131,-0.316 0.236,-0.638 0.351,-0.958 0.121,-0.336 0.25,-0.668 0.354,-1.012 0.097,-0.32 0.168,-0.646 0.249,-0.969 0.089,-0.351 0.187,-0.698 0.258,-1.055 0.074,-0.375 0.118,-0.753 0.173,-1.13 0.044,-0.311 0.104,-0.617 0.135,-0.932 0.069,-0.701 0.106,-1.403 0.106,-2.107 V 213.329 c 0,-11.782 -9.551,-21.333 -21.333,-21.333 -11.782,0 -21.333,9.551 -21.333,21.333 v 76.497 L 185.756,155.578 c -8.331,-8.331 -21.839,-8.331 -30.17,0 -8.331,8.331 -8.331,21.839 0,30.17 l 134.248,134.248 h -76.497 c -11.782,0 -21.333,9.551 -21.333,21.333 0,11.782 9.551,21.333 21.333,21.333 h 128 c 0.703,0 1.405,-0.037 2.105,-0.106 0.316,-0.031 0.622,-0.09 0.933,-0.135 0.377,-0.054 0.755,-0.098 1.13,-0.172 0.358,-0.071 0.705,-0.169 1.056,-0.258 0.323,-0.081 0.648,-0.152 0.968,-0.249 0.345,-0.104 0.677,-0.234 1.014,-0.355 0.32,-0.115 0.642,-0.22 0.957,-0.35 0.314,-0.13 0.615,-0.283 0.921,-0.428 0.325,-0.153 0.653,-0.297 0.971,-0.468 0.293,-0.157 0.571,-0.336 0.855,-0.506 0.313,-0.187 0.629,-0.363 0.934,-0.568 0.314,-0.21 0.609,-0.443 0.91,-0.669 0.255,-0.191 0.518,-0.369 0.766,-0.573 0.535,-0.439 1.049,-0.903 1.539,-1.392 0.008,-0.007 0.016,-0.014 0.023,-0.021 0.007,-0.007 0.014,-0.016 0.021,-0.023 0.488,-0.49 0.952,-1.004 1.392,-1.539 0.208,-0.247 0.385,-0.509 0.576,-0.764 z" id="path4" /></g><sodipodi:namedview pagecolor="#ffffff" bordercolor="#666666" borderopacity="1" objecttolerance="10" gridtolerance="10" guidetolerance="10" id="namedview13" showgrid="false" inkscape:pageopacity="0" inkscape:pageshadow="2" inkscape:window-width="1920" inkscape:window-height="1027" inkscape:zoom="1.075" inkscape:cx="400" inkscape:cy="498.38293" inkscape:window-x="1072" inkscape:window-y="-8" inkscape:window-maximized="1" inkscape:current-layer="Layer_1" /></svg></svg>