<?xml version="1.0" encoding="UTF-8" standalone="no"?><svg version="1.1" width="218" height="66" xmlns="http://www.w3.org/2000/svg" xmlns:xlink="http://www.w3.org/1999/xlink"><defs><clipPath id="e3"><rect x="0" y="0" width="218" height="66"/></clipPath><linearGradient id="e2" x1="0" x2="0" y1="0" y2="100%"><stop offset="0%" stop-color="red"/><stop offset="100%" stop-color="yellow"/></linearGradient></defs><rect width="100%" height="100%" fill="#eee" stroke-width="0px"/><g clip-path="url(#e3)"><path fill="url(#e2)" d="M0.02 56L0.02 28.4C0.02 28.4 3.86 28.82 6.04 28.4 8.38 27.95 9.81 26.1 12.06 26.1 14.32 26.1 15.75 27.95 18.09 28.4 20.27 28.82 21.85 28.4 24.11 28.4 26.37 28.4 27.87 28.4 30.13 28.4 32.39 28.4 33.97 27.98 36.15 28.4 38.49 28.85 39.92 30.7 42.17 30.7 44.43 30.7 45.86 28.85 48.2 28.4 50.38 27.98 51.96 28.4 54.22 28.4 56.48 28.4 58.06 27.98 60.24 28.4 62.58 28.85 63.93 30.25 66.26 30.7 68.44 31.12 70.03 30.7 72.29 30.7 74.54 30.7 76.05 30.7 78.31 30.7 80.57 30.7 82.07 30.7 84.33 30.7 86.59 30.7 88.17 31.12 90.35 30.7 92.69 30.25 94.12 28.4 96.37 28.4 98.63 28.4 100.06 30.25 102.4 30.7 104.58 31.12 106.24 31.12 108.42 30.7 110.75 30.25 112.1 28.85 114.44 28.4 116.62 27.98 118.28 28.82 120.46 28.4 122.8 27.95 124.15 26.55 126.48 26.1 128.67 25.68 130.25 26.1 132.51 26.1 134.76 26.1 136.27 26.1 138.53 26.1 140.79 26.1 142.29 26.1 144.55 26.1 146.81 26.1 148.31 26.1 150.57 26.1 152.83 26.1 155.61 24.41 156.59 26.1 160.13 32.17 159.14 40.16 162.62 46.8 163.66 48.79 166.77 47.67 168.64 49.1 171.29 51.12 172.79 56.71 174.66 56 177.31 54.99 177.83 48.31 180.68 44.5 182.35 42.27 184.19 40.86 186.71 39.9 188.71 39.14 190.55 40.32 192.73 39.9 195.06 39.45 196.41 38.05 198.75 37.6 200.93 37.18 202.51 37.6 204.77 37.6 207.03 37.6 208.54 37.6 210.79 37.6 213.05 37.6 216.82 37.6 216.82 37.6L216.82 56z" stroke="none"/><path fill="none" stroke="#000" stroke-width="2px" d="M0.02 28.4C0.02 28.4 3.86 28.82 6.04 28.4 8.38 27.95 9.81 26.1 12.06 26.1 14.32 26.1 15.75 27.95 18.09 28.4 20.27 28.82 21.85 28.4 24.11 28.4 26.37 28.4 27.87 28.4 30.13 28.4 32.39 28.4 33.97 27.98 36.15 28.4 38.49 28.85 39.92 30.7 42.17 30.7 44.43 30.7 45.86 28.85 48.2 28.4 50.38 27.98 51.96 28.4 54.22 28.4 56.48 28.4 58.06 27.98 60.24 28.4 62.58 28.85 63.93 30.25 66.26 30.7 68.44 31.12 70.03 30.7 72.29 30.7 74.54 30.7 76.05 30.7 78.31 30.7 80.57 30.7 82.07 30.7 84.33 30.7 86.59 30.7 88.17 31.12 90.35 30.7 92.69 30.25 94.12 28.4 96.37 28.4 98.63 28.4 100.06 30.25 102.4 30.7 104.58 31.12 106.24 31.12 108.42 30.7 110.75 30.25 112.1 28.85 114.44 28.4 116.62 27.98 118.28 28.82 120.46 28.4 122.8 27.95 124.15 26.55 126.48 26.1 128.67 25.68 130.25 26.1 132.51 26.1 134.76 26.1 136.27 26.1 138.53 26.1 140.79 26.1 142.29 26.1 144.55 26.1 146.81 26.1 148.31 26.1 150.57 26.1 152.83 26.1 155.61 24.41 156.59 26.1 160.13 32.17 159.14 40.16 162.62 46.8 163.66 48.79 166.77 47.67 168.64 49.1 171.29 51.12 172.79 56.71 174.66 56 177.31 54.99 177.83 48.31 180.68 44.5 182.35 42.27 184.19 40.86 186.71 39.9 188.71 39.14 190.55 40.32 192.73 39.9 195.06 39.45 196.41 38.05 198.75 37.6 200.93 37.18 202.51 37.6 204.77 37.6 207.03 37.6 208.54 37.6 210.79 37.6 213.05 37.6 216.82 37.6 216.82 37.6"/></g></svg>
