<?xml version="1.0" encoding="utf-8"?><svg xmlns="http://www.w3.org/2000/svg" xmlns:xlink="http://www.w3.org/1999/xlink" version="1.1" width="218" height="66"><defs><clipPath id="e9"><rect x="0" y="0" width="218" height="66" /></clipPath><linearGradient id="e8" x1="0" x2="0" y1="0" y2="100%"><stop offset="0%" style="stop-color: red" /><stop offset="100%" style="stop-color: yellow" /></linearGradient></defs><rect width="100%" height="100%" style="fill: #eee; stroke-width: 0px" /><g style="clip-path: url(#e9)"><path d="M0.02 56L0.02 15.91C0.02 15.91 3.78 15.26 6.04 15.26 8.3 15.26 9.81 15.91 12.06 15.91 14.32 15.91 15.82 15.34 18.09 15.26 22.59 15.09 25.61 15.26 30.13 15.26 32.39 15.26 33.89 15.26 36.15 15.26 38.41 15.26 39.92 15.26 42.17 15.26 44.43 15.26 45.95 15.38 48.2 15.26 50.46 15.13 51.95 14.72 54.22 14.6 56.47 14.48 57.98 14.6 60.24 14.6 62.5 14.6 64.01 14.48 66.26 14.6 68.53 14.72 70.02 15.13 72.29 15.26 74.54 15.38 76.05 15.26 78.31 15.26 80.57 15.26 82.08 15.38 84.33 15.26 86.59 15.13 88.09 14.6 90.35 14.6 92.61 14.6 94.12 15.26 96.37 15.26 98.63 15.26 100.14 14.6 102.4 14.6 104.65 14.6 106.16 15.26 108.42 15.26 110.68 15.26 112.17 14.72 114.44 14.6 116.69 14.48 118.21 14.72 120.46 14.6 122.73 14.48 124.23 13.94 126.48 13.94 128.74 13.94 130.25 14.6 132.51 14.6 134.76 14.6 136.26 14.07 138.53 13.94 140.78 13.82 142.3 13.82 144.55 13.94 146.82 14.07 149.2 13.1 150.57 14.6 153.72 18.03 154.52 22.32 156.59 27.09 161.29 37.85 163.13 48.39 168.64 56 169.9 57.75 173.52 54.36 174.66 52.06 178.03 45.25 177.27 38.39 180.68 31.69 181.79 29.52 184.4 29.53 186.71 28.4 188.91 27.31 190.4 26.53 192.73 25.77 194.91 25.06 196.56 25.17 198.75 24.46 201.08 23.69 202.42 22.47 204.77 21.83 206.94 21.24 208.54 21.42 210.79 21.17 213.05 20.93 216.82 20.51 216.82 20.51L216.82 56z" style="fill: url(#e8); stroke: none" /><path d="M0.02 15.91C0.02 15.91 3.78 15.26 6.04 15.26 8.3 15.26 9.81 15.91 12.06 15.91 14.32 15.91 15.82 15.34 18.09 15.26 22.59 15.09 25.61 15.26 30.13 15.26 32.39 15.26 33.89 15.26 36.15 15.26 38.41 15.26 39.92 15.26 42.17 15.26 44.43 15.26 45.95 15.38 48.2 15.26 50.46 15.13 51.95 14.72 54.22 14.6 56.47 14.48 57.98 14.6 60.24 14.6 62.5 14.6 64.01 14.48 66.26 14.6 68.53 14.72 70.02 15.13 72.29 15.26 74.54 15.38 76.05 15.26 78.31 15.26 80.57 15.26 82.08 15.38 84.33 15.26 86.59 15.13 88.09 14.6 90.35 14.6 92.61 14.6 94.12 15.26 96.37 15.26 98.63 15.26 100.14 14.6 102.4 14.6 104.65 14.6 106.16 15.26 108.42 15.26 110.68 15.26 112.17 14.72 114.44 14.6 116.69 14.48 118.21 14.72 120.46 14.6 122.73 14.48 124.23 13.94 126.48 13.94 128.74 13.94 130.25 14.6 132.51 14.6 134.76 14.6 136.26 14.07 138.53 13.94 140.78 13.82 142.3 13.82 144.55 13.94 146.82 14.07 149.2 13.1 150.57 14.6 153.72 18.03 154.52 22.32 156.59 27.09 161.29 37.85 163.13 48.39 168.64 56 169.9 57.75 173.52 54.36 174.66 52.06 178.03 45.25 177.27 38.39 180.68 31.69 181.79 29.52 184.4 29.53 186.71 28.4 188.91 27.31 190.4 26.53 192.73 25.77 194.91 25.06 196.56 25.17 198.75 24.46 201.08 23.69 202.42 22.47 204.77 21.83 206.94 21.24 208.54 21.42 210.79 21.17 213.05 20.93 216.82 20.51 216.82 20.51" style="fill: none; stroke: #000; stroke-width: 2px" /></g><g transform="translate(84, 8)"><svg xmlns="http://www.w3.org/2000/svg" xmlns:xml="http://www.w3.org/XML/1998/namespace" xmlns:sodipodi="http://sodipodi.sourceforge.net/DTD/sodipodi-0.dtd" xmlns:inkscape="http://www.inkscape.org/namespaces/inkscape" xmlns:rdf="http://www.w3.org/1999/02/22-rdf-syntax-ns#" xmlns:cc="http://creativecommons.org/ns#" xmlns:dc="http://purl.org/dc/elements/1.1/" xmlns:osb="http://www.openswatchbook.org/uri/2009/osb" height="50px" width="50px" version="1.1" id="Layer_1" viewBox="0 0 512 512" xml:space="preserve" sodipodi:docname="arrow-up.svg" inkscape:version="1.0.1 (3bc2e813f5, 2020-09-07)" style="fill: #000000"><metadata id="metadata17"><rdf:RDF><cc:Work rdf:about=""><dc:format>image/svg+xml</dc:format><dc:type rdf:resource="http://purl.org/dc/dcmitype/StillImage" /><dc:title /></cc:Work></rdf:RDF></metadata><defs id="defs15"><linearGradient id="linearGradient2795" osb:paint="solid"><stop offset="0" id="stop2793" style="stop-color: #000000; stop-opacity: 1" /></linearGradient>
	

		
	
			
			
		</defs><g id="g2934"><ellipse id="path2911" cx="256" cy="256" rx="219.94637" ry="232.67055" style="font-variation-settings: 'wdth' 75, 'wght' 700; fill: #ffffff; fill-opacity: 1; stroke: none; stroke-width: 3.76614; stroke-linejoin: round; stroke-miterlimit: 4; stroke-dasharray: none; stroke-opacity: 1" /><path d="m 437.014,74.983 c -99.955,-99.978 -262.05,-99.978 -362.03,0.002 -99.979,99.956 -99.979,262.052 0,362.031 99.979,99.979 262.075,99.979 362.033,-0.002 99.978,-99.977 99.978,-262.073 -0.003,-362.031 z m -30.168,331.863 c -83.297,83.317 -218.375,83.317 -301.691,0 -83.316,-83.317 -83.317,-218.394 -0.002,-301.69 83.318,-83.318 218.396,-83.318 301.691,-0.003 83.318,83.299 83.318,218.377 0.002,301.693 z" id="path2" style="fill: #000000; fill-opacity: 1; stroke: #000000; stroke-opacity: 1" /><path d="m 358.408,157.90575 c 0.226,0.302 0.46,0.597 0.67,0.911 0.204,0.305 0.381,0.621 0.567,0.933 0.17,0.285 0.349,0.563 0.506,0.856 0.171,0.319 0.315,0.647 0.468,0.972 0.144,0.306 0.297,0.607 0.427,0.92 0.131,0.316 0.236,0.638 0.351,0.958 0.121,0.336 0.25,0.668 0.354,1.012 0.097,0.32 0.168,0.646 0.249,0.969 0.089,0.351 0.187,0.698 0.258,1.055 0.074,0.375 0.118,0.753 0.173,1.13 0.044,0.311 0.104,0.617 0.135,0.932 0.069,0.701 0.106,1.403 0.106,2.107 v 128.002 c 0,11.782 -9.551,21.333 -21.333,21.333 -11.782,0 -21.333,-9.551 -21.333,-21.333 v -76.497 l -134.25,134.248 c -8.331,8.331 -21.839,8.331 -30.17,0 -8.331,-8.331 -8.331,-21.839 0,-30.17 l 134.248,-134.248 h -76.497 c -11.782,0 -21.333,-9.551 -21.333,-21.333 0,-11.782 9.551,-21.333 21.333,-21.333 h 128 c 0.703,0 1.405,0.037 2.105,0.106 0.316,0.031 0.622,0.09 0.933,0.135 0.377,0.054 0.755,0.098 1.13,0.172 0.358,0.071 0.705,0.169 1.056,0.258 0.323,0.081 0.648,0.152 0.968,0.249 0.345,0.104 0.677,0.234 1.014,0.355 0.32,0.115 0.642,0.22 0.957,0.35 0.314,0.13 0.615,0.283 0.921,0.428 0.325,0.153 0.653,0.297 0.971,0.468 0.293,0.157 0.571,0.336 0.855,0.506 0.313,0.187 0.629,0.363 0.934,0.568 0.314,0.21 0.609,0.443 0.91,0.669 0.255,0.191 0.518,0.369 0.766,0.573 0.535,0.439 1.049,0.903 1.539,1.392 0.008,0.007 0.016,0.014 0.023,0.021 0.007,0.007 0.014,0.016 0.021,0.023 0.488,0.49 0.952,1.004 1.392,1.539 0.208,0.247 0.385,0.509 0.576,0.764 z" id="path4" /></g><sodipodi:namedview pagecolor="#ffffff" bordercolor="#666666" borderopacity="1" objecttolerance="10" gridtolerance="10" guidetolerance="10" id="namedview13" showgrid="false" inkscape:pageopacity="0" inkscape:pageshadow="2" inkscape:window-width="1920" inkscape:window-height="1027" inkscape:zoom="1.075" inkscape:cx="400" inkscape:cy="498.38293" inkscape:window-x="1072" inkscape:window-y="-8" inkscape:window-maximized="1" inkscape:current-layer="Layer_1" /></svg></g></svg>