<?xml version="1.0" encoding="utf-8"?><svg xmlns="http://www.w3.org/2000/svg" xmlns:xlink="http://www.w3.org/1999/xlink" version="1.1" width="218" height="66"><defs><clipPath id="el"><rect x="0" y="0" width="218" height="66" /></clipPath><linearGradient id="ek" x1="0" x2="0" y1="0" y2="100%"><stop offset="0%" style="stop-color: red" /><stop offset="100%" style="stop-color: yellow" /></linearGradient></defs><rect width="100%" height="100%" style="fill: #eee; stroke-width: 0px" /><g style="clip-path: url(#el)"><path d="M0.02 56L0.02 55.54C0.02 55.54 3.9 56.09 6.21 56 8.55 55.91 10.08 55.34 12.41 55.08 14.72 54.82 16.28 54.79 18.6 54.62 20.92 54.45 22.47 54.25 24.79 54.16 27.11 54.07 28.67 54.25 30.99 54.16 33.31 54.07 34.86 53.7 37.18 53.7 39.5 53.7 41.12 54.49 43.37 54.16 45.77 53.8 47.24 52.72 49.57 51.86 51.89 51 53.39 50.26 55.76 49.56 58.03 48.88 59.6 48.44 61.95 48.18 64.25 47.92 65.85 48.44 68.15 48.18 70.5 47.92 72.04 47.4 74.34 46.8 76.68 46.19 78.16 45.31 80.53 44.96 82.81 44.62 84.41 45.05 86.73 44.96 89.05 44.87 90.6 44.67 92.92 44.5 95.24 44.33 96.86 43.71 99.11 44.04 101.51 44.4 102.91 45.89 105.3 46.34 107.55 46.76 109.18 46.34 111.5 46.34 113.82 46.34 115.37 46.25 117.69 46.34 120.02 46.43 121.56 46.8 123.88 46.8 126.21 46.8 127.76 46.25 130.08 46.34 132.41 46.43 133.94 47.09 136.27 47.26 138.58 47.43 140.14 47.35 142.46 47.26 144.79 47.17 146.33 46.8 148.66 46.8 150.98 46.8 152.54 47 154.85 47.26 157.18 47.52 158.71 48.09 161.04 48.18 163.36 48.27 164.91 47.81 167.24 47.72 169.56 47.63 171.11 47.63 173.43 47.72 175.76 47.81 177.3 48.18 179.62 48.18 181.95 48.18 183.5 47.98 185.82 47.72 188.15 47.46 189.72 47.31 192.01 46.8 194.37 46.27 197.45 47.07 198.2 44.96 202.09 34.13 201.92 13.13 204.4 12.3 206.57 11.57 206.76 32.14 210.59 40.82 211.4 42.67 216.78 40.36 216.78 40.36L216.78 56z" style="fill: url(#ek); stroke: none" /><path d="M0.02 55.54C0.02 55.54 3.9 56.09 6.21 56 8.55 55.91 10.08 55.34 12.41 55.08 14.72 54.82 16.28 54.79 18.6 54.62 20.92 54.45 22.47 54.25 24.79 54.16 27.11 54.07 28.67 54.25 30.99 54.16 33.31 54.07 34.86 53.7 37.18 53.7 39.5 53.7 41.12 54.49 43.37 54.16 45.77 53.8 47.24 52.72 49.57 51.86 51.89 51 53.39 50.26 55.76 49.56 58.03 48.88 59.6 48.44 61.95 48.18 64.25 47.92 65.85 48.44 68.15 48.18 70.5 47.92 72.04 47.4 74.34 46.8 76.68 46.19 78.16 45.31 80.53 44.96 82.81 44.62 84.41 45.05 86.73 44.96 89.05 44.87 90.6 44.67 92.92 44.5 95.24 44.33 96.86 43.71 99.11 44.04 101.51 44.4 102.91 45.89 105.3 46.34 107.55 46.76 109.18 46.34 111.5 46.34 113.82 46.34 115.37 46.25 117.69 46.34 120.02 46.43 121.56 46.8 123.88 46.8 126.21 46.8 127.76 46.25 130.08 46.34 132.41 46.43 133.94 47.09 136.27 47.26 138.58 47.43 140.14 47.35 142.46 47.26 144.79 47.17 146.33 46.8 148.66 46.8 150.98 46.8 152.54 47 154.85 47.26 157.18 47.52 158.71 48.09 161.04 48.18 163.36 48.27 164.91 47.81 167.24 47.72 169.56 47.63 171.11 47.63 173.43 47.72 175.76 47.81 177.3 48.18 179.62 48.18 181.95 48.18 183.5 47.98 185.82 47.72 188.15 47.46 189.72 47.31 192.01 46.8 194.37 46.27 197.45 47.07 198.2 44.96 202.09 34.13 201.92 13.13 204.4 12.3 206.57 11.57 206.76 32.14 210.59 40.82 211.4 42.67 216.78 40.36 216.78 40.36" style="fill: none; stroke: #000; stroke-width: 2px" /></g><svg xmlns="http://www.w3.org/2000/svg" xmlns:xml="http://www.w3.org/XML/1998/namespace" xmlns:sodipodi="http://sodipodi.sourceforge.net/DTD/sodipodi-0.dtd" xmlns:inkscape="http://www.inkscape.org/namespaces/inkscape" xmlns:rdf="http://www.w3.org/1999/02/22-rdf-syntax-ns#" xmlns:cc="http://creativecommons.org/ns#" xmlns:dc="http://purl.org/dc/elements/1.1/" xmlns:osb="http://www.openswatchbook.org/uri/2009/osb" height="50px" width="50px" version="1.1" id="Layer_1" viewBox="0 0 512 512" xml:space="preserve" sodipodi:docname="arrow-down.svg" inkscape:version="1.0.1 (3bc2e813f5, 2020-09-07)" style="fill: #000000"><metadata id="metadata17"><rdf:RDF><cc:Work rdf:about=""><dc:format>image/svg+xml</dc:format><dc:type rdf:resource="http://purl.org/dc/dcmitype/StillImage" /><dc:title /></cc:Work></rdf:RDF></metadata><defs id="defs15"><linearGradient id="linearGradient2795" osb:paint="solid"><stop offset="0" id="stop2793" style="stop-color: #000000; stop-opacity: 1" /></linearGradient>
	

		
	
			
			
		</defs><g id="g2926"><ellipse id="path2911" cx="256" cy="256" rx="219.94637" ry="232.67055" style="font-variation-settings: 'wdth' 75, 'wght' 700; fill: #ffffff; fill-opacity: 1; stroke: none; stroke-width: 3.76614; stroke-linejoin: round; stroke-miterlimit: 4; stroke-dasharray: none; stroke-opacity: 1" /><path d="m 437.014,74.983 c -99.955,-99.978 -262.05,-99.978 -362.03,0.002 -99.979,99.956 -99.979,262.052 0,362.031 99.979,99.979 262.075,99.979 362.033,-0.002 99.978,-99.977 99.978,-262.073 -0.003,-362.031 z m -30.168,331.863 c -83.297,83.317 -218.375,83.317 -301.691,0 -83.316,-83.317 -83.317,-218.394 -0.002,-301.69 83.318,-83.318 218.396,-83.318 301.691,-0.003 83.318,83.299 83.318,218.377 0.002,301.693 z" id="path2" style="fill-opacity: 1; fill: #000000; stroke: #000000; stroke-opacity: 1" /><path d="m 358.408,354.086 c 0.226,-0.302 0.46,-0.597 0.67,-0.911 0.204,-0.305 0.381,-0.621 0.567,-0.933 0.17,-0.285 0.349,-0.563 0.506,-0.856 0.171,-0.319 0.315,-0.647 0.468,-0.972 0.144,-0.306 0.297,-0.607 0.427,-0.92 0.131,-0.316 0.236,-0.638 0.351,-0.958 0.121,-0.336 0.25,-0.668 0.354,-1.012 0.097,-0.32 0.168,-0.646 0.249,-0.969 0.089,-0.351 0.187,-0.698 0.258,-1.055 0.074,-0.375 0.118,-0.753 0.173,-1.13 0.044,-0.311 0.104,-0.617 0.135,-0.932 0.069,-0.701 0.106,-1.403 0.106,-2.107 V 213.329 c 0,-11.782 -9.551,-21.333 -21.333,-21.333 -11.782,0 -21.333,9.551 -21.333,21.333 v 76.497 L 185.756,155.578 c -8.331,-8.331 -21.839,-8.331 -30.17,0 -8.331,8.331 -8.331,21.839 0,30.17 l 134.248,134.248 h -76.497 c -11.782,0 -21.333,9.551 -21.333,21.333 0,11.782 9.551,21.333 21.333,21.333 h 128 c 0.703,0 1.405,-0.037 2.105,-0.106 0.316,-0.031 0.622,-0.09 0.933,-0.135 0.377,-0.054 0.755,-0.098 1.13,-0.172 0.358,-0.071 0.705,-0.169 1.056,-0.258 0.323,-0.081 0.648,-0.152 0.968,-0.249 0.345,-0.104 0.677,-0.234 1.014,-0.355 0.32,-0.115 0.642,-0.22 0.957,-0.35 0.314,-0.13 0.615,-0.283 0.921,-0.428 0.325,-0.153 0.653,-0.297 0.971,-0.468 0.293,-0.157 0.571,-0.336 0.855,-0.506 0.313,-0.187 0.629,-0.363 0.934,-0.568 0.314,-0.21 0.609,-0.443 0.91,-0.669 0.255,-0.191 0.518,-0.369 0.766,-0.573 0.535,-0.439 1.049,-0.903 1.539,-1.392 0.008,-0.007 0.016,-0.014 0.023,-0.021 0.007,-0.007 0.014,-0.016 0.021,-0.023 0.488,-0.49 0.952,-1.004 1.392,-1.539 0.208,-0.247 0.385,-0.509 0.576,-0.764 z" id="path4" /></g><sodipodi:namedview pagecolor="#ffffff" bordercolor="#666666" borderopacity="1" objecttolerance="10" gridtolerance="10" guidetolerance="10" id="namedview13" showgrid="false" inkscape:pageopacity="0" inkscape:pageshadow="2" inkscape:window-width="1920" inkscape:window-height="1027" inkscape:zoom="1.075" inkscape:cx="400" inkscape:cy="498.38293" inkscape:window-x="1072" inkscape:window-y="-8" inkscape:window-maximized="1" inkscape:current-layer="Layer_1" /></svg></svg>