<?xml version="1.0" encoding="UTF-8" standalone="no"?><svg version="1.1" width="218" height="66" xmlns="http://www.w3.org/2000/svg" xmlns:xlink="http://www.w3.org/1999/xlink"><defs><clipPath id="e3w"><rect x="0" y="0" width="218" height="66"/></clipPath><linearGradient id="e3v" x1="0" x2="0" y1="0" y2="100%"><stop offset="0%" stop-color="red"/><stop offset="100%" stop-color="yellow"/></linearGradient><symbol><g id="e3x"><circle fill="blue" r="3" cursor="crosshair"/></g></symbol></defs><rect width="100%" height="100%" fill="#eee" stroke-width="0px"/><g clip-path="url(#e3w)"><path fill="url(#e3v)" d="M10.08 56L10.08 21.15 21.26 20.74 32.44 20.39 43.62 20.1 54.8 19.87 65.98 19.65 77.16 19.47 99.52 19.21 110.7 19.11 121.88 19.05 133.05 18.96 144.23 19.02 155.41 20.24 166.59 20.59 177.77 19.69 188.95 17.52 200.13 10.84 211.31 13.81L211.31 56z" stroke="none"/><path fill="none" stroke="#000" stroke-width="2px" d="M10.08 21.15L21.26 20.74 32.44 20.39 43.62 20.1 54.8 19.87 65.98 19.65 77.16 19.47 99.52 19.21 110.7 19.11 121.88 19.05 133.05 18.96 144.23 19.02 155.41 20.24 166.59 20.59 177.77 19.69 188.95 17.52 200.13 10.84 211.31 13.81"/></g><use x="10.08" y="21.15" id="e3z" xlink:href="#e3x"></use><use x="21.26" y="20.74" id="e3A" xlink:href="#e3x"></use><use x="32.44" y="20.39" id="e3B" xlink:href="#e3x"></use><use x="43.62" y="20.1" id="e3C" xlink:href="#e3x"></use><use x="54.8" y="19.87" id="e3D" xlink:href="#e3x"></use><use x="65.98" y="19.65" id="e3E" xlink:href="#e3x"></use><use x="77.16" y="19.47" id="e3F" xlink:href="#e3x"></use><use x="99.52" y="19.21" id="e3G" xlink:href="#e3x"></use><use x="110.7" y="19.11" id="e3H" xlink:href="#e3x"></use><use x="121.88" y="19.05" id="e3I" xlink:href="#e3x"></use><use x="133.05" y="18.96" id="e3J" xlink:href="#e3x"></use><use x="144.23" y="19.02" id="e3K" xlink:href="#e3x"></use><use x="155.41" y="20.24" id="e3L" xlink:href="#e3x"></use><use x="166.59" y="20.59" id="e3M" xlink:href="#e3x"></use><use x="177.77" y="19.69" id="e3N" xlink:href="#e3x"></use><use x="188.95" y="17.52" id="e3O" xlink:href="#e3x"></use><use x="200.13" y="10.84" id="e3P" xlink:href="#e3x"></use><use x="211.31" y="13.81" id="e3Q" xlink:href="#e3x"></use></svg>
