<?xml version="1.0" encoding="UTF-8" standalone="no"?><svg version="1.1" width="218" height="66" xmlns="http://www.w3.org/2000/svg" xmlns:xlink="http://www.w3.org/1999/xlink"><defs><clipPath id="er"><rect x="0" y="0" width="218" height="66"/></clipPath><linearGradient id="eq" x1="0" x2="0" y1="0" y2="100%"><stop offset="0%" stop-color="red"/><stop offset="100%" stop-color="yellow"/></linearGradient><symbol><g id="es"><circle fill="blue" r="3" cursor="crosshair"/></g></symbol></defs><rect width="100%" height="100%" fill="#eee" stroke-width="0px"/><g clip-path="url(#er)"><path fill="url(#eq)" d="M13.43 56L13.43 19.43 24.61 18.97 35.79 18.68 46.97 19.32 58.15 19.2 69.33 19.26 80.51 19.49 91.69 19.6 102.87 19.72 114.05 19.55 125.23 19.55 136.41 19.72 147.59 19.78 158.77 19.89 169.95 19.66 181.13 20.41 192.31 21.1 203.49 22.25 214.66 21.16L214.66 56z" stroke="none"/><path fill="none" stroke="#000" stroke-width="2px" d="M13.43 19.43L24.61 18.97 35.79 18.68 46.97 19.32 58.15 19.2 69.33 19.26 80.51 19.49 91.69 19.6 102.87 19.72 114.05 19.55 125.23 19.55 136.41 19.72 147.59 19.78 158.77 19.89 169.95 19.66 181.13 20.41 192.31 21.1 203.49 22.25 214.66 21.16"/></g><use x="13.43" y="19.43" id="eu" xlink:href="#es"></use><use x="24.61" y="18.97" id="ev" xlink:href="#es"></use><use x="35.79" y="18.68" id="ew" xlink:href="#es"></use><use x="46.97" y="19.32" id="ex" xlink:href="#es"></use><use x="58.15" y="19.2" id="ey" xlink:href="#es"></use><use x="69.33" y="19.26" id="ez" xlink:href="#es"></use><use x="80.51" y="19.49" id="eA" xlink:href="#es"></use><use x="91.69" y="19.6" id="eB" xlink:href="#es"></use><use x="102.87" y="19.72" id="eC" xlink:href="#es"></use><use x="114.05" y="19.55" id="eD" xlink:href="#es"></use><use x="125.23" y="19.55" id="eE" xlink:href="#es"></use><use x="136.41" y="19.72" id="eF" xlink:href="#es"></use><use x="147.59" y="19.78" id="eG" xlink:href="#es"></use><use x="158.77" y="19.89" id="eH" xlink:href="#es"></use><use x="169.95" y="19.66" id="eI" xlink:href="#es"></use><use x="181.13" y="20.41" id="eJ" xlink:href="#es"></use><use x="192.31" y="21.1" id="eK" xlink:href="#es"></use><use x="203.49" y="22.25" id="eL" xlink:href="#es"></use><use x="214.66" y="21.16" id="eM" xlink:href="#es"></use></svg>
