<?xml version="1.0" encoding="utf-8"?><svg xmlns="http://www.w3.org/2000/svg" xmlns:xlink="http://www.w3.org/1999/xlink" version="1.1" width="218" height="66"><defs><clipPath id="el"><rect x="0" y="0" width="218" height="66" /></clipPath><linearGradient id="ek" x1="0" x2="0" y1="0" y2="100%"><stop offset="0%" style="stop-color: red" /><stop offset="100%" style="stop-color: yellow" /></linearGradient></defs><rect width="100%" height="100%" style="fill: #eee; stroke-width: 0px" /><g style="clip-path: url(#el)"><path d="M0.02 56L0.02 56C0.02 56 3.78 56 6.04 56 8.3 56 9.81 56 12.06 56 14.32 56 15.83 56 18.09 56 20.34 56 21.85 56 24.11 56 26.37 56 27.87 56 30.13 56 32.39 56 33.89 56 36.15 56 38.41 56 39.92 56 42.17 56 44.43 56 45.94 56 48.2 56 50.46 56 51.97 56.17 54.22 56 56.49 55.83 57.98 55.08 60.24 55.08 62.5 55.08 64 56 66.26 56 68.52 56 70.01 55.25 72.29 55.08 74.53 54.91 76.06 55.25 78.31 55.08 80.58 54.91 82.06 54.33 84.33 54.16 86.57 53.99 88.09 54.16 90.35 54.16 92.61 54.16 94.13 53.99 96.37 54.16 98.64 54.33 100.14 55.08 102.4 55.08 104.65 55.08 106.15 54.33 108.42 54.16 110.66 53.99 112.18 54.16 114.44 54.16 116.7 54.16 118.2 54.16 120.46 54.16 122.72 54.16 124.24 54.33 126.48 54.16 128.76 53.99 130.23 53.41 132.51 53.24 134.75 53.07 136.27 53.24 138.53 53.24 140.79 53.24 142.31 53.41 144.55 53.24 146.82 53.07 149.83 54.25 150.57 52.32 154.35 42.52 153.02 32.61 156.59 21.96 157.54 19.15 160.07 17.22 162.62 16.44 164.58 15.84 167.13 16.67 168.64 18.28 171.65 21.5 172.09 25.39 174.66 29.32 176.61 32.29 177.93 34.79 180.68 36.68 182.45 37.89 184.48 37.09 186.71 37.6 189 38.13 190.53 38.6 192.73 39.44 195.04 40.32 196.38 41.66 198.75 42.2 200.9 42.69 202.53 42.03 204.77 42.2 207.04 42.37 208.52 42.95 210.79 43.12 213.04 43.29 216.82 43.12 216.82 43.12L216.82 56z" style="fill: url(#ek); stroke: none" /><path d="M0.02 56C0.02 56 3.78 56 6.04 56 8.3 56 9.81 56 12.06 56 14.32 56 15.83 56 18.09 56 20.34 56 21.85 56 24.11 56 26.37 56 27.87 56 30.13 56 32.39 56 33.89 56 36.15 56 38.41 56 39.92 56 42.17 56 44.43 56 45.94 56 48.2 56 50.46 56 51.97 56.17 54.22 56 56.49 55.83 57.98 55.08 60.24 55.08 62.5 55.08 64 56 66.26 56 68.52 56 70.01 55.25 72.29 55.08 74.53 54.91 76.06 55.25 78.31 55.08 80.58 54.91 82.06 54.33 84.33 54.16 86.57 53.99 88.09 54.16 90.35 54.16 92.61 54.16 94.13 53.99 96.37 54.16 98.64 54.33 100.14 55.08 102.4 55.08 104.65 55.08 106.15 54.33 108.42 54.16 110.66 53.99 112.18 54.16 114.44 54.16 116.7 54.16 118.2 54.16 120.46 54.16 122.72 54.16 124.24 54.33 126.48 54.16 128.76 53.99 130.23 53.41 132.51 53.24 134.75 53.07 136.27 53.24 138.53 53.24 140.79 53.24 142.31 53.41 144.55 53.24 146.82 53.07 149.83 54.25 150.57 52.32 154.35 42.52 153.02 32.61 156.59 21.96 157.54 19.15 160.07 17.22 162.62 16.44 164.58 15.84 167.13 16.67 168.64 18.28 171.65 21.5 172.09 25.39 174.66 29.32 176.61 32.29 177.93 34.79 180.68 36.68 182.45 37.89 184.48 37.09 186.71 37.6 189 38.13 190.53 38.6 192.73 39.44 195.04 40.32 196.38 41.66 198.75 42.2 200.9 42.69 202.53 42.03 204.77 42.2 207.04 42.37 208.52 42.95 210.79 43.12 213.04 43.29 216.82 43.12 216.82 43.12" style="fill: none; stroke: #000; stroke-width: 2px" /></g><g transform="translate(84, 8)"><svg xmlns="http://www.w3.org/2000/svg" xmlns:xml="http://www.w3.org/XML/1998/namespace" xmlns:sodipodi="http://sodipodi.sourceforge.net/DTD/sodipodi-0.dtd" xmlns:inkscape="http://www.inkscape.org/namespaces/inkscape" xmlns:rdf="http://www.w3.org/1999/02/22-rdf-syntax-ns#" xmlns:cc="http://creativecommons.org/ns#" xmlns:dc="http://purl.org/dc/elements/1.1/" xmlns:osb="http://www.openswatchbook.org/uri/2009/osb" height="50px" width="50px" version="1.1" id="Layer_1" viewBox="0 0 512 512" xml:space="preserve" sodipodi:docname="arrow-down.svg" inkscape:version="1.0.1 (3bc2e813f5, 2020-09-07)" style="fill: #000000"><metadata id="metadata17"><rdf:RDF><cc:Work rdf:about=""><dc:format>image/svg+xml</dc:format><dc:type rdf:resource="http://purl.org/dc/dcmitype/StillImage" /><dc:title /></cc:Work></rdf:RDF></metadata><defs id="defs15"><linearGradient id="linearGradient2795" osb:paint="solid"><stop offset="0" id="stop2793" style="stop-color: #000000; stop-opacity: 1" /></linearGradient>
	

		
	
			
			
		</defs><g id="g2926"><ellipse id="path2911" cx="256" cy="256" rx="219.94637" ry="232.67055" style="font-variation-settings: 'wdth' 75, 'wght' 700; fill: #ffffff; fill-opacity: 1; stroke: none; stroke-width: 3.76614; stroke-linejoin: round; stroke-miterlimit: 4; stroke-dasharray: none; stroke-opacity: 1" /><path d="m 437.014,74.983 c -99.955,-99.978 -262.05,-99.978 -362.03,0.002 -99.979,99.956 -99.979,262.052 0,362.031 99.979,99.979 262.075,99.979 362.033,-0.002 99.978,-99.977 99.978,-262.073 -0.003,-362.031 z m -30.168,331.863 c -83.297,83.317 -218.375,83.317 -301.691,0 -83.316,-83.317 -83.317,-218.394 -0.002,-301.69 83.318,-83.318 218.396,-83.318 301.691,-0.003 83.318,83.299 83.318,218.377 0.002,301.693 z" id="path2" style="fill-opacity: 1; fill: #000000; stroke: #000000; stroke-opacity: 1" /><path d="m 358.408,354.086 c 0.226,-0.302 0.46,-0.597 0.67,-0.911 0.204,-0.305 0.381,-0.621 0.567,-0.933 0.17,-0.285 0.349,-0.563 0.506,-0.856 0.171,-0.319 0.315,-0.647 0.468,-0.972 0.144,-0.306 0.297,-0.607 0.427,-0.92 0.131,-0.316 0.236,-0.638 0.351,-0.958 0.121,-0.336 0.25,-0.668 0.354,-1.012 0.097,-0.32 0.168,-0.646 0.249,-0.969 0.089,-0.351 0.187,-0.698 0.258,-1.055 0.074,-0.375 0.118,-0.753 0.173,-1.13 0.044,-0.311 0.104,-0.617 0.135,-0.932 0.069,-0.701 0.106,-1.403 0.106,-2.107 V 213.329 c 0,-11.782 -9.551,-21.333 -21.333,-21.333 -11.782,0 -21.333,9.551 -21.333,21.333 v 76.497 L 185.756,155.578 c -8.331,-8.331 -21.839,-8.331 -30.17,0 -8.331,8.331 -8.331,21.839 0,30.17 l 134.248,134.248 h -76.497 c -11.782,0 -21.333,9.551 -21.333,21.333 0,11.782 9.551,21.333 21.333,21.333 h 128 c 0.703,0 1.405,-0.037 2.105,-0.106 0.316,-0.031 0.622,-0.09 0.933,-0.135 0.377,-0.054 0.755,-0.098 1.13,-0.172 0.358,-0.071 0.705,-0.169 1.056,-0.258 0.323,-0.081 0.648,-0.152 0.968,-0.249 0.345,-0.104 0.677,-0.234 1.014,-0.355 0.32,-0.115 0.642,-0.22 0.957,-0.35 0.314,-0.13 0.615,-0.283 0.921,-0.428 0.325,-0.153 0.653,-0.297 0.971,-0.468 0.293,-0.157 0.571,-0.336 0.855,-0.506 0.313,-0.187 0.629,-0.363 0.934,-0.568 0.314,-0.21 0.609,-0.443 0.91,-0.669 0.255,-0.191 0.518,-0.369 0.766,-0.573 0.535,-0.439 1.049,-0.903 1.539,-1.392 0.008,-0.007 0.016,-0.014 0.023,-0.021 0.007,-0.007 0.014,-0.016 0.021,-0.023 0.488,-0.49 0.952,-1.004 1.392,-1.539 0.208,-0.247 0.385,-0.509 0.576,-0.764 z" id="path4" /></g><sodipodi:namedview pagecolor="#ffffff" bordercolor="#666666" borderopacity="1" objecttolerance="10" gridtolerance="10" guidetolerance="10" id="namedview13" showgrid="false" inkscape:pageopacity="0" inkscape:pageshadow="2" inkscape:window-width="1920" inkscape:window-height="1027" inkscape:zoom="1.075" inkscape:cx="400" inkscape:cy="498.38293" inkscape:window-x="1072" inkscape:window-y="-8" inkscape:window-maximized="1" inkscape:current-layer="Layer_1" /></svg></g></svg>