<?xml version="1.0" encoding="utf-8"?><svg xmlns="http://www.w3.org/2000/svg" xmlns:xlink="http://www.w3.org/1999/xlink" version="1.1" width="218" height="66"><defs><clipPath id="ec"><rect x="0" y="0" width="218" height="66" /></clipPath><linearGradient id="eb" x1="0" x2="0" y1="0" y2="100%"><stop offset="0%" style="stop-color: red" /><stop offset="100%" style="stop-color: yellow" /></linearGradient></defs><rect width="100%" height="100%" style="fill: #eee; stroke-width: 0px" /><g style="clip-path: url(#ec)"><path d="M0.02 56L0.02 45.42C0.02 45.42 3.78 45.88 6.04 45.88 8.3 45.88 9.81 45.42 12.06 45.42 14.32 45.42 15.82 45.88 18.09 45.88 22.6 45.88 25.61 45.54 30.13 45.42 32.39 45.36 33.94 45.76 36.15 45.42 38.46 45.07 39.88 43.76 42.17 43.58 44.4 43.41 45.98 44.67 48.2 44.5 50.49 44.32 51.91 43.01 54.22 42.66 56.43 42.32 57.99 42.57 60.24 42.66 62.5 42.75 64.11 42.54 66.26 43.12 68.63 43.75 69.95 45.61 72.29 45.88 74.46 46.13 76.02 44.76 78.31 44.5 80.54 44.24 82.07 44.59 84.33 44.5 86.59 44.41 88.1 44.3 90.35 44.04 92.62 43.78 94.18 42.87 96.37 43.12 98.7 43.39 100.07 44.8 102.4 45.42 104.59 46.01 106.15 46.17 108.42 46.34 110.66 46.51 112.18 46.34 114.44 46.34 116.7 46.34 118.31 46.83 120.46 46.34 122.83 45.8 124.15 44.38 126.48 43.58 128.66 42.83 130.33 42.95 132.51 42.2 134.84 41.4 136.19 40.24 138.53 39.44 140.71 38.69 142.27 38.41 144.55 38.06 146.78 37.72 148.74 36.69 150.57 37.6 153.25 38.93 155.23 46.03 156.59 44.04 162 36.19 163.79 16.81 168.64 11.38 170.56 9.22 173.28 18.85 174.66 23.8 177.8 35.06 176.91 44.53 180.68 54.62 181.43 56.61 184.47 56.09 186.71 56 188.98 55.91 190.42 54.6 192.73 54.16 194.94 53.74 196.5 53.61 198.75 53.7 201.02 53.79 202.53 54.71 204.77 54.62 207.05 54.53 208.51 53.59 210.79 53.24 213.03 52.9 216.82 52.78 216.82 52.78L216.82 56z" style="fill: url(#eb); stroke: none" /><path d="M0.02 45.42C0.02 45.42 3.78 45.88 6.04 45.88 8.3 45.88 9.81 45.42 12.06 45.42 14.32 45.42 15.82 45.88 18.09 45.88 22.6 45.88 25.61 45.54 30.13 45.42 32.39 45.36 33.94 45.76 36.15 45.42 38.46 45.07 39.88 43.76 42.17 43.58 44.4 43.41 45.98 44.67 48.2 44.5 50.49 44.32 51.91 43.01 54.22 42.66 56.43 42.32 57.99 42.57 60.24 42.66 62.5 42.75 64.11 42.54 66.26 43.12 68.63 43.75 69.95 45.61 72.29 45.88 74.46 46.13 76.02 44.76 78.31 44.5 80.54 44.24 82.07 44.59 84.33 44.5 86.59 44.41 88.1 44.3 90.35 44.04 92.62 43.78 94.18 42.87 96.37 43.12 98.7 43.39 100.07 44.8 102.4 45.42 104.59 46.01 106.15 46.17 108.42 46.34 110.66 46.51 112.18 46.34 114.44 46.34 116.7 46.34 118.31 46.83 120.46 46.34 122.83 45.8 124.15 44.38 126.48 43.58 128.66 42.83 130.33 42.95 132.51 42.2 134.84 41.4 136.19 40.24 138.53 39.44 140.71 38.69 142.27 38.41 144.55 38.06 146.78 37.72 148.74 36.69 150.57 37.6 153.25 38.93 155.23 46.03 156.59 44.04 162 36.19 163.79 16.81 168.64 11.38 170.56 9.22 173.28 18.85 174.66 23.8 177.8 35.06 176.91 44.53 180.68 54.62 181.43 56.61 184.47 56.09 186.71 56 188.98 55.91 190.42 54.6 192.73 54.16 194.94 53.74 196.5 53.61 198.75 53.7 201.02 53.79 202.53 54.71 204.77 54.62 207.05 54.53 208.51 53.59 210.79 53.24 213.03 52.9 216.82 52.78 216.82 52.78" style="fill: none; stroke: #000; stroke-width: 2px" /></g><g transform="translate(84, 8)"><svg xmlns="http://www.w3.org/2000/svg" xmlns:xml="http://www.w3.org/XML/1998/namespace" xmlns:sodipodi="http://sodipodi.sourceforge.net/DTD/sodipodi-0.dtd" xmlns:inkscape="http://www.inkscape.org/namespaces/inkscape" xmlns:rdf="http://www.w3.org/1999/02/22-rdf-syntax-ns#" xmlns:cc="http://creativecommons.org/ns#" xmlns:dc="http://purl.org/dc/elements/1.1/" xmlns:osb="http://www.openswatchbook.org/uri/2009/osb" height="50px" width="50px" version="1.1" id="Layer_1" viewBox="0 0 512 512" xml:space="preserve" sodipodi:docname="arrow-up.svg" inkscape:version="1.0.1 (3bc2e813f5, 2020-09-07)" style="fill: #000000"><metadata id="metadata17"><rdf:RDF><cc:Work rdf:about=""><dc:format>image/svg+xml</dc:format><dc:type rdf:resource="http://purl.org/dc/dcmitype/StillImage" /><dc:title /></cc:Work></rdf:RDF></metadata><defs id="defs15"><linearGradient id="linearGradient2795" osb:paint="solid"><stop offset="0" id="stop2793" style="stop-color: #000000; stop-opacity: 1" /></linearGradient>
	

		
	
			
			
		</defs><g id="g2934"><ellipse id="path2911" cx="256" cy="256" rx="219.94637" ry="232.67055" style="font-variation-settings: 'wdth' 75, 'wght' 700; fill: #ffffff; fill-opacity: 1; stroke: none; stroke-width: 3.76614; stroke-linejoin: round; stroke-miterlimit: 4; stroke-dasharray: none; stroke-opacity: 1" /><path d="m 437.014,74.983 c -99.955,-99.978 -262.05,-99.978 -362.03,0.002 -99.979,99.956 -99.979,262.052 0,362.031 99.979,99.979 262.075,99.979 362.033,-0.002 99.978,-99.977 99.978,-262.073 -0.003,-362.031 z m -30.168,331.863 c -83.297,83.317 -218.375,83.317 -301.691,0 -83.316,-83.317 -83.317,-218.394 -0.002,-301.69 83.318,-83.318 218.396,-83.318 301.691,-0.003 83.318,83.299 83.318,218.377 0.002,301.693 z" id="path2" style="fill: #000000; fill-opacity: 1; stroke: #000000; stroke-opacity: 1" /><path d="m 358.408,157.90575 c 0.226,0.302 0.46,0.597 0.67,0.911 0.204,0.305 0.381,0.621 0.567,0.933 0.17,0.285 0.349,0.563 0.506,0.856 0.171,0.319 0.315,0.647 0.468,0.972 0.144,0.306 0.297,0.607 0.427,0.92 0.131,0.316 0.236,0.638 0.351,0.958 0.121,0.336 0.25,0.668 0.354,1.012 0.097,0.32 0.168,0.646 0.249,0.969 0.089,0.351 0.187,0.698 0.258,1.055 0.074,0.375 0.118,0.753 0.173,1.13 0.044,0.311 0.104,0.617 0.135,0.932 0.069,0.701 0.106,1.403 0.106,2.107 v 128.002 c 0,11.782 -9.551,21.333 -21.333,21.333 -11.782,0 -21.333,-9.551 -21.333,-21.333 v -76.497 l -134.25,134.248 c -8.331,8.331 -21.839,8.331 -30.17,0 -8.331,-8.331 -8.331,-21.839 0,-30.17 l 134.248,-134.248 h -76.497 c -11.782,0 -21.333,-9.551 -21.333,-21.333 0,-11.782 9.551,-21.333 21.333,-21.333 h 128 c 0.703,0 1.405,0.037 2.105,0.106 0.316,0.031 0.622,0.09 0.933,0.135 0.377,0.054 0.755,0.098 1.13,0.172 0.358,0.071 0.705,0.169 1.056,0.258 0.323,0.081 0.648,0.152 0.968,0.249 0.345,0.104 0.677,0.234 1.014,0.355 0.32,0.115 0.642,0.22 0.957,0.35 0.314,0.13 0.615,0.283 0.921,0.428 0.325,0.153 0.653,0.297 0.971,0.468 0.293,0.157 0.571,0.336 0.855,0.506 0.313,0.187 0.629,0.363 0.934,0.568 0.314,0.21 0.609,0.443 0.91,0.669 0.255,0.191 0.518,0.369 0.766,0.573 0.535,0.439 1.049,0.903 1.539,1.392 0.008,0.007 0.016,0.014 0.023,0.021 0.007,0.007 0.014,0.016 0.021,0.023 0.488,0.49 0.952,1.004 1.392,1.539 0.208,0.247 0.385,0.509 0.576,0.764 z" id="path4" /></g><sodipodi:namedview pagecolor="#ffffff" bordercolor="#666666" borderopacity="1" objecttolerance="10" gridtolerance="10" guidetolerance="10" id="namedview13" showgrid="false" inkscape:pageopacity="0" inkscape:pageshadow="2" inkscape:window-width="1920" inkscape:window-height="1027" inkscape:zoom="1.075" inkscape:cx="400" inkscape:cy="498.38293" inkscape:window-x="1072" inkscape:window-y="-8" inkscape:window-maximized="1" inkscape:current-layer="Layer_1" /></svg></g></svg>