<?xml version="1.0" encoding="UTF-8" standalone="no"?><svg version="1.1" width="218" height="66" xmlns="http://www.w3.org/2000/svg" xmlns:xlink="http://www.w3.org/1999/xlink"><defs><clipPath id="eu"><rect x="0" y="0" width="218" height="66"/></clipPath><linearGradient id="et" x1="0" x2="0" y1="0" y2="100%"><stop offset="0%" stop-color="red"/><stop offset="100%" stop-color="yellow"/></linearGradient></defs><rect width="100%" height="100%" fill="#eee" stroke-width="0px"/><g clip-path="url(#eu)"><path fill="url(#et)" d="M0.02 56L0.02 56C0.02 56 3.79 55.83 6.04 55.64 8.31 55.45 9.82 55.29 12.06 54.98 14.33 54.66 15.81 54.23 18.09 53.96 24.85 53.15 29.38 52.82 36.15 52.12 38.41 51.88 39.91 51.62 42.17 51.45 44.43 51.28 45.95 51.41 48.2 51.2 50.47 50.98 51.95 50.49 54.22 50.33 56.47 50.16 58.01 50.56 60.24 50.33 62.52 50.08 63.98 49.23 66.26 49.05 68.5 48.87 70.05 49.07 72.29 49.36 74.57 49.65 76.03 50.35 78.31 50.58 80.54 50.81 82.07 50.6 84.33 50.58 86.59 50.56 88.09 50.47 90.35 50.48 92.61 50.49 95.51 52.4 96.37 50.63 100.03 43.12 99.34 34.76 102.4 25.74 103.86 21.42 105.56 16.7 108.42 15.06 110.08 14.11 112.13 17.51 114.44 18.84 116.65 20.12 118.11 21.05 120.46 22.01 122.63 22.89 124.18 23.41 126.48 23.75 128.7 24.08 130.29 23.47 132.51 23.8 134.81 24.14 136.24 24.99 138.53 25.54 140.76 26.07 142.28 26.3 144.55 26.66 146.8 27.02 148.31 27.27 150.57 27.48 152.82 27.69 154.33 27.73 156.59 27.79 158.85 27.84 160.36 27.82 162.62 27.79 164.88 27.76 166.38 27.58 168.64 27.63 170.9 27.69 172.41 27.89 174.66 28.09 176.92 28.29 178.42 28.49 180.68 28.71 182.94 28.93 184.44 29.13 186.71 29.27 188.96 29.4 190.47 29.33 192.73 29.42 194.99 29.52 196.5 29.59 198.75 29.78 201.01 29.97 202.51 30.33 204.77 30.44 207.02 30.56 208.54 30.38 210.79 30.39 213.05 30.4 216.82 30.5 216.82 30.5L216.82 56z" stroke="none"/><path fill="none" stroke="#000" stroke-width="2px" d="M0.02 56C0.02 56 3.79 55.83 6.04 55.64 8.31 55.45 9.82 55.29 12.06 54.98 14.33 54.66 15.81 54.23 18.09 53.96 24.85 53.15 29.38 52.82 36.15 52.12 38.41 51.88 39.91 51.62 42.17 51.45 44.43 51.28 45.95 51.41 48.2 51.2 50.47 50.98 51.95 50.49 54.22 50.33 56.47 50.16 58.01 50.56 60.24 50.33 62.52 50.08 63.98 49.23 66.26 49.05 68.5 48.87 70.05 49.07 72.29 49.36 74.57 49.65 76.03 50.35 78.31 50.58 80.54 50.81 82.07 50.6 84.33 50.58 86.59 50.56 88.09 50.47 90.35 50.48 92.61 50.49 95.51 52.4 96.37 50.63 100.03 43.12 99.34 34.76 102.4 25.74 103.86 21.42 105.56 16.7 108.42 15.06 110.08 14.11 112.13 17.51 114.44 18.84 116.65 20.12 118.11 21.05 120.46 22.01 122.63 22.89 124.18 23.41 126.48 23.75 128.7 24.08 130.29 23.47 132.51 23.8 134.81 24.14 136.24 24.99 138.53 25.54 140.76 26.07 142.28 26.3 144.55 26.66 146.8 27.02 148.31 27.27 150.57 27.48 152.82 27.69 154.33 27.73 156.59 27.79 158.85 27.84 160.36 27.82 162.62 27.79 164.88 27.76 166.38 27.58 168.64 27.63 170.9 27.69 172.41 27.89 174.66 28.09 176.92 28.29 178.42 28.49 180.68 28.71 182.94 28.93 184.44 29.13 186.71 29.27 188.96 29.4 190.47 29.33 192.73 29.42 194.99 29.52 196.5 29.59 198.75 29.78 201.01 29.97 202.51 30.33 204.77 30.44 207.02 30.56 208.54 30.38 210.79 30.39 213.05 30.4 216.82 30.5 216.82 30.5"/></g></svg>
