<?xml version="1.0" encoding="UTF-8" standalone="no"?><svg version="1.1" width="218" height="66" xmlns="http://www.w3.org/2000/svg" xmlns:xlink="http://www.w3.org/1999/xlink"><defs><clipPath id="er"><rect x="0" y="0" width="218" height="66"/></clipPath><linearGradient id="eq" x1="0" x2="0" y1="0" y2="100%"><stop offset="0%" stop-color="red"/><stop offset="100%" stop-color="yellow"/></linearGradient></defs><rect width="100%" height="100%" fill="#eee" stroke-width="0px"/><g clip-path="url(#er)"><path fill="url(#eq)" d="M0.02 56L0.02 56C0.02 56 3.78 56 6.04 56 8.3 56 9.86 56.34 12.06 56 14.37 55.65 15.75 54.43 18.09 54.16 24.79 53.39 29.4 53.76 36.15 53.24 38.43 53.07 39.91 52.58 42.17 52.32 44.42 52.06 45.95 51.77 48.2 51.86 50.46 51.95 51.95 52.61 54.22 52.78 56.46 52.95 58 52.61 60.24 52.78 62.51 52.95 64 53.61 66.26 53.7 68.51 53.79 70.03 53.24 72.29 53.24 74.54 53.24 76.05 53.61 78.31 53.7 80.56 53.79 82.08 53.87 84.33 53.7 86.6 53.53 88.11 53.21 90.35 52.78 92.63 52.35 94.39 52.46 96.37 51.4 98.9 50.05 101.03 48.85 102.4 46.34 105.54 40.57 105.07 33.54 108.42 29.32 109.59 27.85 112.35 30.12 114.44 31.16 116.87 32.36 118.09 33.94 120.46 35.3 122.61 36.53 124.2 37.1 126.48 38.06 128.71 39 130.17 39.83 132.51 40.36 134.69 40.86 136.28 40.56 138.53 40.82 140.8 41.08 142.28 41.57 144.55 41.74 146.8 41.91 148.31 41.74 150.57 41.74 152.83 41.74 154.34 41.74 156.59 41.74 158.85 41.74 160.39 42 162.62 41.74 164.9 41.48 166.38 40.36 168.64 40.36 170.9 40.36 172.4 41.74 174.66 41.74 176.92 41.74 178.45 40.27 180.68 40.36 182.96 40.45 184.4 41.94 186.71 42.2 188.92 42.45 190.47 41.83 192.73 41.74 194.98 41.65 196.5 41.57 198.75 41.74 201.02 41.91 202.5 42.49 204.77 42.66 207.02 42.83 208.54 42.75 210.79 42.66 213.06 42.57 216.82 42.2 216.82 42.2L216.82 56z" stroke="none"/><path fill="none" stroke="#000" stroke-width="2px" d="M0.02 56C0.02 56 3.78 56 6.04 56 8.3 56 9.86 56.34 12.06 56 14.37 55.65 15.75 54.43 18.09 54.16 24.79 53.39 29.4 53.76 36.15 53.24 38.43 53.07 39.91 52.58 42.17 52.32 44.42 52.06 45.95 51.77 48.2 51.86 50.46 51.95 51.95 52.61 54.22 52.78 56.46 52.95 58 52.61 60.24 52.78 62.51 52.95 64 53.61 66.26 53.7 68.51 53.79 70.03 53.24 72.29 53.24 74.54 53.24 76.05 53.61 78.31 53.7 80.56 53.79 82.08 53.87 84.33 53.7 86.6 53.53 88.11 53.21 90.35 52.78 92.63 52.35 94.39 52.46 96.37 51.4 98.9 50.05 101.03 48.85 102.4 46.34 105.54 40.57 105.07 33.54 108.42 29.32 109.59 27.85 112.35 30.12 114.44 31.16 116.87 32.36 118.09 33.94 120.46 35.3 122.61 36.53 124.2 37.1 126.48 38.06 128.71 39 130.17 39.83 132.51 40.36 134.69 40.86 136.28 40.56 138.53 40.82 140.8 41.08 142.28 41.57 144.55 41.74 146.8 41.91 148.31 41.74 150.57 41.74 152.83 41.74 154.34 41.74 156.59 41.74 158.85 41.74 160.39 42 162.62 41.74 164.9 41.48 166.38 40.36 168.64 40.36 170.9 40.36 172.4 41.74 174.66 41.74 176.92 41.74 178.45 40.27 180.68 40.36 182.96 40.45 184.4 41.94 186.71 42.2 188.92 42.45 190.47 41.83 192.73 41.74 194.98 41.65 196.5 41.57 198.75 41.74 201.02 41.91 202.5 42.49 204.77 42.66 207.02 42.83 208.54 42.75 210.79 42.66 213.06 42.57 216.82 42.2 216.82 42.2"/></g></svg>
