<?xml version="1.0" encoding="UTF-8" standalone="no"?><svg version="1.1" width="218" height="66" xmlns="http://www.w3.org/2000/svg" xmlns:xlink="http://www.w3.org/1999/xlink"><defs><clipPath id="eP"><rect x="0" y="0" width="218" height="66"/></clipPath><linearGradient id="eO" x1="0" x2="0" y1="0" y2="100%"><stop offset="0%" stop-color="red"/><stop offset="100%" stop-color="yellow"/></linearGradient><symbol><g id="eQ"><circle fill="blue" r="3" cursor="crosshair"/></g></symbol></defs><rect width="100%" height="100%" fill="#eee" stroke-width="0px"/><g clip-path="url(#eP)"><path fill="url(#eO)" d="M13.43 56L13.43 11.34 24.61 11.53 46.97 11.34 58.15 11.34 69.33 11.53 80.51 11.34 91.69 11.34 102.87 11.34 114.05 11.53 125.23 11.34 136.41 11.34 147.59 11.34 158.77 11.34 169.95 11.53 181.13 11.34 192.31 11.15 203.49 11.34 214.66 11.34L214.66 56z" stroke="none"/><path fill="none" stroke="#000" stroke-width="2px" d="M13.43 11.34L24.61 11.53 46.97 11.34 58.15 11.34 69.33 11.53 80.51 11.34 91.69 11.34 102.87 11.34 114.05 11.53 125.23 11.34 136.41 11.34 147.59 11.34 158.77 11.34 169.95 11.53 181.13 11.34 192.31 11.15 203.49 11.34 214.66 11.34"/></g><use x="13.43" y="11.34" id="eS" xlink:href="#eQ"></use><use x="24.61" y="11.53" id="eT" xlink:href="#eQ"></use><use x="46.97" y="11.34" id="eU" xlink:href="#eQ"></use><use x="58.15" y="11.34" id="eV" xlink:href="#eQ"></use><use x="69.33" y="11.53" id="eW" xlink:href="#eQ"></use><use x="80.51" y="11.34" id="eX" xlink:href="#eQ"></use><use x="91.69" y="11.34" id="eY" xlink:href="#eQ"></use><use x="102.87" y="11.34" id="eZ" xlink:href="#eQ"></use><use x="114.05" y="11.53" id="e10" xlink:href="#eQ"></use><use x="125.23" y="11.34" id="e11" xlink:href="#eQ"></use><use x="136.41" y="11.34" id="e12" xlink:href="#eQ"></use><use x="147.59" y="11.34" id="e13" xlink:href="#eQ"></use><use x="158.77" y="11.34" id="e14" xlink:href="#eQ"></use><use x="169.95" y="11.53" id="e15" xlink:href="#eQ"></use><use x="181.13" y="11.34" id="e16" xlink:href="#eQ"></use><use x="192.31" y="11.15" id="e17" xlink:href="#eQ"></use><use x="203.49" y="11.34" id="e18" xlink:href="#eQ"></use><use x="214.66" y="11.34" id="e19" xlink:href="#eQ"></use></svg>
