<?xml version="1.0" encoding="UTF-8" standalone="no"?><svg version="1.1" width="218" height="66" xmlns="http://www.w3.org/2000/svg" xmlns:xlink="http://www.w3.org/1999/xlink"><defs><clipPath id="e3"><rect x="0" y="0" width="218" height="66"/></clipPath><linearGradient id="e2" x1="0" x2="0" y1="0" y2="100%"><stop offset="0%" stop-color="red"/><stop offset="100%" stop-color="yellow"/></linearGradient></defs><rect width="100%" height="100%" fill="#eee" stroke-width="0px"/><g clip-path="url(#e3)"><path fill="url(#e2)" d="M0.02 56L0.02 10C0.02 10 3.78 33 6.04 33 8.3 33 9.81 10 12.06 10 14.32 10 15.83 33 18.09 33 20.34 33 21.85 10 24.11 10 26.37 10 27.87 33 30.13 33 32.39 33 33.89 10 36.15 10 38.41 10 38.57 26.12 42.17 33 43.09 34.74 45.94 33 48.2 33 50.46 33 53.31 34.74 54.22 33 57.82 26.12 57.98 10 60.24 10 62.5 10 62.66 26.12 66.26 33 67.18 34.74 70.03 33 72.29 33 74.54 33 76.05 33 78.31 33 80.57 33 83.42 34.74 84.33 33 87.93 26.12 86.75 16.88 90.35 10 91.26 8.26 94.12 10 96.37 10 98.63 10 101.48 8.26 102.4 10 106 16.88 104.81 26.12 108.42 33 109.33 34.74 112.18 33 114.44 33 116.7 33 118.2 33 120.46 33 122.72 33 125.57 31.26 126.48 33 130.09 39.88 128.9 49.12 132.51 56 133.42 57.74 136.27 56 138.53 56 140.79 56 142.29 56 144.55 56 146.81 56 148.31 56 150.57 56 152.83 56 155.68 57.74 156.59 56 160.2 49.12 159.01 39.88 162.62 33 163.53 31.26 166.38 33 168.64 33 170.9 33 172.4 33 174.66 33 176.92 33 179.77 34.74 180.68 33 184.29 26.12 184.45 10 186.71 10 188.96 10 190.47 33 192.73 33 194.99 33 196.49 10 198.75 10 201.01 10 201.17 26.12 204.77 33 205.68 34.74 208.54 33 210.79 33 213.05 33 216.82 33 216.82 33L216.82 56z" stroke="none"/><path fill="none" stroke="#000" stroke-width="2px" d="M0.02 10C0.02 10 3.78 33 6.04 33 8.3 33 9.81 10 12.06 10 14.32 10 15.83 33 18.09 33 20.34 33 21.85 10 24.11 10 26.37 10 27.87 33 30.13 33 32.39 33 33.89 10 36.15 10 38.41 10 38.57 26.12 42.17 33 43.09 34.74 45.94 33 48.2 33 50.46 33 53.31 34.74 54.22 33 57.82 26.12 57.98 10 60.24 10 62.5 10 62.66 26.12 66.26 33 67.18 34.74 70.03 33 72.29 33 74.54 33 76.05 33 78.31 33 80.57 33 83.42 34.74 84.33 33 87.93 26.12 86.75 16.88 90.35 10 91.26 8.26 94.12 10 96.37 10 98.63 10 101.48 8.26 102.4 10 106 16.88 104.81 26.12 108.42 33 109.33 34.74 112.18 33 114.44 33 116.7 33 118.2 33 120.46 33 122.72 33 125.57 31.26 126.48 33 130.09 39.88 128.9 49.12 132.51 56 133.42 57.74 136.27 56 138.53 56 140.79 56 142.29 56 144.55 56 146.81 56 148.31 56 150.57 56 152.83 56 155.68 57.74 156.59 56 160.2 49.12 159.01 39.88 162.62 33 163.53 31.26 166.38 33 168.64 33 170.9 33 172.4 33 174.66 33 176.92 33 179.77 34.74 180.68 33 184.29 26.12 184.45 10 186.71 10 188.96 10 190.47 33 192.73 33 194.99 33 196.49 10 198.75 10 201.01 10 201.17 26.12 204.77 33 205.68 34.74 208.54 33 210.79 33 213.05 33 216.82 33 216.82 33"/></g></svg>
