<?xml version="1.0" encoding="UTF-8" standalone="no"?><svg version="1.1" width="218" height="66" xmlns="http://www.w3.org/2000/svg" xmlns:xlink="http://www.w3.org/1999/xlink"><defs><clipPath id="er"><rect x="0" y="0" width="218" height="66"/></clipPath><linearGradient id="eq" x1="0" x2="0" y1="0" y2="100%"><stop offset="0%" stop-color="red"/><stop offset="100%" stop-color="yellow"/></linearGradient><symbol><g id="es"><circle fill="blue" r="3" cursor="crosshair"/></g></symbol></defs><rect width="100%" height="100%" fill="#eee" stroke-width="0px"/><g clip-path="url(#er)"><path fill="url(#eq)" d="M10.08 56L10.08 19.14 21.26 19.2 32.44 19.26 43.62 19.43 54.8 19.6 65.98 19.66 77.16 19.55 88.34 19.72 99.52 19.49 110.7 19.72 121.88 19.72 133.05 19.78 144.23 20.06 155.41 20.64 166.59 22.02 177.77 21.73 188.95 18.74 200.13 21.27 211.31 21.96L211.31 56z" stroke="none"/><path fill="none" stroke="#000" stroke-width="2px" d="M10.08 19.14L21.26 19.2 32.44 19.26 43.62 19.43 54.8 19.6 65.98 19.66 77.16 19.55 88.34 19.72 99.52 19.49 110.7 19.72 121.88 19.72 133.05 19.78 144.23 20.06 155.41 20.64 166.59 22.02 177.77 21.73 188.95 18.74 200.13 21.27 211.31 21.96"/></g><use x="10.08" y="19.14" id="eu" xlink:href="#es"></use><use x="21.26" y="19.2" id="ev" xlink:href="#es"></use><use x="32.44" y="19.26" id="ew" xlink:href="#es"></use><use x="43.62" y="19.43" id="ex" xlink:href="#es"></use><use x="54.8" y="19.6" id="ey" xlink:href="#es"></use><use x="65.98" y="19.66" id="ez" xlink:href="#es"></use><use x="77.16" y="19.55" id="eA" xlink:href="#es"></use><use x="88.34" y="19.72" id="eB" xlink:href="#es"></use><use x="99.52" y="19.49" id="eC" xlink:href="#es"></use><use x="110.7" y="19.72" id="eD" xlink:href="#es"></use><use x="121.88" y="19.72" id="eE" xlink:href="#es"></use><use x="133.05" y="19.78" id="eF" xlink:href="#es"></use><use x="144.23" y="20.06" id="eG" xlink:href="#es"></use><use x="155.41" y="20.64" id="eH" xlink:href="#es"></use><use x="166.59" y="22.02" id="eI" xlink:href="#es"></use><use x="177.77" y="21.73" id="eJ" xlink:href="#es"></use><use x="188.95" y="18.74" id="eK" xlink:href="#es"></use><use x="200.13" y="21.27" id="eL" xlink:href="#es"></use><use x="211.31" y="21.96" id="eM" xlink:href="#es"></use></svg>
