<?xml version="1.0" encoding="UTF-8" standalone="no"?><svg version="1.1" width="218" height="66" xmlns="http://www.w3.org/2000/svg" xmlns:xlink="http://www.w3.org/1999/xlink"><defs><clipPath id="e2L"><rect x="0" y="0" width="218" height="66"/></clipPath><linearGradient id="e2K" x1="0" x2="0" y1="0" y2="100%"><stop offset="0%" stop-color="red"/><stop offset="100%" stop-color="yellow"/></linearGradient><symbol><g id="e2M"><circle fill="blue" r="3" cursor="crosshair"/></g></symbol></defs><rect width="100%" height="100%" fill="#eee" stroke-width="0px"/><g clip-path="url(#e2L)"><path fill="url(#e2K)" d="M13.43 56L13.43 11.44 24.61 11.67 35.79 11.67 46.97 11.67 58.15 11.67 69.33 11.49 80.51 11.84 91.69 11.78 102.87 11.73 114.05 12.19 125.23 12.47 136.41 13.74 147.59 12.53 158.77 12.99 169.95 12.24 181.13 12.99 192.31 12.99 203.49 13.51 214.66 13.22L214.66 56z" stroke="none"/><path fill="none" stroke="#000" stroke-width="2px" d="M13.43 11.44L24.61 11.67 35.79 11.67 46.97 11.67 58.15 11.67 69.33 11.49 80.51 11.84 91.69 11.78 102.87 11.73 114.05 12.19 125.23 12.47 136.41 13.74 147.59 12.53 158.77 12.99 169.95 12.24 181.13 12.99 192.31 12.99 203.49 13.51 214.66 13.22"/></g><use x="13.43" y="11.44" id="e2O" xlink:href="#e2M"></use><use x="24.61" y="11.67" id="e2P" xlink:href="#e2M"></use><use x="35.79" y="11.67" id="e2Q" xlink:href="#e2M"></use><use x="46.97" y="11.67" id="e2R" xlink:href="#e2M"></use><use x="58.15" y="11.67" id="e2S" xlink:href="#e2M"></use><use x="69.33" y="11.49" id="e2T" xlink:href="#e2M"></use><use x="80.51" y="11.84" id="e2U" xlink:href="#e2M"></use><use x="91.69" y="11.78" id="e2V" xlink:href="#e2M"></use><use x="102.87" y="11.73" id="e2W" xlink:href="#e2M"></use><use x="114.05" y="12.19" id="e2X" xlink:href="#e2M"></use><use x="125.23" y="12.47" id="e2Y" xlink:href="#e2M"></use><use x="136.41" y="13.74" id="e2Z" xlink:href="#e2M"></use><use x="147.59" y="12.53" id="e30" xlink:href="#e2M"></use><use x="158.77" y="12.99" id="e31" xlink:href="#e2M"></use><use x="169.95" y="12.24" id="e32" xlink:href="#e2M"></use><use x="181.13" y="12.99" id="e33" xlink:href="#e2M"></use><use x="192.31" y="12.99" id="e34" xlink:href="#e2M"></use><use x="203.49" y="13.51" id="e35" xlink:href="#e2M"></use><use x="214.66" y="13.22" id="e36" xlink:href="#e2M"></use></svg>
