<?xml version="1.0" encoding="UTF-8" standalone="no"?><svg version="1.1" width="218" height="66" xmlns="http://www.w3.org/2000/svg" xmlns:xlink="http://www.w3.org/1999/xlink"><defs><clipPath id="e3v"><rect x="0" y="0" width="218" height="66"/></clipPath><linearGradient id="e3u" x1="0" x2="0" y1="0" y2="100%"><stop offset="0%" stop-color="red"/><stop offset="100%" stop-color="yellow"/></linearGradient><symbol><g id="e3w"><circle fill="blue" r="3" cursor="crosshair"/></g></symbol></defs><rect width="100%" height="100%" fill="#eee" stroke-width="0px"/><g clip-path="url(#e3v)"><path fill="url(#e3u)" d="M13.43 56L13.43 15.43 24.61 16.17 35.79 17.04 46.97 16.55 58.15 16.16 69.33 15.81 80.51 15.5 91.69 15.35 102.87 15.05 114.05 14.82 125.23 14.72 136.41 14.52 147.59 14.5 158.77 14.43 169.95 14.34 181.13 14.4 192.31 15.96 203.49 15.97 214.66 15.15L214.66 56z" stroke="none"/><path fill="none" stroke="#000" stroke-width="2px" d="M13.43 15.43L24.61 16.17 35.79 17.04 46.97 16.55 58.15 16.16 69.33 15.81 80.51 15.5 91.69 15.35 102.87 15.05 114.05 14.82 125.23 14.72 136.41 14.52 147.59 14.5 158.77 14.43 169.95 14.34 181.13 14.4 192.31 15.96 203.49 15.97 214.66 15.15"/></g><use x="13.43" y="15.43" id="e3y" xlink:href="#e3w"></use><use x="24.61" y="16.17" id="e3z" xlink:href="#e3w"></use><use x="35.79" y="17.04" id="e3A" xlink:href="#e3w"></use><use x="46.97" y="16.55" id="e3B" xlink:href="#e3w"></use><use x="58.15" y="16.16" id="e3C" xlink:href="#e3w"></use><use x="69.33" y="15.81" id="e3D" xlink:href="#e3w"></use><use x="80.51" y="15.5" id="e3E" xlink:href="#e3w"></use><use x="91.69" y="15.35" id="e3F" xlink:href="#e3w"></use><use x="102.87" y="15.05" id="e3G" xlink:href="#e3w"></use><use x="114.05" y="14.82" id="e3H" xlink:href="#e3w"></use><use x="125.23" y="14.72" id="e3I" xlink:href="#e3w"></use><use x="136.41" y="14.52" id="e3J" xlink:href="#e3w"></use><use x="147.59" y="14.5" id="e3K" xlink:href="#e3w"></use><use x="158.77" y="14.43" id="e3L" xlink:href="#e3w"></use><use x="169.95" y="14.34" id="e3M" xlink:href="#e3w"></use><use x="181.13" y="14.4" id="e3N" xlink:href="#e3w"></use><use x="192.31" y="15.96" id="e3O" xlink:href="#e3w"></use><use x="203.49" y="15.97" id="e3P" xlink:href="#e3w"></use><use x="214.66" y="15.15" id="e3Q" xlink:href="#e3w"></use></svg>
