<?xml version="1.0" encoding="utf-8"?><svg xmlns="http://www.w3.org/2000/svg" xmlns:xlink="http://www.w3.org/1999/xlink" version="1.1" width="218" height="66"><defs><clipPath id="ei"><rect x="0" y="0" width="218" height="66" /></clipPath><linearGradient id="eh" x1="0" x2="0" y1="0" y2="100%"><stop offset="0%" style="stop-color: red" /><stop offset="100%" style="stop-color: yellow" /></linearGradient></defs><rect width="100%" height="100%" style="fill: #eee; stroke-width: 0px" /><g style="clip-path: url(#ei)"><path d="M0.02 56L0.02 27.56C0.02 27.56 3.76 25.93 6.04 25.05 8.27 24.2 9.74 23.45 12.06 22.96 14.26 22.51 15.85 22.86 18.09 22.55 20.37 22.23 21.92 21.98 24.11 21.29 26.43 20.56 27.81 19.51 30.13 18.78 32.32 18.1 33.96 18.21 36.15 17.53 38.48 16.8 39.84 15.34 42.17 15.02 44.35 14.72 45.97 16.01 48.2 15.85 50.49 15.7 51.93 14.34 54.22 14.18 56.45 14.03 57.97 14.94 60.24 15.02 62.49 15.1 64.07 14.29 66.26 14.6 68.58 14.92 70.03 15.91 72.29 16.69 74.54 17.48 76.14 17.8 78.31 18.78 80.65 19.84 82.22 20.66 84.33 22.13 86.73 23.8 87.89 25.6 90.35 27.15 92.4 28.43 94.12 28.71 96.37 29.65 98.63 30.6 100.2 31.1 102.4 32.16 104.72 33.29 106.23 35.66 108.42 35.51 110.75 35.35 111.97 32.36 114.44 31.33 116.49 30.47 118.41 31.34 120.46 30.49 122.93 29.46 124.07 27.57 126.48 26.31 128.58 25.22 130.21 24.86 132.51 24.22 134.72 23.6 136.31 23.58 138.53 22.96 140.83 22.33 142.29 21.66 144.55 20.87 146.81 20.09 148.25 19.1 150.57 18.78 152.77 18.48 154.42 19.58 156.59 19.2 158.94 18.79 160.28 17.34 162.62 16.69 164.8 16.09 166.37 15.93 168.64 15.85 170.89 15.78 172.41 16.35 174.66 16.27 176.93 16.19 178.5 16.04 180.68 15.44 183.02 14.79 184.36 13.5 186.71 12.93 188.88 12.4 191.06 11.41 192.73 12.51 195.58 14.39 197.67 17.23 198.75 20.87 202.19 32.44 201.02 42.14 204.77 53.07 205.54 55.31 208.44 55.67 210.79 56 212.96 56.3 216.82 54.75 216.82 54.75L216.82 56z" style="fill: url(#eh); stroke: none" /><path d="M0.02 27.56C0.02 27.56 3.76 25.93 6.04 25.05 8.27 24.2 9.74 23.45 12.06 22.96 14.26 22.51 15.85 22.86 18.09 22.55 20.37 22.23 21.92 21.98 24.11 21.29 26.43 20.56 27.81 19.51 30.13 18.78 32.32 18.1 33.96 18.21 36.15 17.53 38.48 16.8 39.84 15.34 42.17 15.02 44.35 14.72 45.97 16.01 48.2 15.85 50.49 15.7 51.93 14.34 54.22 14.18 56.45 14.03 57.97 14.94 60.24 15.02 62.49 15.1 64.07 14.29 66.26 14.6 68.58 14.92 70.03 15.91 72.29 16.69 74.54 17.48 76.14 17.8 78.31 18.78 80.65 19.84 82.22 20.66 84.33 22.13 86.73 23.8 87.89 25.6 90.35 27.15 92.4 28.43 94.12 28.71 96.37 29.65 98.63 30.6 100.2 31.1 102.4 32.16 104.72 33.29 106.23 35.66 108.42 35.51 110.75 35.35 111.97 32.36 114.44 31.33 116.49 30.47 118.41 31.34 120.46 30.49 122.93 29.46 124.07 27.57 126.48 26.31 128.58 25.22 130.21 24.86 132.51 24.22 134.72 23.6 136.31 23.58 138.53 22.96 140.83 22.33 142.29 21.66 144.55 20.87 146.81 20.09 148.25 19.1 150.57 18.78 152.77 18.48 154.42 19.58 156.59 19.2 158.94 18.79 160.28 17.34 162.62 16.69 164.8 16.09 166.37 15.93 168.64 15.85 170.89 15.78 172.41 16.35 174.66 16.27 176.93 16.19 178.5 16.04 180.68 15.44 183.02 14.79 184.36 13.5 186.71 12.93 188.88 12.4 191.06 11.41 192.73 12.51 195.58 14.39 197.67 17.23 198.75 20.87 202.19 32.44 201.02 42.14 204.77 53.07 205.54 55.31 208.44 55.67 210.79 56 212.96 56.3 216.82 54.75 216.82 54.75" style="fill: none; stroke: #000; stroke-width: 2px" /></g><svg xmlns="http://www.w3.org/2000/svg" xmlns:xml="http://www.w3.org/XML/1998/namespace" xmlns:sodipodi="http://sodipodi.sourceforge.net/DTD/sodipodi-0.dtd" xmlns:inkscape="http://www.inkscape.org/namespaces/inkscape" xmlns:rdf="http://www.w3.org/1999/02/22-rdf-syntax-ns#" xmlns:cc="http://creativecommons.org/ns#" xmlns:dc="http://purl.org/dc/elements/1.1/" xmlns:osb="http://www.openswatchbook.org/uri/2009/osb" height="50px" width="50px" version="1.1" id="Layer_1" viewBox="0 0 512 512" xml:space="preserve" sodipodi:docname="arrow-down.svg" inkscape:version="1.0.1 (3bc2e813f5, 2020-09-07)" style="fill: #000000"><metadata id="metadata17"><rdf:RDF><cc:Work rdf:about=""><dc:format>image/svg+xml</dc:format><dc:type rdf:resource="http://purl.org/dc/dcmitype/StillImage" /><dc:title /></cc:Work></rdf:RDF></metadata><defs id="defs15"><linearGradient id="linearGradient2795" osb:paint="solid"><stop offset="0" id="stop2793" style="stop-color: #000000; stop-opacity: 1" /></linearGradient>
	

		
	
			
			
		</defs><g id="g2926"><ellipse id="path2911" cx="256" cy="256" rx="219.94637" ry="232.67055" style="font-variation-settings: 'wdth' 75, 'wght' 700; fill: #ffffff; fill-opacity: 1; stroke: none; stroke-width: 3.76614; stroke-linejoin: round; stroke-miterlimit: 4; stroke-dasharray: none; stroke-opacity: 1" /><path d="m 437.014,74.983 c -99.955,-99.978 -262.05,-99.978 -362.03,0.002 -99.979,99.956 -99.979,262.052 0,362.031 99.979,99.979 262.075,99.979 362.033,-0.002 99.978,-99.977 99.978,-262.073 -0.003,-362.031 z m -30.168,331.863 c -83.297,83.317 -218.375,83.317 -301.691,0 -83.316,-83.317 -83.317,-218.394 -0.002,-301.69 83.318,-83.318 218.396,-83.318 301.691,-0.003 83.318,83.299 83.318,218.377 0.002,301.693 z" id="path2" style="fill-opacity: 1; fill: #000000; stroke: #000000; stroke-opacity: 1" /><path d="m 358.408,354.086 c 0.226,-0.302 0.46,-0.597 0.67,-0.911 0.204,-0.305 0.381,-0.621 0.567,-0.933 0.17,-0.285 0.349,-0.563 0.506,-0.856 0.171,-0.319 0.315,-0.647 0.468,-0.972 0.144,-0.306 0.297,-0.607 0.427,-0.92 0.131,-0.316 0.236,-0.638 0.351,-0.958 0.121,-0.336 0.25,-0.668 0.354,-1.012 0.097,-0.32 0.168,-0.646 0.249,-0.969 0.089,-0.351 0.187,-0.698 0.258,-1.055 0.074,-0.375 0.118,-0.753 0.173,-1.13 0.044,-0.311 0.104,-0.617 0.135,-0.932 0.069,-0.701 0.106,-1.403 0.106,-2.107 V 213.329 c 0,-11.782 -9.551,-21.333 -21.333,-21.333 -11.782,0 -21.333,9.551 -21.333,21.333 v 76.497 L 185.756,155.578 c -8.331,-8.331 -21.839,-8.331 -30.17,0 -8.331,8.331 -8.331,21.839 0,30.17 l 134.248,134.248 h -76.497 c -11.782,0 -21.333,9.551 -21.333,21.333 0,11.782 9.551,21.333 21.333,21.333 h 128 c 0.703,0 1.405,-0.037 2.105,-0.106 0.316,-0.031 0.622,-0.09 0.933,-0.135 0.377,-0.054 0.755,-0.098 1.13,-0.172 0.358,-0.071 0.705,-0.169 1.056,-0.258 0.323,-0.081 0.648,-0.152 0.968,-0.249 0.345,-0.104 0.677,-0.234 1.014,-0.355 0.32,-0.115 0.642,-0.22 0.957,-0.35 0.314,-0.13 0.615,-0.283 0.921,-0.428 0.325,-0.153 0.653,-0.297 0.971,-0.468 0.293,-0.157 0.571,-0.336 0.855,-0.506 0.313,-0.187 0.629,-0.363 0.934,-0.568 0.314,-0.21 0.609,-0.443 0.91,-0.669 0.255,-0.191 0.518,-0.369 0.766,-0.573 0.535,-0.439 1.049,-0.903 1.539,-1.392 0.008,-0.007 0.016,-0.014 0.023,-0.021 0.007,-0.007 0.014,-0.016 0.021,-0.023 0.488,-0.49 0.952,-1.004 1.392,-1.539 0.208,-0.247 0.385,-0.509 0.576,-0.764 z" id="path4" /></g><sodipodi:namedview pagecolor="#ffffff" bordercolor="#666666" borderopacity="1" objecttolerance="10" gridtolerance="10" guidetolerance="10" id="namedview13" showgrid="false" inkscape:pageopacity="0" inkscape:pageshadow="2" inkscape:window-width="1920" inkscape:window-height="1027" inkscape:zoom="1.075" inkscape:cx="400" inkscape:cy="498.38293" inkscape:window-x="1072" inkscape:window-y="-8" inkscape:window-maximized="1" inkscape:current-layer="Layer_1" /></svg></svg>