<?xml version="1.0" encoding="UTF-8" standalone="no"?><svg version="1.1" width="218" height="66" xmlns="http://www.w3.org/2000/svg" xmlns:xlink="http://www.w3.org/1999/xlink"><defs><clipPath id="e3x"><rect x="0" y="0" width="218" height="66"/></clipPath><linearGradient id="e3w" x1="0" x2="0" y1="0" y2="100%"><stop offset="0%" stop-color="red"/><stop offset="100%" stop-color="yellow"/></linearGradient><symbol><g id="e3y"><circle fill="blue" r="3" cursor="crosshair"/></g></symbol></defs><rect width="100%" height="100%" fill="#eee" stroke-width="0px"/><g clip-path="url(#e3x)"><path fill="url(#e3w)" d="M13.43 56L13.43 20.93 24.61 20.59 35.79 20.27 46.97 20 58.15 19.87 69.33 19.6 80.51 19.4 91.69 19.3 102.87 19.13 114.05 19.11 125.23 19.05 136.41 18.96 147.59 19.02 158.77 20.41 169.95 20.42 181.13 19.69 192.31 17.22 203.49 10.23 214.66 13.81L214.66 56z" stroke="none"/><path fill="none" stroke="#000" stroke-width="2px" d="M13.43 20.93L24.61 20.59 35.79 20.27 46.97 20 58.15 19.87 69.33 19.6 80.51 19.4 91.69 19.3 102.87 19.13 114.05 19.11 125.23 19.05 136.41 18.96 147.59 19.02 158.77 20.41 169.95 20.42 181.13 19.69 192.31 17.22 203.49 10.23 214.66 13.81"/></g><use x="13.43" y="20.93" id="e3A" xlink:href="#e3y"></use><use x="24.61" y="20.59" id="e3B" xlink:href="#e3y"></use><use x="35.79" y="20.27" id="e3C" xlink:href="#e3y"></use><use x="46.97" y="20" id="e3D" xlink:href="#e3y"></use><use x="58.15" y="19.87" id="e3E" xlink:href="#e3y"></use><use x="69.33" y="19.6" id="e3F" xlink:href="#e3y"></use><use x="80.51" y="19.4" id="e3G" xlink:href="#e3y"></use><use x="91.69" y="19.3" id="e3H" xlink:href="#e3y"></use><use x="102.87" y="19.13" id="e3I" xlink:href="#e3y"></use><use x="114.05" y="19.11" id="e3J" xlink:href="#e3y"></use><use x="125.23" y="19.05" id="e3K" xlink:href="#e3y"></use><use x="136.41" y="18.96" id="e3L" xlink:href="#e3y"></use><use x="147.59" y="19.02" id="e3M" xlink:href="#e3y"></use><use x="158.77" y="20.41" id="e3N" xlink:href="#e3y"></use><use x="169.95" y="20.42" id="e3O" xlink:href="#e3y"></use><use x="181.13" y="19.69" id="e3P" xlink:href="#e3y"></use><use x="192.31" y="17.22" id="e3Q" xlink:href="#e3y"></use><use x="203.49" y="10.23" id="e3R" xlink:href="#e3y"></use><use x="214.66" y="13.81" id="e3S" xlink:href="#e3y"></use></svg>
