<?xml version="1.0" encoding="UTF-8" standalone="no"?><svg version="1.1" width="218" height="66" xmlns="http://www.w3.org/2000/svg" xmlns:xlink="http://www.w3.org/1999/xlink"><defs><clipPath id="eo"><rect x="0" y="0" width="218" height="66"/></clipPath><linearGradient id="en" x1="0" x2="0" y1="0" y2="100%"><stop offset="0%" stop-color="red"/><stop offset="100%" stop-color="yellow"/></linearGradient></defs><rect width="100%" height="100%" fill="#eee" stroke-width="0px"/><g clip-path="url(#eo)"><path fill="url(#en)" d="M0.02 56L0.02 14.98C0.02 14.98 3.68 11.83 6.04 11.53 8.19 11.26 9.79 13.38 12.06 13.45 14.3 13.52 15.8 12.35 18.09 11.92 20.32 11.49 21.85 11.15 24.11 11.15 26.37 11.15 27.92 11.42 30.13 11.92 32.43 12.43 33.94 13.97 36.15 13.83 38.46 13.69 39.83 11.45 42.17 11.15 44.35 10.87 45.92 12.16 48.2 12.3 50.44 12.44 52.04 11.57 54.22 11.92 56.55 12.29 58.01 14.29 60.24 14.22 62.52 14.14 63.9 11.98 66.26 11.53 68.42 11.12 70.04 11.63 72.29 11.92 74.56 12.21 76.04 12.99 78.31 13.07 80.55 13.14 82.06 12.52 84.33 12.3 86.58 12.09 88.1 11.85 90.35 11.92 92.62 11.99 94.16 12.19 96.37 12.68 98.68 13.2 100.09 14.16 102.4 14.6 104.6 15.02 106.19 15.2 108.42 14.98 110.71 14.76 112.15 13.67 114.44 13.45 116.67 13.24 118.2 13.83 120.46 13.83 122.72 13.83 124.24 13.31 126.48 13.45 128.76 13.59 130.25 14.17 132.51 14.6 134.76 15.03 136.25 15.46 138.53 15.75 140.77 16.04 142.31 15.85 144.55 16.13 146.83 16.42 148.62 17.97 150.57 17.28 153.14 16.38 155.9 9.69 156.59 11.92 160.42 24.21 158.64 41.44 162.62 56 163.16 57.97 167.5 57.59 168.64 56 172.02 51.27 171.64 45 174.66 39.13 176.16 36.23 178 34.24 180.68 32.62 182.52 31.51 184.51 32.41 186.71 31.85 189.03 31.26 190.4 30.14 192.73 29.55 194.92 28.99 196.49 29.07 198.75 28.78 201.01 28.5 202.51 28.02 204.77 28.02 207.03 28.02 208.55 28.43 210.79 28.78 213.06 29.14 216.82 29.93 216.82 29.93L216.82 56z" stroke="none"/><path fill="none" stroke="#000" stroke-width="2px" d="M0.02 14.98C0.02 14.98 3.68 11.83 6.04 11.53 8.19 11.26 9.79 13.38 12.06 13.45 14.3 13.52 15.8 12.35 18.09 11.92 20.32 11.49 21.85 11.15 24.11 11.15 26.37 11.15 27.92 11.42 30.13 11.92 32.43 12.43 33.94 13.97 36.15 13.83 38.46 13.69 39.83 11.45 42.17 11.15 44.35 10.87 45.92 12.16 48.2 12.3 50.44 12.44 52.04 11.57 54.22 11.92 56.55 12.29 58.01 14.29 60.24 14.22 62.52 14.14 63.9 11.98 66.26 11.53 68.42 11.12 70.04 11.63 72.29 11.92 74.56 12.21 76.04 12.99 78.31 13.07 80.55 13.14 82.06 12.52 84.33 12.3 86.58 12.09 88.1 11.85 90.35 11.92 92.62 11.99 94.16 12.19 96.37 12.68 98.68 13.2 100.09 14.16 102.4 14.6 104.6 15.02 106.19 15.2 108.42 14.98 110.71 14.76 112.15 13.67 114.44 13.45 116.67 13.24 118.2 13.83 120.46 13.83 122.72 13.83 124.24 13.31 126.48 13.45 128.76 13.59 130.25 14.17 132.51 14.6 134.76 15.03 136.25 15.46 138.53 15.75 140.77 16.04 142.31 15.85 144.55 16.13 146.83 16.42 148.62 17.97 150.57 17.28 153.14 16.38 155.9 9.69 156.59 11.92 160.42 24.21 158.64 41.44 162.62 56 163.16 57.97 167.5 57.59 168.64 56 172.02 51.27 171.64 45 174.66 39.13 176.16 36.23 178 34.24 180.68 32.62 182.52 31.51 184.51 32.41 186.71 31.85 189.03 31.26 190.4 30.14 192.73 29.55 194.92 28.99 196.49 29.07 198.75 28.78 201.01 28.5 202.51 28.02 204.77 28.02 207.03 28.02 208.55 28.43 210.79 28.78 213.06 29.14 216.82 29.93 216.82 29.93"/></g></svg>
