<?xml version="1.0" encoding="UTF-8" standalone="no"?><svg version="1.1" width="218" height="66" xmlns="http://www.w3.org/2000/svg" xmlns:xlink="http://www.w3.org/1999/xlink"><defs><clipPath id="e9"><rect x="0" y="0" width="218" height="66"/></clipPath><linearGradient id="e8" x1="0" x2="0" y1="0" y2="100%"><stop offset="0%" stop-color="red"/><stop offset="100%" stop-color="yellow"/></linearGradient></defs><rect width="100%" height="100%" fill="#eee" stroke-width="0px"/><g clip-path="url(#e9)"><path fill="url(#e8)" d="M0.02 56L0.02 14.6C0.02 14.6 3.78 14.6 6.04 14.6 8.3 14.6 9.81 14.6 12.06 14.6 14.32 14.6 15.83 14.51 18.09 14.6 20.35 14.69 21.85 14.97 24.11 15.06 26.36 15.15 27.88 15.15 30.13 15.06 32.39 14.97 33.89 14.69 36.15 14.6 38.41 14.51 39.92 14.6 42.17 14.6 44.43 14.6 45.94 14.6 48.2 14.6 50.46 14.6 51.96 14.6 54.22 14.6 56.48 14.6 57.99 14.51 60.24 14.6 62.5 14.69 64 14.97 66.26 15.06 68.52 15.15 70.03 15.15 72.29 15.06 74.55 14.97 76.05 14.69 78.31 14.6 80.56 14.51 82.07 14.51 84.33 14.6 86.59 14.69 88.09 15.06 90.35 15.06 92.61 15.06 94.12 14.6 96.37 14.6 98.63 14.6 100.13 15.06 102.4 15.06 106.91 15.06 109.92 14.72 114.44 14.6 116.7 14.54 118.21 14.51 120.46 14.6 122.72 14.69 124.22 14.97 126.48 15.06 128.74 15.15 130.25 15.15 132.51 15.06 134.77 14.97 136.27 14.6 138.53 14.6 140.79 14.6 142.29 14.97 144.55 15.06 146.81 15.15 148.32 15.15 150.57 15.06 152.83 14.97 154.34 14.6 156.59 14.6 158.85 14.6 160.36 15.06 162.62 15.06 164.88 15.06 166.38 14.69 168.64 14.6 170.89 14.51 172.41 14.69 174.66 14.6 176.92 14.51 178.43 14.05 180.68 14.14 182.95 14.23 184.43 14.89 186.71 15.06 188.95 15.23 190.47 15.06 192.73 15.06 194.99 15.06 198.18 13.11 198.75 15.06 202.69 28.46 202.07 52.9 204.77 56 206.59 58.08 207.43 38.5 210.79 28.86 211.94 25.56 216.82 21.5 216.82 21.5L216.82 56z" stroke="none"/><path fill="none" stroke="#000" stroke-width="2px" d="M0.02 14.6C0.02 14.6 3.78 14.6 6.04 14.6 8.3 14.6 9.81 14.6 12.06 14.6 14.32 14.6 15.83 14.51 18.09 14.6 20.35 14.69 21.85 14.97 24.11 15.06 26.36 15.15 27.88 15.15 30.13 15.06 32.39 14.97 33.89 14.69 36.15 14.6 38.41 14.51 39.92 14.6 42.17 14.6 44.43 14.6 45.94 14.6 48.2 14.6 50.46 14.6 51.96 14.6 54.22 14.6 56.48 14.6 57.99 14.51 60.24 14.6 62.5 14.69 64 14.97 66.26 15.06 68.52 15.15 70.03 15.15 72.29 15.06 74.55 14.97 76.05 14.69 78.31 14.6 80.56 14.51 82.07 14.51 84.33 14.6 86.59 14.69 88.09 15.06 90.35 15.06 92.61 15.06 94.12 14.6 96.37 14.6 98.63 14.6 100.13 15.06 102.4 15.06 106.91 15.06 109.92 14.72 114.44 14.6 116.7 14.54 118.21 14.51 120.46 14.6 122.72 14.69 124.22 14.97 126.48 15.06 128.74 15.15 130.25 15.15 132.51 15.06 134.77 14.97 136.27 14.6 138.53 14.6 140.79 14.6 142.29 14.97 144.55 15.06 146.81 15.15 148.32 15.15 150.57 15.06 152.83 14.97 154.34 14.6 156.59 14.6 158.85 14.6 160.36 15.06 162.62 15.06 164.88 15.06 166.38 14.69 168.64 14.6 170.89 14.51 172.41 14.69 174.66 14.6 176.92 14.51 178.43 14.05 180.68 14.14 182.95 14.23 184.43 14.89 186.71 15.06 188.95 15.23 190.47 15.06 192.73 15.06 194.99 15.06 198.18 13.11 198.75 15.06 202.69 28.46 202.07 52.9 204.77 56 206.59 58.08 207.43 38.5 210.79 28.86 211.94 25.56 216.82 21.5 216.82 21.5"/></g></svg>
