<?xml version="1.0" encoding="UTF-8" standalone="no"?><svg version="1.1" width="218" height="66" xmlns="http://www.w3.org/2000/svg" xmlns:xlink="http://www.w3.org/1999/xlink"><defs><clipPath id="e1Z"><rect x="0" y="0" width="218" height="66"/></clipPath><linearGradient id="e1Y" x1="0" x2="0" y1="0" y2="100%"><stop offset="0%" stop-color="red"/><stop offset="100%" stop-color="yellow"/></linearGradient><symbol><g id="e20"><circle fill="blue" r="3" cursor="crosshair"/></g></symbol></defs><rect width="100%" height="100%" fill="#eee" stroke-width="0px"/><g clip-path="url(#e1Z)"><path fill="url(#e1Y)" d="M10.08 56L10.08 19.14 21.26 19.2 32.44 19.55 43.62 19.66 54.8 19.72 65.98 19.66 77.16 19.72 88.34 19.83 99.52 19.83 110.7 19.89 121.88 20.01 133.05 20.18 144.23 19.49 155.41 19.55 166.59 18.8 177.77 17.59 188.95 18.22 200.13 18.45 211.31 17.36L211.31 56z" stroke="none"/><path fill="none" stroke="#000" stroke-width="2px" d="M10.08 19.14L21.26 19.2 32.44 19.55 43.62 19.66 54.8 19.72 65.98 19.66 77.16 19.72 88.34 19.83 99.52 19.83 110.7 19.89 121.88 20.01 133.05 20.18 144.23 19.49 155.41 19.55 166.59 18.8 177.77 17.59 188.95 18.22 200.13 18.45 211.31 17.36"/></g><use x="10.08" y="19.14" id="e22" xlink:href="#e20"></use><use x="21.26" y="19.2" id="e23" xlink:href="#e20"></use><use x="32.44" y="19.55" id="e24" xlink:href="#e20"></use><use x="43.62" y="19.66" id="e25" xlink:href="#e20"></use><use x="54.8" y="19.72" id="e26" xlink:href="#e20"></use><use x="65.98" y="19.66" id="e27" xlink:href="#e20"></use><use x="77.16" y="19.72" id="e28" xlink:href="#e20"></use><use x="88.34" y="19.83" id="e29" xlink:href="#e20"></use><use x="99.52" y="19.83" id="e2a" xlink:href="#e20"></use><use x="110.7" y="19.89" id="e2b" xlink:href="#e20"></use><use x="121.88" y="20.01" id="e2c" xlink:href="#e20"></use><use x="133.05" y="20.18" id="e2d" xlink:href="#e20"></use><use x="144.23" y="19.49" id="e2e" xlink:href="#e20"></use><use x="155.41" y="19.55" id="e2f" xlink:href="#e20"></use><use x="166.59" y="18.8" id="e2g" xlink:href="#e20"></use><use x="177.77" y="17.59" id="e2h" xlink:href="#e20"></use><use x="188.95" y="18.22" id="e2i" xlink:href="#e20"></use><use x="200.13" y="18.45" id="e2j" xlink:href="#e20"></use><use x="211.31" y="17.36" id="e2k" xlink:href="#e20"></use></svg>
