<?xml version="1.0" encoding="UTF-8" standalone="no"?><svg version="1.1" width="218" height="66" xmlns="http://www.w3.org/2000/svg" xmlns:xlink="http://www.w3.org/1999/xlink"><defs><clipPath id="e6"><rect x="0" y="0" width="218" height="66"/></clipPath><linearGradient id="e5" x1="0" x2="0" y1="0" y2="100%"><stop offset="0%" stop-color="red"/><stop offset="100%" stop-color="yellow"/></linearGradient></defs><rect width="100%" height="100%" fill="#eee" stroke-width="0px"/><g clip-path="url(#e6)"><path fill="url(#e5)" d="M0.02 56L0.02 34.53C0.02 34.53 2.84 46.6 6.04 49.87 7.36 51.2 9.68 47.41 12.06 46.8 14.19 46.26 15.96 46.26 18.09 46.8 20.47 47.41 21.72 49.26 24.11 49.87 26.24 50.41 27.87 49.87 30.13 49.87 32.39 49.87 35.28 51.64 36.15 49.87 39.8 42.44 39.62 26.64 42.17 25.33 44.13 24.34 45.32 41.53 48.2 43.73 49.83 44.98 51.96 37.98 54.22 34.53 56.48 31.08 57.98 25.33 60.24 25.33 62.5 25.33 64 34.53 66.26 34.53 68.52 34.53 69.49 26.76 72.29 25.33 74 24.46 76.99 29.74 78.31 28.4 81.51 25.14 81.62 14.45 84.33 13.07 86.14 12.15 87.55 19.42 90.35 22.27 92.07 24.02 95.06 23.33 96.37 25.33 99.58 30.23 99.43 38.4 102.4 40.67 103.94 41.85 105.89 35.18 108.42 34.53 110.41 34.03 112.72 35.85 114.44 37.6 117.24 40.45 117.93 43.57 120.46 46.8 122.44 49.32 123.96 51 126.48 52.93 128.47 54.45 130.12 55.39 132.51 56 134.63 56.54 136.4 56.54 138.53 56 140.92 55.39 143.06 54.84 144.55 52.93 147.57 49.09 147.44 43.86 150.57 40.67 151.95 39.26 154.34 40.67 156.59 40.67 158.85 40.67 161.24 42.07 162.62 40.67 165.75 37.47 166.77 33.16 168.64 28.4 171.29 21.66 171.53 13.19 174.66 10 176.05 8.59 178.42 16.13 180.68 16.13 182.94 16.13 184.72 9.5 186.71 10 189.24 10.65 190.71 15.61 192.73 19.2 195.23 23.66 195.73 29.16 198.75 31.47 200.24 32.61 203.28 27.26 204.77 28.4 207.79 30.71 208.02 39.25 210.79 40.67 212.54 41.55 216.82 34.53 216.82 34.53L216.82 56z" stroke="none"/><path fill="none" stroke="#000" stroke-width="2px" d="M0.02 34.53C0.02 34.53 2.84 46.6 6.04 49.87 7.36 51.2 9.68 47.41 12.06 46.8 14.19 46.26 15.96 46.26 18.09 46.8 20.47 47.41 21.72 49.26 24.11 49.87 26.24 50.41 27.87 49.87 30.13 49.87 32.39 49.87 35.28 51.64 36.15 49.87 39.8 42.44 39.62 26.64 42.17 25.33 44.13 24.34 45.32 41.53 48.2 43.73 49.83 44.98 51.96 37.98 54.22 34.53 56.48 31.08 57.98 25.33 60.24 25.33 62.5 25.33 64 34.53 66.26 34.53 68.52 34.53 69.49 26.76 72.29 25.33 74 24.46 76.99 29.74 78.31 28.4 81.51 25.14 81.62 14.45 84.33 13.07 86.14 12.15 87.55 19.42 90.35 22.27 92.07 24.02 95.06 23.33 96.37 25.33 99.58 30.23 99.43 38.4 102.4 40.67 103.94 41.85 105.89 35.18 108.42 34.53 110.41 34.03 112.72 35.85 114.44 37.6 117.24 40.45 117.93 43.57 120.46 46.8 122.44 49.32 123.96 51 126.48 52.93 128.47 54.45 130.12 55.39 132.51 56 134.63 56.54 136.4 56.54 138.53 56 140.92 55.39 143.06 54.84 144.55 52.93 147.57 49.09 147.44 43.86 150.57 40.67 151.95 39.26 154.34 40.67 156.59 40.67 158.85 40.67 161.24 42.07 162.62 40.67 165.75 37.47 166.77 33.16 168.64 28.4 171.29 21.66 171.53 13.19 174.66 10 176.05 8.59 178.42 16.13 180.68 16.13 182.94 16.13 184.72 9.5 186.71 10 189.24 10.65 190.71 15.61 192.73 19.2 195.23 23.66 195.73 29.16 198.75 31.47 200.24 32.61 203.28 27.26 204.77 28.4 207.79 30.71 208.02 39.25 210.79 40.67 212.54 41.55 216.82 34.53 216.82 34.53"/></g></svg>
