<?xml version="1.0" encoding="UTF-8" standalone="no"?><svg version="1.1" width="218" height="66" xmlns="http://www.w3.org/2000/svg" xmlns:xlink="http://www.w3.org/1999/xlink"><defs><clipPath id="e37"><rect x="0" y="0" width="218" height="66"/></clipPath><linearGradient id="e36" x1="0" x2="0" y1="0" y2="100%"><stop offset="0%" stop-color="red"/><stop offset="100%" stop-color="yellow"/></linearGradient><symbol><g id="e38"><circle fill="blue" r="3" cursor="crosshair"/></g></symbol></defs><rect width="100%" height="100%" fill="#eee" stroke-width="0px"/><g clip-path="url(#e37)"><path fill="url(#e36)" d="M13.43 56L13.43 12.83 24.61 13.05 35.79 13.02 46.97 12.98 58.15 13 69.33 12.93 80.51 12.86 91.69 12.93 102.87 12.86 114.05 12.85 125.23 12.79 136.41 12.83 147.59 12.85 158.77 12.81 169.95 12.76 181.13 12.79 192.31 12.95 203.49 12.96 214.66 12.96L214.66 56z" stroke="none"/><path fill="none" stroke="#000" stroke-width="2px" d="M13.43 12.83L24.61 13.05 35.79 13.02 46.97 12.98 58.15 13 69.33 12.93 80.51 12.86 91.69 12.93 102.87 12.86 114.05 12.85 125.23 12.79 136.41 12.83 147.59 12.85 158.77 12.81 169.95 12.76 181.13 12.79 192.31 12.95 203.49 12.96 214.66 12.96"/></g><use x="13.43" y="12.83" id="e3a" xlink:href="#e38"></use><use x="24.61" y="13.05" id="e3b" xlink:href="#e38"></use><use x="35.79" y="13.02" id="e3c" xlink:href="#e38"></use><use x="46.97" y="12.98" id="e3d" xlink:href="#e38"></use><use x="58.15" y="13" id="e3e" xlink:href="#e38"></use><use x="69.33" y="12.93" id="e3f" xlink:href="#e38"></use><use x="80.51" y="12.86" id="e3g" xlink:href="#e38"></use><use x="91.69" y="12.93" id="e3h" xlink:href="#e38"></use><use x="102.87" y="12.86" id="e3i" xlink:href="#e38"></use><use x="114.05" y="12.85" id="e3j" xlink:href="#e38"></use><use x="125.23" y="12.79" id="e3k" xlink:href="#e38"></use><use x="136.41" y="12.83" id="e3l" xlink:href="#e38"></use><use x="147.59" y="12.85" id="e3m" xlink:href="#e38"></use><use x="158.77" y="12.81" id="e3n" xlink:href="#e38"></use><use x="169.95" y="12.76" id="e3o" xlink:href="#e38"></use><use x="181.13" y="12.79" id="e3p" xlink:href="#e38"></use><use x="192.31" y="12.95" id="e3q" xlink:href="#e38"></use><use x="203.49" y="12.96" id="e3r" xlink:href="#e38"></use><use x="214.66" y="12.96" id="e3s" xlink:href="#e38"></use></svg>
