<?xml version="1.0" encoding="UTF-8" standalone="no"?><svg version="1.1" width="218" height="66" xmlns="http://www.w3.org/2000/svg" xmlns:xlink="http://www.w3.org/1999/xlink"><defs><clipPath id="e6"><rect x="0" y="0" width="218" height="66"/></clipPath><linearGradient id="e5" x1="0" x2="0" y1="0" y2="100%"><stop offset="0%" stop-color="red"/><stop offset="100%" stop-color="yellow"/></linearGradient></defs><rect width="100%" height="100%" fill="#eee" stroke-width="0px"/><g clip-path="url(#e6)"><path fill="url(#e5)" d="M0.02 56L0.02 31.65C0.02 31.65 4.03 34.8 6.04 37.06 8.55 39.88 9.56 42.36 12.06 45.18 14.07 47.43 15.83 50.59 18.09 50.59 20.34 50.59 21.62 45.74 24.11 45.18 26.14 44.72 28.35 48.68 30.13 47.88 32.86 46.65 33.42 40.99 36.15 39.76 37.94 38.96 39.81 41.94 42.17 42.47 44.33 42.95 46.04 42.95 48.2 42.47 50.56 41.94 52.19 41.13 54.22 39.76 56.71 38.09 57.65 35.52 60.24 34.35 62.17 33.49 64.79 35.68 66.26 34.35 69.3 31.62 69.34 25.52 72.29 23.53 73.86 22.47 76.74 27.29 78.31 26.24 81.25 24.25 81.6 16.64 84.33 15.41 86.11 14.61 88.09 20.82 90.35 20.82 92.61 20.82 95.27 13.68 96.37 15.41 99.79 20.78 99.18 35.42 102.4 39.76 103.69 41.51 105.59 33.55 108.42 31.65 110.1 30.51 113.13 30.18 114.44 31.65 117.65 35.25 118 40.2 120.46 45.18 122.52 49.34 123.54 54.01 126.48 56 128.05 57.06 130.14 53.82 132.51 53.29 134.66 52.81 136.37 52.81 138.53 53.29 140.89 53.82 143.3 57.4 144.55 56 147.82 52.33 147.22 44.28 150.57 39.76 151.74 38.19 154.34 39.76 156.59 39.76 158.85 39.76 161.31 41.23 162.62 39.76 165.83 36.16 166.38 31.31 168.64 26.24 170.9 21.16 171.74 14.67 174.66 12.71 176.26 11.63 178.09 16.95 180.68 18.12 182.61 18.98 184.55 17.63 186.71 18.12 189.07 18.65 191.7 18.75 192.73 20.82 196.22 27.88 196.35 41.93 198.75 42.47 200.87 42.95 202.36 24.07 204.77 23.53 206.87 23.06 207.72 37 210.79 39.76 212.23 41.06 216.82 34.35 216.82 34.35L216.82 56z" stroke="none"/><path fill="none" stroke="#000" stroke-width="2px" d="M0.02 31.65C0.02 31.65 4.03 34.8 6.04 37.06 8.55 39.88 9.56 42.36 12.06 45.18 14.07 47.43 15.83 50.59 18.09 50.59 20.34 50.59 21.62 45.74 24.11 45.18 26.14 44.72 28.35 48.68 30.13 47.88 32.86 46.65 33.42 40.99 36.15 39.76 37.94 38.96 39.81 41.94 42.17 42.47 44.33 42.95 46.04 42.95 48.2 42.47 50.56 41.94 52.19 41.13 54.22 39.76 56.71 38.09 57.65 35.52 60.24 34.35 62.17 33.49 64.79 35.68 66.26 34.35 69.3 31.62 69.34 25.52 72.29 23.53 73.86 22.47 76.74 27.29 78.31 26.24 81.25 24.25 81.6 16.64 84.33 15.41 86.11 14.61 88.09 20.82 90.35 20.82 92.61 20.82 95.27 13.68 96.37 15.41 99.79 20.78 99.18 35.42 102.4 39.76 103.69 41.51 105.59 33.55 108.42 31.65 110.1 30.51 113.13 30.18 114.44 31.65 117.65 35.25 118 40.2 120.46 45.18 122.52 49.34 123.54 54.01 126.48 56 128.05 57.06 130.14 53.82 132.51 53.29 134.66 52.81 136.37 52.81 138.53 53.29 140.89 53.82 143.3 57.4 144.55 56 147.82 52.33 147.22 44.28 150.57 39.76 151.74 38.19 154.34 39.76 156.59 39.76 158.85 39.76 161.31 41.23 162.62 39.76 165.83 36.16 166.38 31.31 168.64 26.24 170.9 21.16 171.74 14.67 174.66 12.71 176.26 11.63 178.09 16.95 180.68 18.12 182.61 18.98 184.55 17.63 186.71 18.12 189.07 18.65 191.7 18.75 192.73 20.82 196.22 27.88 196.35 41.93 198.75 42.47 200.87 42.95 202.36 24.07 204.77 23.53 206.87 23.06 207.72 37 210.79 39.76 212.23 41.06 216.82 34.35 216.82 34.35"/></g></svg>
