<?xml version="1.0" encoding="UTF-8" standalone="no"?><svg version="1.1" width="218" height="66" xmlns="http://www.w3.org/2000/svg" xmlns:xlink="http://www.w3.org/1999/xlink"><defs><clipPath id="ei"><rect x="0" y="0" width="218" height="66"/></clipPath><linearGradient id="eh" x1="0" x2="0" y1="0" y2="100%"><stop offset="0%" stop-color="red"/><stop offset="100%" stop-color="yellow"/></linearGradient></defs><rect width="100%" height="100%" fill="#eee" stroke-width="0px"/><g clip-path="url(#ei)"><path fill="url(#eh)" d="M0.02 56L0.02 29.55C0.02 29.55 3.8 29.3 6.04 28.97 8.32 28.65 9.86 27.61 12.06 27.82 14.38 28.05 15.87 30.23 18.09 30.12 20.38 30.02 21.94 27.04 24.11 27.25 26.46 27.47 27.82 31.16 30.13 31.28 32.34 31.38 33.75 28.74 36.15 27.82 38.27 27.02 40.01 27.4 42.17 26.68 44.53 25.89 45.87 24.69 48.2 23.8 50.38 22.96 51.99 22.82 54.22 22.07 56.51 21.31 57.91 20.33 60.24 19.78 62.43 19.25 64.16 19.9 66.26 19.2 68.68 18.39 69.87 16.56 72.29 15.75 74.39 15.05 76.06 15.5 78.31 15.18 80.58 14.85 82.1 13.92 84.33 14.03 86.61 14.13 88.05 15.42 90.35 15.75 92.57 16.07 94.16 16.07 96.37 15.75 98.68 15.42 100.09 14.35 102.4 14.03 104.61 13.71 106.28 13.51 108.42 14.03 110.79 14.59 112.11 16.68 114.44 16.9 116.63 17.11 118.52 14.53 120.46 15.18 123.04 16.04 123.86 19.67 126.48 20.93 128.38 21.83 130.27 21.14 132.51 20.93 134.78 20.71 136.33 19.56 138.53 19.78 140.84 20 142.74 22.85 144.55 22.07 147.25 20.91 147.87 15.76 150.57 14.6 152.39 13.82 155.58 14.9 156.59 16.9 160.09 23.74 159.25 30.95 162.62 38.18 163.77 40.65 166.17 42.18 168.64 42.78 170.68 43.26 173.4 39.66 174.66 41.05 177.91 44.62 177.49 52.8 180.68 56 182.01 57.33 184.41 54.11 186.71 53.12 188.92 52.17 190.39 51.44 192.73 50.82 199.43 49.07 203.98 47.94 210.79 46.8 213.01 46.43 216.82 46.8 216.82 46.8L216.82 56z" stroke="none"/><path fill="none" stroke="#000" stroke-width="2px" d="M0.02 29.55C0.02 29.55 3.8 29.3 6.04 28.97 8.32 28.65 9.86 27.61 12.06 27.82 14.38 28.05 15.87 30.23 18.09 30.12 20.38 30.02 21.94 27.04 24.11 27.25 26.46 27.47 27.82 31.16 30.13 31.28 32.34 31.38 33.75 28.74 36.15 27.82 38.27 27.02 40.01 27.4 42.17 26.68 44.53 25.89 45.87 24.69 48.2 23.8 50.38 22.96 51.99 22.82 54.22 22.07 56.51 21.31 57.91 20.33 60.24 19.78 62.43 19.25 64.16 19.9 66.26 19.2 68.68 18.39 69.87 16.56 72.29 15.75 74.39 15.05 76.06 15.5 78.31 15.18 80.58 14.85 82.1 13.92 84.33 14.03 86.61 14.13 88.05 15.42 90.35 15.75 92.57 16.07 94.16 16.07 96.37 15.75 98.68 15.42 100.09 14.35 102.4 14.03 104.61 13.71 106.28 13.51 108.42 14.03 110.79 14.59 112.11 16.68 114.44 16.9 116.63 17.11 118.52 14.53 120.46 15.18 123.04 16.04 123.86 19.67 126.48 20.93 128.38 21.83 130.27 21.14 132.51 20.93 134.78 20.71 136.33 19.56 138.53 19.78 140.84 20 142.74 22.85 144.55 22.07 147.25 20.91 147.87 15.76 150.57 14.6 152.39 13.82 155.58 14.9 156.59 16.9 160.09 23.74 159.25 30.95 162.62 38.18 163.77 40.65 166.17 42.18 168.64 42.78 170.68 43.26 173.4 39.66 174.66 41.05 177.91 44.62 177.49 52.8 180.68 56 182.01 57.33 184.41 54.11 186.71 53.12 188.92 52.17 190.39 51.44 192.73 50.82 199.43 49.07 203.98 47.94 210.79 46.8 213.01 46.43 216.82 46.8 216.82 46.8"/></g></svg>
