<?xml version="1.0" encoding="UTF-8" standalone="no"?><svg version="1.1" width="218" height="66" xmlns="http://www.w3.org/2000/svg" xmlns:xlink="http://www.w3.org/1999/xlink"><defs><clipPath id="e1d"><rect x="0" y="0" width="218" height="66"/></clipPath><linearGradient id="e1c" x1="0" x2="0" y1="0" y2="100%"><stop offset="0%" stop-color="red"/><stop offset="100%" stop-color="yellow"/></linearGradient><symbol><g id="e1e"><circle fill="blue" r="3" cursor="crosshair"/></g></symbol></defs><rect width="100%" height="100%" fill="#eee" stroke-width="0px"/><g clip-path="url(#e1d)"><path fill="url(#e1c)" d="M10.08 56L10.08 18.28 21.26 18.4 32.44 18.51 43.62 18.8 54.8 18.8 65.98 19.03 77.16 19.14 88.34 19.26 99.52 19.14 110.7 19.43 121.88 19.37 133.05 19.49 144.23 19.32 155.41 19.26 166.59 19.32 177.77 19.14 188.95 18.34 200.13 16.96 211.31 15.29L211.31 56z" stroke="none"/><path fill="none" stroke="#000" stroke-width="2px" d="M10.08 18.28L21.26 18.4 32.44 18.51 43.62 18.8 54.8 18.8 65.98 19.03 77.16 19.14 88.34 19.26 99.52 19.14 110.7 19.43 121.88 19.37 133.05 19.49 144.23 19.32 155.41 19.26 166.59 19.32 177.77 19.14 188.95 18.34 200.13 16.96 211.31 15.29"/></g><use x="10.08" y="18.28" id="e1g" xlink:href="#e1e"></use><use x="21.26" y="18.4" id="e1h" xlink:href="#e1e"></use><use x="32.44" y="18.51" id="e1i" xlink:href="#e1e"></use><use x="43.62" y="18.8" id="e1j" xlink:href="#e1e"></use><use x="54.8" y="18.8" id="e1k" xlink:href="#e1e"></use><use x="65.98" y="19.03" id="e1l" xlink:href="#e1e"></use><use x="77.16" y="19.14" id="e1m" xlink:href="#e1e"></use><use x="88.34" y="19.26" id="e1n" xlink:href="#e1e"></use><use x="99.52" y="19.14" id="e1o" xlink:href="#e1e"></use><use x="110.7" y="19.43" id="e1p" xlink:href="#e1e"></use><use x="121.88" y="19.37" id="e1q" xlink:href="#e1e"></use><use x="133.05" y="19.49" id="e1r" xlink:href="#e1e"></use><use x="144.23" y="19.32" id="e1s" xlink:href="#e1e"></use><use x="155.41" y="19.26" id="e1t" xlink:href="#e1e"></use><use x="166.59" y="19.32" id="e1u" xlink:href="#e1e"></use><use x="177.77" y="19.14" id="e1v" xlink:href="#e1e"></use><use x="188.95" y="18.34" id="e1w" xlink:href="#e1e"></use><use x="200.13" y="16.96" id="e1x" xlink:href="#e1e"></use><use x="211.31" y="15.29" id="e1y" xlink:href="#e1e"></use></svg>
