<?xml version="1.0" encoding="UTF-8" standalone="no"?><svg version="1.1" width="218" height="66" xmlns="http://www.w3.org/2000/svg" xmlns:xlink="http://www.w3.org/1999/xlink"><defs><clipPath id="eP"><rect x="0" y="0" width="218" height="66"/></clipPath><linearGradient id="eO" x1="0" x2="0" y1="0" y2="100%"><stop offset="0%" stop-color="red"/><stop offset="100%" stop-color="yellow"/></linearGradient><symbol><g id="eQ"><circle fill="blue" r="3" cursor="crosshair"/></g></symbol></defs><rect width="100%" height="100%" fill="#eee" stroke-width="0px"/><g clip-path="url(#eP)"><path fill="url(#eO)" d="M10.08 56L10.08 11.34 21.26 11.34 32.44 11.34 43.62 11.34 54.8 11.34 65.98 11.53 77.16 11.34 88.34 11.34 99.52 11.34 110.7 11.34 121.88 11.34 133.05 11.53 144.23 11.34 155.41 11.34 166.59 11.15 177.77 11.34 188.95 11.15 200.13 10.77 211.31 10.77L211.31 56z" stroke="none"/><path fill="none" stroke="#000" stroke-width="2px" d="M10.08 11.34L21.26 11.34 32.44 11.34 43.62 11.34 54.8 11.34 65.98 11.53 77.16 11.34 88.34 11.34 99.52 11.34 110.7 11.34 121.88 11.34 133.05 11.53 144.23 11.34 155.41 11.34 166.59 11.15 177.77 11.34 188.95 11.15 200.13 10.77 211.31 10.77"/></g><use x="10.08" y="11.34" id="eS" xlink:href="#eQ"></use><use x="21.26" y="11.34" id="eT" xlink:href="#eQ"></use><use x="32.44" y="11.34" id="eU" xlink:href="#eQ"></use><use x="43.62" y="11.34" id="eV" xlink:href="#eQ"></use><use x="54.8" y="11.34" id="eW" xlink:href="#eQ"></use><use x="65.98" y="11.53" id="eX" xlink:href="#eQ"></use><use x="77.16" y="11.34" id="eY" xlink:href="#eQ"></use><use x="88.34" y="11.34" id="eZ" xlink:href="#eQ"></use><use x="99.52" y="11.34" id="e10" xlink:href="#eQ"></use><use x="110.7" y="11.34" id="e11" xlink:href="#eQ"></use><use x="121.88" y="11.34" id="e12" xlink:href="#eQ"></use><use x="133.05" y="11.53" id="e13" xlink:href="#eQ"></use><use x="144.23" y="11.34" id="e14" xlink:href="#eQ"></use><use x="155.41" y="11.34" id="e15" xlink:href="#eQ"></use><use x="166.59" y="11.15" id="e16" xlink:href="#eQ"></use><use x="177.77" y="11.34" id="e17" xlink:href="#eQ"></use><use x="188.95" y="11.15" id="e18" xlink:href="#eQ"></use><use x="200.13" y="10.77" id="e19" xlink:href="#eQ"></use><use x="211.31" y="10.77" id="e1a" xlink:href="#eQ"></use></svg>
