<?xml version="1.0" encoding="UTF-8" standalone="no"?><svg version="1.1" width="218" height="66" xmlns="http://www.w3.org/2000/svg" xmlns:xlink="http://www.w3.org/1999/xlink"><defs><clipPath id="e1z"><rect x="0" y="0" width="218" height="66"/></clipPath><linearGradient id="e1y" x1="0" x2="0" y1="0" y2="100%"><stop offset="0%" stop-color="red"/><stop offset="100%" stop-color="yellow"/></linearGradient><symbol><g id="e1A"><circle fill="blue" r="3" cursor="crosshair"/></g></symbol></defs><rect width="100%" height="100%" fill="#eee" stroke-width="0px"/><g clip-path="url(#e1z)"><path fill="url(#e1y)" d="M13.43 56L13.43 14.77 24.61 14.26 35.79 14.26 46.97 14.26 58.15 14.26 69.33 14.26 80.51 14.26 91.69 14.43 102.87 14.43 114.05 14.26 125.23 14.26 136.41 14.6 147.59 14.43 158.77 14.43 169.95 14.77 181.13 14.43 192.31 14.26 203.49 13.92 214.66 13.58L214.66 56z" stroke="none"/><path fill="none" stroke="#000" stroke-width="2px" d="M13.43 14.77L24.61 14.26 35.79 14.26 46.97 14.26 58.15 14.26 69.33 14.26 80.51 14.26 91.69 14.43 102.87 14.43 114.05 14.26 125.23 14.26 136.41 14.6 147.59 14.43 158.77 14.43 169.95 14.77 181.13 14.43 192.31 14.26 203.49 13.92 214.66 13.58"/></g><use x="13.43" y="14.77" id="e1C" xlink:href="#e1A"></use><use x="24.61" y="14.26" id="e1D" xlink:href="#e1A"></use><use x="35.79" y="14.26" id="e1E" xlink:href="#e1A"></use><use x="46.97" y="14.26" id="e1F" xlink:href="#e1A"></use><use x="58.15" y="14.26" id="e1G" xlink:href="#e1A"></use><use x="69.33" y="14.26" id="e1H" xlink:href="#e1A"></use><use x="80.51" y="14.26" id="e1I" xlink:href="#e1A"></use><use x="91.69" y="14.43" id="e1J" xlink:href="#e1A"></use><use x="102.87" y="14.43" id="e1K" xlink:href="#e1A"></use><use x="114.05" y="14.26" id="e1L" xlink:href="#e1A"></use><use x="125.23" y="14.26" id="e1M" xlink:href="#e1A"></use><use x="136.41" y="14.6" id="e1N" xlink:href="#e1A"></use><use x="147.59" y="14.43" id="e1O" xlink:href="#e1A"></use><use x="158.77" y="14.43" id="e1P" xlink:href="#e1A"></use><use x="169.95" y="14.77" id="e1Q" xlink:href="#e1A"></use><use x="181.13" y="14.43" id="e1R" xlink:href="#e1A"></use><use x="192.31" y="14.26" id="e1S" xlink:href="#e1A"></use><use x="203.49" y="13.92" id="e1T" xlink:href="#e1A"></use><use x="214.66" y="13.58" id="e1U" xlink:href="#e1A"></use></svg>
