<?xml version="1.0" encoding="UTF-8" standalone="no"?><svg version="1.1" width="218" height="66" xmlns="http://www.w3.org/2000/svg" xmlns:xlink="http://www.w3.org/1999/xlink"><defs><clipPath id="e1X"><rect x="0" y="0" width="218" height="66"/></clipPath><linearGradient id="e1W" x1="0" x2="0" y1="0" y2="100%"><stop offset="0%" stop-color="red"/><stop offset="100%" stop-color="yellow"/></linearGradient><symbol><g id="e1Y"><circle fill="blue" r="3" cursor="crosshair"/></g></symbol></defs><rect width="100%" height="100%" fill="#eee" stroke-width="0px"/><g clip-path="url(#e1X)"><path fill="url(#e1W)" d="M13.43 56L13.43 20.29 24.61 18.91 35.79 19.2 46.97 19.14 58.15 19.14 69.33 19.43 80.51 19.55 91.69 19.6 102.87 19.78 114.05 19.89 125.23 20.06 136.41 20.01 147.59 20.01 158.77 19.89 169.95 19.6 181.13 19.66 192.31 19.43 203.49 18.51 214.66 17.94L214.66 56z" stroke="none"/><path fill="none" stroke="#000" stroke-width="2px" d="M13.43 20.29L24.61 18.91 35.79 19.2 46.97 19.14 58.15 19.14 69.33 19.43 80.51 19.55 91.69 19.6 102.87 19.78 114.05 19.89 125.23 20.06 136.41 20.01 147.59 20.01 158.77 19.89 169.95 19.6 181.13 19.66 192.31 19.43 203.49 18.51 214.66 17.94"/></g><use x="13.43" y="20.29" id="e20" xlink:href="#e1Y"></use><use x="24.61" y="18.91" id="e21" xlink:href="#e1Y"></use><use x="35.79" y="19.2" id="e22" xlink:href="#e1Y"></use><use x="46.97" y="19.14" id="e23" xlink:href="#e1Y"></use><use x="58.15" y="19.14" id="e24" xlink:href="#e1Y"></use><use x="69.33" y="19.43" id="e25" xlink:href="#e1Y"></use><use x="80.51" y="19.55" id="e26" xlink:href="#e1Y"></use><use x="91.69" y="19.6" id="e27" xlink:href="#e1Y"></use><use x="102.87" y="19.78" id="e28" xlink:href="#e1Y"></use><use x="114.05" y="19.89" id="e29" xlink:href="#e1Y"></use><use x="125.23" y="20.06" id="e2a" xlink:href="#e1Y"></use><use x="136.41" y="20.01" id="e2b" xlink:href="#e1Y"></use><use x="147.59" y="20.01" id="e2c" xlink:href="#e1Y"></use><use x="158.77" y="19.89" id="e2d" xlink:href="#e1Y"></use><use x="169.95" y="19.6" id="e2e" xlink:href="#e1Y"></use><use x="181.13" y="19.66" id="e2f" xlink:href="#e1Y"></use><use x="192.31" y="19.43" id="e2g" xlink:href="#e1Y"></use><use x="203.49" y="18.51" id="e2h" xlink:href="#e1Y"></use><use x="214.66" y="17.94" id="e2i" xlink:href="#e1Y"></use></svg>
