<?xml version="1.0" encoding="UTF-8" standalone="no"?><svg version="1.1" width="218" height="66" xmlns="http://www.w3.org/2000/svg" xmlns:xlink="http://www.w3.org/1999/xlink"><defs><clipPath id="e3"><rect x="0" y="0" width="218" height="66"/></clipPath><linearGradient id="e2" x1="0" x2="0" y1="0" y2="100%"><stop offset="0%" stop-color="red"/><stop offset="100%" stop-color="yellow"/></linearGradient><symbol><g id="e4"><circle fill="blue" r="3" cursor="crosshair"/></g></symbol></defs><rect width="100%" height="100%" fill="#eee" stroke-width="0px"/><g clip-path="url(#e3)"><path fill="url(#e2)" d="M13.43 56L13.43 11.72 24.61 11.53 35.79 11.34 46.97 11.34 58.15 11.34 69.33 11.34 80.51 11.34 91.69 11.34 102.87 11.34 114.05 11.34 125.23 11.34 136.41 11.34 147.59 11.34 158.77 11.34 169.95 11.53 181.13 11.72 192.31 12.11 203.49 12.3 214.66 12.11L214.66 56z" stroke="none"/><path fill="none" stroke="#000" stroke-width="2px" d="M13.43 11.72L24.61 11.53 35.79 11.34 46.97 11.34 58.15 11.34 69.33 11.34 80.51 11.34 91.69 11.34 102.87 11.34 114.05 11.34 125.23 11.34 136.41 11.34 147.59 11.34 158.77 11.34 169.95 11.53 181.13 11.72 192.31 12.11 203.49 12.3 214.66 12.11"/></g><use x="13.43" y="11.72" id="e6" xlink:href="#e4"></use><use x="24.61" y="11.53" id="e7" xlink:href="#e4"></use><use x="35.79" y="11.34" id="e8" xlink:href="#e4"></use><use x="46.97" y="11.34" id="e9" xlink:href="#e4"></use><use x="58.15" y="11.34" id="ea" xlink:href="#e4"></use><use x="69.33" y="11.34" id="eb" xlink:href="#e4"></use><use x="80.51" y="11.34" id="ec" xlink:href="#e4"></use><use x="91.69" y="11.34" id="ed" xlink:href="#e4"></use><use x="102.87" y="11.34" id="ee" xlink:href="#e4"></use><use x="114.05" y="11.34" id="ef" xlink:href="#e4"></use><use x="125.23" y="11.34" id="eg" xlink:href="#e4"></use><use x="136.41" y="11.34" id="eh" xlink:href="#e4"></use><use x="147.59" y="11.34" id="ei" xlink:href="#e4"></use><use x="158.77" y="11.34" id="ej" xlink:href="#e4"></use><use x="169.95" y="11.53" id="ek" xlink:href="#e4"></use><use x="181.13" y="11.72" id="el" xlink:href="#e4"></use><use x="192.31" y="12.11" id="em" xlink:href="#e4"></use><use x="203.49" y="12.3" id="en" xlink:href="#e4"></use><use x="214.66" y="12.11" id="eo" xlink:href="#e4"></use></svg>
