<?xml version="1.0" encoding="utf-8"?><svg xmlns="http://www.w3.org/2000/svg" xmlns:xlink="http://www.w3.org/1999/xlink" version="1.1" width="218" height="66"><defs><clipPath id="ec"><rect x="0" y="0" width="218" height="66" /></clipPath><linearGradient id="eb" x1="0" x2="0" y1="0" y2="100%"><stop offset="0%" style="stop-color: red" /><stop offset="100%" style="stop-color: yellow" /></linearGradient></defs><rect width="100%" height="100%" style="fill: #eee; stroke-width: 0px" /><g style="clip-path: url(#ec)"><path d="M0.02 56L0.02 34.08C0.02 34.08 3.82 33.56 6.04 33.81 8.34 34.07 9.77 35.07 12.06 35.44 14.28 35.78 15.85 35.91 18.09 35.71 20.37 35.5 21.84 34.4 24.11 34.35 26.36 34.3 27.85 35.23 30.13 35.44 32.37 35.64 33.9 35.54 36.15 35.44 38.42 35.33 39.91 34.94 42.17 34.89 44.43 34.84 45.95 34.96 48.2 35.16 50.46 35.37 51.95 35.82 54.22 35.98 56.47 36.13 57.98 35.98 60.24 35.98 62.5 35.98 64.01 36.03 66.26 35.98 68.52 35.93 70.04 35.91 72.29 35.71 74.55 35.5 76.05 34.89 78.31 34.89 80.57 34.89 82.06 35.55 84.33 35.71 86.58 35.86 88.1 35.81 90.35 35.71 92.61 35.6 94.13 35.06 96.37 35.16 98.65 35.27 100.12 36.04 102.4 36.25 106.89 36.65 109.99 37.12 114.44 36.79 116.77 36.61 118.17 35.05 120.46 34.89 122.69 34.74 124.21 35.72 126.48 35.98 128.73 36.23 130.25 36.3 132.51 36.25 134.77 36.2 136.27 35.81 138.53 35.71 140.78 35.6 142.3 35.55 144.55 35.71 146.82 35.86 148.31 36.52 150.57 36.52 152.83 36.52 154.33 35.76 156.59 35.71 158.85 35.66 160.36 36.2 162.62 36.25 164.87 36.3 166.39 36.18 168.64 35.98 170.91 35.77 172.4 35.16 174.66 35.16 176.92 35.16 178.56 36.41 180.68 35.98 183.08 35.49 184.3 33.38 186.71 32.73 188.82 32.16 190.54 32.34 192.73 32.73 195.05 33.15 197.78 36.54 198.75 34.89 202.3 28.83 203.2 9.42 204.77 12.16 207.72 17.33 206.89 42.94 210.79 56 211.41 58.06 216.82 52.48 216.82 52.48L216.82 56z" style="fill: url(#eb); stroke: none" /><path d="M0.02 34.08C0.02 34.08 3.82 33.56 6.04 33.81 8.34 34.07 9.77 35.07 12.06 35.44 14.28 35.78 15.85 35.91 18.09 35.71 20.37 35.5 21.84 34.4 24.11 34.35 26.36 34.3 27.85 35.23 30.13 35.44 32.37 35.64 33.9 35.54 36.15 35.44 38.42 35.33 39.91 34.94 42.17 34.89 44.43 34.84 45.95 34.96 48.2 35.16 50.46 35.37 51.95 35.82 54.22 35.98 56.47 36.13 57.98 35.98 60.24 35.98 62.5 35.98 64.01 36.03 66.26 35.98 68.52 35.93 70.04 35.91 72.29 35.71 74.55 35.5 76.05 34.89 78.31 34.89 80.57 34.89 82.06 35.55 84.33 35.71 86.58 35.86 88.1 35.81 90.35 35.71 92.61 35.6 94.13 35.06 96.37 35.16 98.65 35.27 100.12 36.04 102.4 36.25 106.89 36.65 109.99 37.12 114.44 36.79 116.77 36.61 118.17 35.05 120.46 34.89 122.69 34.74 124.21 35.72 126.48 35.98 128.73 36.23 130.25 36.3 132.51 36.25 134.77 36.2 136.27 35.81 138.53 35.71 140.78 35.6 142.3 35.55 144.55 35.71 146.82 35.86 148.31 36.52 150.57 36.52 152.83 36.52 154.33 35.76 156.59 35.71 158.85 35.66 160.36 36.2 162.62 36.25 164.87 36.3 166.39 36.18 168.64 35.98 170.91 35.77 172.4 35.16 174.66 35.16 176.92 35.16 178.56 36.41 180.68 35.98 183.08 35.49 184.3 33.38 186.71 32.73 188.82 32.16 190.54 32.34 192.73 32.73 195.05 33.15 197.78 36.54 198.75 34.89 202.3 28.83 203.2 9.42 204.77 12.16 207.72 17.33 206.89 42.94 210.79 56 211.41 58.06 216.82 52.48 216.82 52.48" style="fill: none; stroke: #000; stroke-width: 2px" /></g><svg xmlns="http://www.w3.org/2000/svg" xmlns:xml="http://www.w3.org/XML/1998/namespace" xmlns:sodipodi="http://sodipodi.sourceforge.net/DTD/sodipodi-0.dtd" xmlns:inkscape="http://www.inkscape.org/namespaces/inkscape" xmlns:rdf="http://www.w3.org/1999/02/22-rdf-syntax-ns#" xmlns:cc="http://creativecommons.org/ns#" xmlns:dc="http://purl.org/dc/elements/1.1/" xmlns:osb="http://www.openswatchbook.org/uri/2009/osb" height="50px" width="50px" version="1.1" id="Layer_1" viewBox="0 0 512 512" xml:space="preserve" sodipodi:docname="arrow-down.svg" inkscape:version="1.0.1 (3bc2e813f5, 2020-09-07)" style="fill: #000000"><metadata id="metadata17"><rdf:RDF><cc:Work rdf:about=""><dc:format>image/svg+xml</dc:format><dc:type rdf:resource="http://purl.org/dc/dcmitype/StillImage" /><dc:title /></cc:Work></rdf:RDF></metadata><defs id="defs15"><linearGradient id="linearGradient2795" osb:paint="solid"><stop offset="0" id="stop2793" style="stop-color: #000000; stop-opacity: 1" /></linearGradient>
	

		
	
			
			
		</defs><g id="g2926"><ellipse id="path2911" cx="256" cy="256" rx="219.94637" ry="232.67055" style="font-variation-settings: 'wdth' 75, 'wght' 700; fill: #ffffff; fill-opacity: 1; stroke: none; stroke-width: 3.76614; stroke-linejoin: round; stroke-miterlimit: 4; stroke-dasharray: none; stroke-opacity: 1" /><path d="m 437.014,74.983 c -99.955,-99.978 -262.05,-99.978 -362.03,0.002 -99.979,99.956 -99.979,262.052 0,362.031 99.979,99.979 262.075,99.979 362.033,-0.002 99.978,-99.977 99.978,-262.073 -0.003,-362.031 z m -30.168,331.863 c -83.297,83.317 -218.375,83.317 -301.691,0 -83.316,-83.317 -83.317,-218.394 -0.002,-301.69 83.318,-83.318 218.396,-83.318 301.691,-0.003 83.318,83.299 83.318,218.377 0.002,301.693 z" id="path2" style="fill-opacity: 1; fill: #000000; stroke: #000000; stroke-opacity: 1" /><path d="m 358.408,354.086 c 0.226,-0.302 0.46,-0.597 0.67,-0.911 0.204,-0.305 0.381,-0.621 0.567,-0.933 0.17,-0.285 0.349,-0.563 0.506,-0.856 0.171,-0.319 0.315,-0.647 0.468,-0.972 0.144,-0.306 0.297,-0.607 0.427,-0.92 0.131,-0.316 0.236,-0.638 0.351,-0.958 0.121,-0.336 0.25,-0.668 0.354,-1.012 0.097,-0.32 0.168,-0.646 0.249,-0.969 0.089,-0.351 0.187,-0.698 0.258,-1.055 0.074,-0.375 0.118,-0.753 0.173,-1.13 0.044,-0.311 0.104,-0.617 0.135,-0.932 0.069,-0.701 0.106,-1.403 0.106,-2.107 V 213.329 c 0,-11.782 -9.551,-21.333 -21.333,-21.333 -11.782,0 -21.333,9.551 -21.333,21.333 v 76.497 L 185.756,155.578 c -8.331,-8.331 -21.839,-8.331 -30.17,0 -8.331,8.331 -8.331,21.839 0,30.17 l 134.248,134.248 h -76.497 c -11.782,0 -21.333,9.551 -21.333,21.333 0,11.782 9.551,21.333 21.333,21.333 h 128 c 0.703,0 1.405,-0.037 2.105,-0.106 0.316,-0.031 0.622,-0.09 0.933,-0.135 0.377,-0.054 0.755,-0.098 1.13,-0.172 0.358,-0.071 0.705,-0.169 1.056,-0.258 0.323,-0.081 0.648,-0.152 0.968,-0.249 0.345,-0.104 0.677,-0.234 1.014,-0.355 0.32,-0.115 0.642,-0.22 0.957,-0.35 0.314,-0.13 0.615,-0.283 0.921,-0.428 0.325,-0.153 0.653,-0.297 0.971,-0.468 0.293,-0.157 0.571,-0.336 0.855,-0.506 0.313,-0.187 0.629,-0.363 0.934,-0.568 0.314,-0.21 0.609,-0.443 0.91,-0.669 0.255,-0.191 0.518,-0.369 0.766,-0.573 0.535,-0.439 1.049,-0.903 1.539,-1.392 0.008,-0.007 0.016,-0.014 0.023,-0.021 0.007,-0.007 0.014,-0.016 0.021,-0.023 0.488,-0.49 0.952,-1.004 1.392,-1.539 0.208,-0.247 0.385,-0.509 0.576,-0.764 z" id="path4" /></g><sodipodi:namedview pagecolor="#ffffff" bordercolor="#666666" borderopacity="1" objecttolerance="10" gridtolerance="10" guidetolerance="10" id="namedview13" showgrid="false" inkscape:pageopacity="0" inkscape:pageshadow="2" inkscape:window-width="1920" inkscape:window-height="1027" inkscape:zoom="1.075" inkscape:cx="400" inkscape:cy="498.38293" inkscape:window-x="1072" inkscape:window-y="-8" inkscape:window-maximized="1" inkscape:current-layer="Layer_1" /></svg></svg>